{
.appVersion = "3151";
DisplayStrings = (
"´",
"/hungarumlautcomb",
"/hungarumlaut",
"/circumflex",
"/caron",
"/ringcomb",
"/ring",
"/tilde",
"/cedillacomb",
"¸",
"+",
"/minus",
"=",
"ü",
"i/ij",
"/jdotless",
j,
"",
"/f_i",
"/f_j",
r
>>>>>>> v1.001-beta
);
classes = (
{
automatic = 1;
code = "A B C D E F G H I J K L M N O P Q R S T U V W X Y Z a b c d e f g h i j k l m n o p q r s t u v w x y z zero one two three four five six seven eight nine period comma hyphen space CR colon semicolon ellipsis exclam exclamdown question questiondown periodcentered bullet asterisk numbersign slash backslash underscore quotedbl quotesingle asciicircum Aacute Acircumflex Adieresis Agrave Aring Atilde AE Ccedilla Eacute Ecircumflex Edieresis Egrave IJ Iacute Icircumflex Idieresis Igrave Jacute Ntilde Oacute Ocircumflex Odieresis Ograve Ohungarumlaut Otilde OE Uacute Ucircumflex Udieresis Ugrave Uhungarumlaut Wacute Wcircumflex Wdieresis Wgrave Yacute Ycircumflex Ydieresis Ygrave aacute acircumflex adieresis agrave aring atilde ae ccedilla eacute ecircumflex edieresis egrave idotless iacute icircumflex idieresis igrave ij jdotless jacute ntilde oacute ocircumflex odieresis ograve ohungarumlaut otilde oe germandbls uacute ucircumflex udieresis ugrave uhungarumlaut wacute wcircumflex wdieresis wgrave yacute ycircumflex ydieresis ygrave f_i f_j endash emdash parenleft parenright braceleft braceright bracketleft bracketright quotesinglbase quotedblbase quotedblleft quotedblright quoteleft quoteright guillemetleft guillemetright guilsinglleft guilsinglright at dollar dieresiscomb dotaccentcomb gravecomb acutecomb hungarumlautcomb circumflexcomb caroncomb ringcomb tildecomb cedillacomb dieresis dotaccent grave acute hungarumlaut circumflex caron ring tilde cedilla";
name = All;
}
);
copyright = "miklos ferencz©";
customParameters = (
{
name = glyphOrder;
value = (
.notdef,
A,
B,
C,
D,
E,
F,
G,
H,
I,
J,
K,
L,
M,
N,
O,
P,
Q,
R,
S,
T,
U,
V,
W,
X,
Y,
Z,
a,
b,
c,
d,
e,
f,
g,
h,
i,
j,
k,
l,
m,

glyphs = (
{
glyphname = .notdef;
lastChange = "2023-10-03 14:31:53 +0000";
layers = (
{
background = {
paths = (
{
closed = 1;
nodes = (
"166 188 LINE",
"399 188 LINE",
"399 218 LINE",
"166 218 LINE"
);
}
);
};
layerId = master01;
paths = (
{
closed = 1;
nodes = (
"496 0 LINE {\"Letterink-NibData\" = {ValidForParentWidth = 21;};}",
"496 721 LINE {\"Letterink-NibData\" = {ValidForParentWidth = 21;};}",
"70 721 LINE {\"Letterink-NibData\" = {ValidForParentWidth = 21;};}",
"70 0 LINE {\"Letterink-NibData\" = {ValidForParentWidth = 21;};}"
);
},
{
closed = 1;
nodes = (
"339.627 169.276 OFFCURVE",
"357.273 198.845 OFFCURVE",
"357.273 246.537 CURVE SMOOTH {\"Letterink-NibData\" = {ValidForParentWidth = 21;};}",
"357.273 313.305 OFFCURVE",
"332.474 364.335 OFFCURVE",
"275.244 364.335 CURVE SMOOTH {\"Letterink-NibData\" = {ValidForParentWidth = 21;};}",
"227.076 364.335 OFFCURVE",
"209.43 334.766 OFFCURVE",
"209.43 286.598 CURVE SMOOTH {\"Letterink-NibData\" = {ValidForParentWidth = 21;};}",
"209.43 220.306 OFFCURVE",
"234.229 169.276 OFFCURVE",
"291.459 169.276 CURVE SMOOTH {\"Letterink-NibData\" = {ValidForParentWidth = 21;};}"
);
},
{
closed = 1;
nodes = (
"137 633 LINE {\"Letterink-NibData\" = {ValidForParentWidth = 21;};}",
"429 633 LINE {\"Letterink-NibData\" = {ValidForParentWidth = 21;};}",
"429 88 LINE {\"Letterink-NibData\" = {ValidForParentWidth = 21;};}",
"137 88 LINE {\"Letterink-NibData\" = {ValidForParentWidth = 21;};}"
);
},
{
closed = 1;
nodes = (
"389 464 LINE {\"Letterink-NibData\" = {ValidForParentWidth = 21;};}",
"389 553 LINE {\"Letterink-NibData\" = {ValidForParentWidth = 21;};}",
"177 553 LINE {\"Letterink-NibData\" = {ValidForParentWidth = 21;};}",
"177 464 LINE {\"Letterink-NibData\" = {ValidForParentWidth = 21;};}"
);
}
);
width = 566;
},
{
layerId = "FA803571-32C9-4FEE-972F-1FEF49B82217";
paths = (
{
closed = 1;
nodes = (
"457 0 LINE",
"457 735 LINE",
"80 735 LINE",
"80 0 LINE"
);
},
{
closed = 1;
nodes = (
"319 138 OFFCURVE",
"340 165 OFFCURVE",
"340 215 CURVE SMOOTH",
"340 277 OFFCURVE",
"318 317 OFFCURVE",
"268 317 CURVE SMOOTH",
"218 317 OFFCURVE",
"196 290 OFFCURVE",
"197 239 CURVE SMOOTH",
"198 178 OFFCURVE",
"220 138 OFFCURVE",
"270 138 CURVE SMOOTH"
);
},
{
closed = 1;
nodes = (
"122 697 LINE",
"415 697 LINE",
"415 38 LINE",
"122 38 LINE"
);
},
{
closed = 1;
nodes = (
"375 535 LINE",
"375 596 LINE",
"162 596 LINE",
"162 535 LINE"
);
}
);
width = 537;
},
{
layerId = "494556E7-144A-4E25-B9FC-0C21051BD184";
paths = (
{
closed = 1;
nodes = (
"581 0 LINE",
"581 733 LINE",
"50 733 LINE",
"50 0 LINE"
);
},
{
closed = 1;
nodes = (
"348 221 OFFCURVE",
"355 242 OFFCURVE",
"355 275 CURVE SMOOTH",
"355 320 OFFCURVE",
"344 357 OFFCURVE",
"310 357 CURVE SMOOTH",
"282 357 OFFCURVE",
"276 335 OFFCURVE",
"276 303 CURVE SMOOTH",
"276 257 OFFCURVE",
"287 221 OFFCURVE",
"321 221 CURVE SMOOTH"
);
},
{
closed = 1;
nodes = (
"250 583 LINE",
"381 583 LINE",
"381 160 LINE",
"250 160 LINE"
);
},
{
closed = 1;
nodes = (
"352 481 LINE",
"352 522 LINE",
"280 522 LINE",
"280 481 LINE"
);
}
);
width = 641;
}
);
note = ".notdef";
},
{
color = 1;
glyphname = A;
lastChange = "2023-10-03 14:32:33 +0000";
layers = (
{
anchors = (
{
name = "#top";
position = "{317, 740}";
}
);
layerId = master01;
paths = (
{
closed = 1;
nodes = (
"120 0 LINE {\"Letterink-NibData\" = {ValidForParentWidth = \"21\";};}",
"326 691 LINE {\"Letterink-NibData\" = {ValidForParentWidth = \"21\";};}",
"300 691 LINE {\"Letterink-NibData\" = {ValidForParentWidth = \"21\";};}",
"508 0 LINE {\"Letterink-NibData\" = {ValidForParentWidth = \"21\";};}",
"608 0 LINE {\"Letterink-NibData\" = {ValidForParentWidth = \"21\";};}",
"361 755 LINE {\"Letterink-NibData\" = {ValidForParentWidth = \"21\";};}",
"281 755 LINE {\"Letterink-NibData\" = {ValidForParentWidth = \"21\";};}",
"30 0 LINE {\"Letterink-NibData\" = {ValidForParentWidth = \"21\";};}"
);
},
{
closed = 1;
nodes = (
"459 262 LINE {\"Letterink-NibData\" = {ValidForParentWidth = \"21\";};}",
"427 342 LINE {\"Letterink-NibData\" = {ValidForParentWidth = \"21\";};}",
"194 342 LINE {\"Letterink-NibData\" = {ValidForParentWidth = \"21\";};}",
"168 262 LINE {\"Letterink-NibData\" = {ValidForParentWidth = \"21\";};}"
);
}
);
width = 638;
},
{
anchors = (
{
name = "#top";
position = "{304, 740}";
}
);
background = {
paths = (
{
closed = 1;
nodes = (
"490 0 LINE",
"590 0 LINE",
"343 750 LINE",
"263 750 LINE",
"12 0 LINE",
"102 0 LINE",
"322 732 LINE",
"271 722 LINE"
);
},
{
closed = 1;
nodes = (
"409 352 LINE",
"176 352 LINE",
"150 272 LINE",
"441 272 LINE"
);
}
);
};
layerId = "FA803571-32C9-4FEE-972F-1FEF49B82217";
paths = (
{
closed = 1;
nodes = (
"74 0 LINE",
"315 724 LINE",
"291 724 LINE",
"525 0 LINE",
"574 0 LINE",
"323 751 LINE",
"288 751 LINE",
"31 0 LINE"
);
},
{
closed = 1;
nodes = (
"460 282 LINE",
"460 316 LINE",
"158 316 LINE",
"158 282 LINE"
);
}
);
width = 609;
},
{
anchors = (
{
name = "#top";
position = "{352, 740}";
}
);
layerId = "494556E7-144A-4E25-B9FC-0C21051BD184";
paths = (
{
closed = 1;
nodes = (
"231 0 LINE {\"Letterink-NibData\" = {ValidForParentWidth = \"30\";};}",
"368 601 LINE {\"Letterink-NibData\" = {ValidForParentWidth = \"30\";};}",
"323 601 LINE {\"Letterink-NibData\" = {ValidForParentWidth = \"30\";};}",
"462 0 LINE {\"Letterink-NibData\" = {ValidForParentWidth = \"30\";};}",
"691 0 LINE {\"Letterink-NibData\" = {ValidForParentWidth = \"30\";};}",
"457 750 LINE {\"Letterink-NibData\" = {ValidForParentWidth = \"30\";};}",
"247 750 LINE {\"Letterink-NibData\" = {ValidForParentWidth = \"30\";};}",
"15 2 LINE {\"Letterink-NibData\" = {ValidForParentWidth = \"30\";};}"
);
},
{
closed = 1;
nodes = (
"530 137 LINE {\"Letterink-NibData\" = {ValidForParentWidth = \"30\";};}",
"530 272 LINE {\"Letterink-NibData\" = {ValidForParentWidth = \"30\";};}",
"158 272 LINE {\"Letterink-NibData\" = {ValidForParentWidth = \"30\";};}",
"158 137 LINE {\"Letterink-NibData\" = {ValidForParentWidth = \"30\";};}"
);
}
);
width = 700;
}
);
note = "\012A\012";
unicode = 0041;
},
{
color = 5;
glyphname = B;
lastChange = "2023-10-03 14:31:53 +0000";
layers = (
{
background = {
paths = (
{
closed = 1;
nodes = (
"90 750 LINE",
"90 0 LINE",
"180 0 LINE",
"180 750 LINE"
);
},
{
closed = 1;
nodes = (
"90 0 LINE",
"154 -11 OFFCURVE",
"220 -14 OFFCURVE",
"310 -14 CURVE SMOOTH",
"505 -14 OFFCURVE",
"555 113 OFFCURVE",
"555 224 CURVE SMOOTH",
"555 332 OFFCURVE",
"469 425 OFFCURVE",
"377 425 CURVE SMOOTH",
"161 425 LINE",
"133 350 LINE",
"323 350 LINE",
"413 350 OFFCURVE",
"465 279 OFFCURVE",
"465 216 CURVE SMOOTH",
"465 165 OFFCURVE",
"449 116 OFFCURVE",
"411 76 CURVE",
"382 64 OFFCURVE",
"331 62 OFFCURVE",
"275 62 CURVE SMOOTH",
"217 62 OFFCURVE",
"153 75 OFFCURVE",
"106 91 CURVE"
);
},
{
closed = 1;
nodes = (
"166 683 OFFCURVE",
"232 687 OFFCURVE",
"263 687 CURVE SMOOTH",
"382 687 OFFCURVE",
"434 630 OFFCURVE",
"434 558 CURVE SMOOTH",
"434 496 OFFCURVE",
"393 449 OFFCURVE",
"357 425 CURVE",
"365 366 LINE",
"459 410 OFFCURVE",
"521 480 OFFCURVE",
"521 574 CURVE SMOOTH",
"521 674 OFFCURVE",
"445 764 OFFCURVE",
"285 764 CURVE SMOOTH",
"203 764 OFFCURVE",
"107 753 OFFCURVE",
"90 750 CURVE",
"134 674 LINE"
);
}
);
};
layerId = master01;
paths = (
{
closed = 1;
nodes = (
"441 -14 OFFCURVE",
"555 39 OFFCURVE",
"555 224 CURVE SMOOTH {\"Letterink-NibData\" = {ValidForParentWidth = 21;};}",
"555 332 OFFCURVE",
"469 425 OFFCURVE",
"377 425 CURVE SMOOTH {\"Letterink-NibData\" = {ValidForParentWidth = 21;};}",
"161 425 LINE {\"Letterink-NibData\" = {ValidForParentWidth = 21;};}",
"133 350 LINE {\"Letterink-NibData\" = {ValidForParentWidth = 21;};}",
"323 350 LINE {\"Letterink-NibData\" = {ValidForParentWidth = 21;};}",
"413 350 OFFCURVE",
"465 279 OFFCURVE",
"465 216 CURVE SMOOTH {\"Letterink-NibData\" = {ValidForParentWidth = 21;};}",
"465 165 OFFCURVE",
"449 116 OFFCURVE",
"411 76 CURVE {\"Letterink-NibData\" = {ValidForParentWidth = 21;};}",
"382 64 OFFCURVE",
"331 62 OFFCURVE",
"275 62 CURVE SMOOTH {\"Letterink-NibData\" = {ValidForParentWidth = 21;};}",
"217 62 OFFCURVE",
"153 75 OFFCURVE",
"106 91 CURVE {\"Letterink-NibData\" = {ValidForParentWidth = 21;};}",
"90 0 LINE {\"Letterink-NibData\" = {ValidForParentWidth = 21;};}",
"155 -8 OFFCURVE",
"215 -14 OFFCURVE",
"270 -14 CURVE SMOOTH {\"Letterink-NibData\" = {ValidForParentWidth = 21;};}"
);
},
{
closed = 1;
nodes = (
"180 0 LINE {\"Letterink-NibData\" = {ValidForParentWidth = 21;};}",
"180 750 LINE {\"Letterink-NibData\" = {ValidForParentWidth = 21;};}",
"90 750 LINE {\"Letterink-NibData\" = {ValidForParentWidth = 21;};}",
"90 0 LINE {\"Letterink-NibData\" = {ValidForParentWidth = 21;};}"
);
},
{
closed = 1;
nodes = (
"459 410 OFFCURVE",
"521 480 OFFCURVE",
"521 574 CURVE SMOOTH {\"Letterink-NibData\" = {ValidForParentWidth = 21;};}",
"521 674 OFFCURVE",
"445 764 OFFCURVE",
"285 764 CURVE SMOOTH {\"Letterink-NibData\" = {ValidForParentWidth = 21;};}",
"203 764 OFFCURVE",
"107 753 OFFCURVE",
"90 750 CURVE {\"Letterink-NibData\" = {ValidForParentWidth = 21;};}",
"134 674 LINE {\"Letterink-NibData\" = {ValidForParentWidth = 21;};}",
"166 683 OFFCURVE",
"232 687 OFFCURVE",
"263 687 CURVE SMOOTH {\"Letterink-NibData\" = {ValidForParentWidth = 21;};}",
"382 687 OFFCURVE",
"434 630 OFFCURVE",
"434 558 CURVE SMOOTH {\"Letterink-NibData\" = {ValidForParentWidth = 21;};}",
"434 496 OFFCURVE",
"393 449 OFFCURVE",
"357 425 CURVE {\"Letterink-NibData\" = {ValidForParentWidth = 21;};}",
"365 366 LINE {\"Letterink-NibData\" = {ValidForParentWidth = 21;};}"
);
}
);
width = 595;
},
{
background = {
paths = (
{
closed = 1;
nodes = (
"150 0 LINE",
"150 749 LINE",
"110 749 LINE",
"110 0 LINE"
);
},
{
closed = 1;
nodes = (
"161 721 OFFCURVE",
"213 724 OFFCURVE",
"242 724 CURVE SMOOTH",
"377 724 OFFCURVE",
"442 660 OFFCURVE",
"442 573 CURVE SMOOTH",
"442 487 OFFCURVE",
"387 440 OFFCURVE",
"337 414 CURVE",
"292 403 LINE",
"326 378 LINE",
"417 408 OFFCURVE",
"482 483 OFFCURVE",
"482 573 CURVE SMOOTH",
"482 683 OFFCURVE",
"399 764 OFFCURVE",
"244 764 CURVE SMOOTH",
"211 764 OFFCURVE",
"152 760 OFFCURVE",
"110 750 CURVE",
"123 713 LINE"
);
},
{
closed = 1;
nodes = (
"156 -10 OFFCURVE",
"217 -14 OFFCURVE",
"259 -14 CURVE SMOOTH",
"437 -14 OFFCURVE",
"518 83 OFFCURVE",
"518 218 CURVE SMOOTH",
"518 331 OFFCURVE",
"409 414 OFFCURVE",
"339 414 CURVE SMOOTH",
"134 414 LINE",
"134 379 LINE",
"277 379 LINE SMOOTH",
"395 379 OFFCURVE",
"473 304 OFFCURVE",
"473 200 CURVE SMOOTH",
"473 139 OFFCURVE",
"454 106 OFFCURVE",
"409 58 CURVE",
"361 38 OFFCURVE",
"302 26 OFFCURVE",
"247 26 CURVE SMOOTH",
"205 26 OFFCURVE",
"160 30 OFFCURVE",
"129 44 CURVE",
"110 0 LINE"
);
}
);
};
layerId = "FA803571-32C9-4FEE-972F-1FEF49B82217";
paths = (
{
closed = 1;
nodes = (
"437 -14 OFFCURVE",
"518 83 OFFCURVE",
"518 218 CURVE SMOOTH",
"518 331 OFFCURVE",
"409 414 OFFCURVE",
"339 414 CURVE SMOOTH",
"134 414 LINE",
"134 379 LINE",
"277 379 LINE SMOOTH",
"395 379 OFFCURVE",
"473 304 OFFCURVE",
"473 200 CURVE SMOOTH",
"473 129 OFFCURVE",
"448 95 OFFCURVE",
"413 57 CURVE",
"370 34 OFFCURVE",
"310 26 OFFCURVE",
"256 26 CURVE SMOOTH",
"208 26 OFFCURVE",
"162 33 OFFCURVE",
"129 44 CURVE",
"110 0 LINE",
"156 -10 OFFCURVE",
"217 -14 OFFCURVE",
"259 -14 CURVE SMOOTH"
);
},
{
closed = 1;
nodes = (
"150 0 LINE",
"150 749 LINE",
"110 749 LINE",
"110 0 LINE"
);
},
{
closed = 1;
nodes = (
"417 408 OFFCURVE",
"482 483 OFFCURVE",
"482 573 CURVE SMOOTH",
"482 683 OFFCURVE",
"399 764 OFFCURVE",
"244 764 CURVE SMOOTH",
"211 764 OFFCURVE",
"152 760 OFFCURVE",
"110 750 CURVE",
"123 713 LINE",
"161 721 OFFCURVE",
"213 724 OFFCURVE",
"242 724 CURVE SMOOTH",
"377 724 OFFCURVE",
"442 660 OFFCURVE",
"442 573 CURVE SMOOTH",
"442 487 OFFCURVE",
"387 440 OFFCURVE",
"337 414 CURVE",
"326 378 LINE"
);
}
);
width = 580;
},
{
layerId = "494556E7-144A-4E25-B9FC-0C21051BD184";
paths = (
{
closed = 1;
nodes = (
"519 -14 OFFCURVE",
"630 91 OFFCURVE",
"630 229 CURVE SMOOTH",
"630 353 OFFCURVE",
"526 430 OFFCURVE",
"384 430 CURVE SMOOTH",
"209 430 LINE",
"209 330 LINE",
"294 330 LINE SMOOTH",
"386 330 OFFCURVE",
"440 286 OFFCURVE",
"440 224 CURVE SMOOTH",
"440 188 OFFCURVE",
"425 162 OFFCURVE",
"408 139 CURVE",
"393 131 OFFCURVE",
"363 128 OFFCURVE",
"339 128 CURVE SMOOTH",
"275 128 OFFCURVE",
"175 160 OFFCURVE",
"122 182 CURVE",
"88 1 LINE",
"159 -8 OFFCURVE",
"192 -14 OFFCURVE",
"317 -14 CURVE SMOOTH"
);
},
{
closed = 1;
nodes = (
"290 0 LINE",
"290 750 LINE",
"80 750 LINE",
"80 0 LINE"
);
},
{
closed = 1;
nodes = (
"471 356 OFFCURVE",
"602 426 OFFCURVE",
"602 546 CURVE SMOOTH",
"602 702 OFFCURVE",
"428 764 OFFCURVE",
"264 764 CURVE SMOOTH",
"160 764 OFFCURVE",
"107 756 OFFCURVE",
"80 750 CURVE",
"256 608 LINE",
"283 609 OFFCURVE",
"303 612 OFFCURVE",
"325 612 CURVE SMOOTH",
"402 612 OFFCURVE",
"433 584 OFFCURVE",
"433 523 CURVE SMOOTH",
"433 463 OFFCURVE",
"397 441 OFFCURVE",
"373 428 CURVE",
"339 356 LINE"
);
}
);
width = 668;
}
);
leftMetricsKey = H;
note = B;
unicode = 0042;
},
{
color = 5;
glyphname = C;
lastChange = "2023-10-03 14:31:53 +0000";
layers = (
{
anchors = (
{
name = "#bottom";
position = "{322, 0}";
},
{
name = "#top";
position = "{335, 750}";
}
);
background = {
paths = (
{
closed = 1;
nodes = (
"564 140 LINE",
"474 98 OFFCURVE",
"389 71 OFFCURVE",
"339 62 CURVE",
"224 83 OFFCURVE",
"126 171 OFFCURVE",
"135 434 CURVE SMOOTH",
"141 619 OFFCURVE",
"227 679 OFFCURVE",
"315 689 CURVE",
"387 679 OFFCURVE",
"489 649 OFFCURVE",
"554 615 CURVE",
"588 703 LINE",
"495 748 OFFCURVE",
"438 764 OFFCURVE",
"369 764 CURVE SMOOTH",
"139 764 OFFCURVE",
"45 615 OFFCURVE",
"45 374 CURVE SMOOTH",
"45 126 OFFCURVE",
"170 -14 OFFCURVE",
"344 -14 CURVE SMOOTH",
"415 -14 OFFCURVE",
"529 22 OFFCURVE",
"593 61 CURVE"
);
}
);
};
guideLines = (
{
angle = 71.6915;
position = "{471, 406}";
},
{
angle = 108.3085;
position = "{476, 406}";
}
);
layerId = master01;
paths = (
{
closed = 1;
nodes = (
"415 -14 OFFCURVE",
"529 22 OFFCURVE",
"593 61 CURVE {\"Letterink-NibData\" = {ValidForParentWidth = 21;};}",
"564 140 LINE {\"Letterink-NibData\" = {ValidForParentWidth = 21;};}",
"474 98 OFFCURVE",
"389 71 OFFCURVE",
"339 62 CURVE {\"Letterink-NibData\" = {ValidForParentWidth = 21;};}",
"199 85 OFFCURVE",
"135 207 OFFCURVE",
"135 447 CURVE SMOOTH {\"Letterink-NibData\" = {ValidForParentWidth = 21;};}",
"135 575 OFFCURVE",
"205 685 OFFCURVE",
"315 688 CURVE {\"Letterink-NibData\" = {ValidForParentWidth = 21;};}",
"387 678 OFFCURVE",
"489 647 OFFCURVE",
"554 615 CURVE {\"Letterink-NibData\" = {ValidForParentWidth = 21;};}",
"588 703 LINE {\"Letterink-NibData\" = {ValidForParentWidth = 21;};}",
"495 748 OFFCURVE",
"438 764 OFFCURVE",
"369 764 CURVE SMOOTH {\"Letterink-NibData\" = {ValidForParentWidth = 21;};}",
"145 764 OFFCURVE",
"45 607 OFFCURVE",
"45 375 CURVE SMOOTH {\"Letterink-NibData\" = {ValidForParentWidth = 21;};}",
"45 151 OFFCURVE",
"139 -14 OFFCURVE",
"344 -14 CURVE SMOOTH {\"Letterink-NibData\" = {ValidForParentWidth = 21;};}"
);
}
);
width = 633;
},
{
anchors = (
{
name = "#bottom";
position = "{332, 0}";
},
{
name = "#top";
position = "{345, 750}";
}
);
background = {
guideLines = (
{
angle = 250.887;
position = "{557, 657}";
},
{
angle = 105.7808;
position = "{580, 108}";
}
);
paths = (
{
closed = 1;
nodes = (
"555 89 LINE",
"495 60 OFFCURVE",
"388 28 OFFCURVE",
"337 26 CURVE",
"128 57 OFFCURVE",
"104 229 OFFCURVE",
"104 424 CURVE SMOOTH",
"104 620 OFFCURVE",
"187 707 OFFCURVE",
"354 724 CURVE",
"402 720 OFFCURVE",
"495 696 OFFCURVE",
"554 672 CURVE",
"567 713 LINE",
"500 741 OFFCURVE",
"424 764 OFFCURVE",
"370 764 CURVE SMOOTH",
"159 764 OFFCURVE",
"60 632 OFFCURVE",
"60 374 CURVE SMOOTH",
"60 167 OFFCURVE",
"162 -14 OFFCURVE",
"353 -14 CURVE SMOOTH",
"410 -14 OFFCURVE",
"498 15 OFFCURVE",
"568 48 CURVE"
);
}
);
};
guideLines = (
{
angle = 71.6915;
position = "{469, 406}";
},
{
angle = 108.3085;
position = "{432, 406}";
}
);
layerId = "FA803571-32C9-4FEE-972F-1FEF49B82217";
paths = (
{
closed = 1;
nodes = (
"410 -14 OFFCURVE",
"498 15 OFFCURVE",
"568 48 CURVE",
"555 89 LINE",
"495 60 OFFCURVE",
"383 32 OFFCURVE",
"331 29 CURVE",
"126 47 OFFCURVE",
"104 214 OFFCURVE",
"104 422 CURVE SMOOTH",
"104 591 OFFCURVE",
"186 724 OFFCURVE",
"354 724 CURVE",
"402 719 OFFCURVE",
"495 696 OFFCURVE",
"554 672 CURVE",
"567 713 LINE",
"492 744 OFFCURVE",
"417 764 OFFCURVE",
"360 764 CURVE SMOOTH",
"150 764 OFFCURVE",
"60 592 OFFCURVE",
"60 372 CURVE SMOOTH",
"60 161 OFFCURVE",
"146 -14 OFFCURVE",
"353 -14 CURVE SMOOTH"
);
}
);
width = 623;
},
{
anchors = (
{
name = "#bottom";
position = "{352, 0}";
},
{
name = "#top";
position = "{385, 740}";
}
);
layerId = "494556E7-144A-4E25-B9FC-0C21051BD184";
paths = (
{
closed = 1;
nodes = (
"475 -14 OFFCURVE",
"606 18 OFFCURVE",
"669 63 CURVE",
"609 244 LINE",
"567 219 OFFCURVE",
"500 187 OFFCURVE",
"416 148 CURVE",
"304 156 OFFCURVE",
"246 243 OFFCURVE",
"246 372 CURVE SMOOTH",
"246 494 OFFCURVE",
"287 558 OFFCURVE",
"370 597 CURVE",
"452 581 OFFCURVE",
"546 558 OFFCURVE",
"609 528 CURVE",
"663 691 LINE",
"568 750 OFFCURVE",
"470 765 OFFCURVE",
"390 765 CURVE SMOOTH",
"157 765 OFFCURVE",
"25 633 OFFCURVE",
"25 376 CURVE SMOOTH",
"25 152 OFFCURVE",
"153 -14 OFFCURVE",
"379 -14 CURVE SMOOTH"
);
}
);
width = 699;
}
);
leftKerningGroup = O;
leftMetricsKey = O;
note = C;
unicode = 0043;
},
{
color = 5;
glyphname = D;
lastChange = "2023-10-03 14:31:53 +0000";
layers = (
{
background = {
paths = (
{
closed = 1;
nodes = (
"90 750 LINE",
"90 0 LINE",
"180 0 LINE",
"180 750 LINE"
);
},
{
closed = 1;
nodes = (
"90 0 LINE",
"155 -7 OFFCURVE",
"222 -14 OFFCURVE",
"287 -14 CURVE SMOOTH",
"492 -14 OFFCURVE",
"627 113 OFFCURVE",
"627 393 CURVE SMOOTH",
"627 692 OFFCURVE",
"472 764 OFFCURVE",
"305 764 CURVE SMOOTH",
"215 764 OFFCURVE",
"159 762 OFFCURVE",
"90 750 CURVE",
"135 671 LINE",
"172 681 OFFCURVE",
"208 688 OFFCURVE",
"298 688 CURVE SMOOTH",
"445 688 OFFCURVE",
"537 590 OFFCURVE",
"537 380 CURVE SMOOTH",
"537 211 OFFCURVE",
"494 136 OFFCURVE",
"423 78 CURVE",
"398 66 OFFCURVE",
"352 62 OFFCURVE",
"303 62 CURVE SMOOTH",
"223 62 OFFCURVE",
"153 68 OFFCURVE",
"107 82 CURVE"
);
}
);
};
layerId = master01;
paths = (
{
closed = 1;
nodes = (
"521 -14 OFFCURVE",
"630 133 OFFCURVE",
"630 368 CURVE SMOOTH {\"Letterink-NibData\" = {ValidForParentWidth = 21;};}",
"630 623 OFFCURVE",
"531 764 OFFCURVE",
"313 764 CURVE SMOOTH {\"Letterink-NibData\" = {ValidForParentWidth = 21;};}",
"239 764 OFFCURVE",
"152 756 OFFCURVE",
"90 750 CURVE {\"Letterink-NibData\" = {ValidForParentWidth = 21;};}",
"135 676 LINE {\"Letterink-NibData\" = {ValidForParentWidth = 21;};}",
"185 685 OFFCURVE",
"235 689 OFFCURVE",
"275 689 CURVE SMOOTH {\"Letterink-NibData\" = {ValidForParentWidth = 21;};}",
"463 689 OFFCURVE",
"539 580 OFFCURVE",
"539 348 CURVE SMOOTH {\"Letterink-NibData\" = {ValidForParentWidth = 21;};}",
"539 182 OFFCURVE",
"500 122 OFFCURVE",
"443 78 CURVE {\"Letterink-NibData\" = {ValidForParentWidth = 21;};}",
"415 67 OFFCURVE",
"364 62 OFFCURVE",
"303 62 CURVE SMOOTH {\"Letterink-NibData\" = {ValidForParentWidth = 21;};}",
"223 62 OFFCURVE",
"153 68 OFFCURVE",
"107 82 CURVE {\"Letterink-NibData\" = {ValidForParentWidth = 21;};}",
"90 0 LINE {\"Letterink-NibData\" = {ValidForParentWidth = 21;};}",
"155 -7 OFFCURVE",
"232 -14 OFFCURVE",
"297 -14 CURVE SMOOTH {\"Letterink-NibData\" = {ValidForParentWidth = 21;};}"
);
},
{
closed = 1;
nodes = (
"180 0 LINE {\"Letterink-NibData\" = {ValidForParentWidth = 21;};}",
"180 750 LINE {\"Letterink-NibData\" = {ValidForParentWidth = 21;};}",
"90 750 LINE {\"Letterink-NibData\" = {ValidForParentWidth = 21;};}",
"90 0 LINE {\"Letterink-NibData\" = {ValidForParentWidth = 21;};}"
);
}
);
width = 675;
},
{
layerId = "FA803571-32C9-4FEE-972F-1FEF49B82217";
paths = (
{
closed = 1;
nodes = (
"526 -13 OFFCURVE",
"618 151 OFFCURVE",
"618 376 CURVE SMOOTH",
"618 604 OFFCURVE",
"535 764 OFFCURVE",
"295 764 CURVE SMOOTH",
"233 764 OFFCURVE",
"172 757 OFFCURVE",
"110 749 CURVE",
"124 709 LINE",
"179 719 OFFCURVE",
"237 724 OFFCURVE",
"292 724 CURVE SMOOTH",
"518 724 OFFCURVE",
"574 607 OFFCURVE",
"574 347 CURVE SMOOTH",
"574 138 OFFCURVE",
"488 79 OFFCURVE",
"417 41 CURVE",
"381 30 OFFCURVE",
"315 25 OFFCURVE",
"287 25 CURVE SMOOTH",
"232 25 OFFCURVE",
"174 33 OFFCURVE",
"127 48 CURVE",
"110 0 LINE",
"169 -12 OFFCURVE",
"237 -13 OFFCURVE",
"296 -13 CURVE SMOOTH"
);
},
{
closed = 1;
nodes = (
"150 0 LINE",
"150 749 LINE",
"110 749 LINE",
"110 0 LINE"
);
}
);
width = 678;
},
{
layerId = "494556E7-144A-4E25-B9FC-0C21051BD184";
paths = (
{
closed = 1;
nodes = (
"492 -14 OFFCURVE",
"677 113 OFFCURVE",
"677 393 CURVE SMOOTH",
"677 692 OFFCURVE",
"472 764 OFFCURVE",
"305 764 CURVE SMOOTH",
"215 764 OFFCURVE",
"149 758 OFFCURVE",
"80 750 CURVE",
"135 597 LINE",
"172 607 OFFCURVE",
"208 614 OFFCURVE",
"298 614 CURVE SMOOTH",
"385 614 OFFCURVE",
"457 506 OFFCURVE",
"457 380 CURVE SMOOTH",
"457 281 OFFCURVE",
"434 204 OFFCURVE",
"363 146 CURVE",
"345 139 OFFCURVE",
"320 136 OFFCURVE",
"290 136 CURVE SMOOTH",
"260 136 OFFCURVE",
"156 150 OFFCURVE",
"107 160 CURVE",
"80 0 LINE",
"143 -9 OFFCURVE",
"205 -14 OFFCURVE",
"287 -14 CURVE SMOOTH"
);
},
{
closed = 1;
nodes = (
"290 0 LINE",
"290 750 LINE",
"80 750 LINE",
"80 0 LINE"
);
}
);
width = 702;
}
);
leftMetricsKey = H;
note = D;
rightMetricsKey = O;
unicode = 0044;
},
{
color = 1;
glyphname = E;
lastChange = "2023-10-03 14:31:53 +0000";
layers = (
{
anchors = (
{
name = "#top";
position = "{281, 740}";
}
);
background = {
paths = (
{
closed = 1;
nodes = (
"161 81 LINE",
"161 0 LINE",
"505 0 LINE",
"476 89 LINE"
);
},
{
closed = 1;
nodes = (
"161 399 LINE",
"161 318 LINE",
"430 318 LINE",
"430 399 LINE"
);
},
{
closed = 1;
nodes = (
"459 604 LINE",
"496 700 LINE",
"80 700 LINE",
"80 0 LINE",
"170 0 LINE",
"170 619 LINE"
);
}
);
};
guideLines = (
{
angle = 71.6915;
position = "{102, 406}";
}
);
layerId = master01;
paths = (
{
closed = 1;
nodes = (
"180 0 LINE {\"Letterink-NibData\" = {ValidForParentWidth = 21;};}",
"180 750 LINE {\"Letterink-NibData\" = {ValidForParentWidth = 21;};}",
"90 750 LINE {\"Letterink-NibData\" = {ValidForParentWidth = 21;};}",
"90 0 LINE {\"Letterink-NibData\" = {ValidForParentWidth = 21;};}"
);
},
{
closed = 1;
nodes = (
"498 0 LINE {\"Letterink-NibData\" = {ValidForParentWidth = 21;};}",
"526 86 LINE {\"Letterink-NibData\" = {ValidForParentWidth = 21;};}",
"171 79 LINE {\"Letterink-NibData\" = {ValidForParentWidth = 21;};}",
"171 0 LINE {\"Letterink-NibData\" = {ValidForParentWidth = 21;};}"
);
},
{
closed = 1;
nodes = (
"471 354 LINE {\"Letterink-NibData\" = {ValidForParentWidth = 21;};}",
"471 434 LINE {\"Letterink-NibData\" = {ValidForParentWidth = 21;};}",
"171 434 LINE {\"Letterink-NibData\" = {ValidForParentWidth = 21;};}",
"171 354 LINE {\"Letterink-NibData\" = {ValidForParentWidth = 21;};}"
);
},
{
closed = 1;
nodes = (
"527 750 LINE {\"Letterink-NibData\" = {ValidForParentWidth = 21;};}",
"170 750 LINE {\"Letterink-NibData\" = {ValidForParentWidth = 21;};}",
"180 670 LINE {\"Letterink-NibData\" = {ValidForParentWidth = 21;};}",
"498 663 LINE {\"Letterink-NibData\" = {ValidForParentWidth = 21;};}"
);
}
);
width = 562;
},
{
anchors = (
{
name = "#top";
position = "{281, 740}";
}
);
background = {
paths = (
{
closed = 1;
nodes = (
"176 79 LINE",
"176 0 LINE",
"515 0 LINE",
"531 86 LINE"
);
},
{
closed = 1;
nodes = (
"176 434 LINE",
"176 354 LINE",
"476 354 LINE",
"476 434 LINE"
);
},
{
closed = 1;
nodes = (
"516 663 LINE",
"532 750 LINE",
"95 750 LINE",
"95 0 LINE",
"185 0 LINE",
"185 670 LINE"
);
}
);
};
guideLines = (
{
angle = 108.3085;
position = "{433, 406}";
},
{
angle = 71.6915;
position = "{357, 406}";
}
);
layerId = "FA803571-32C9-4FEE-972F-1FEF49B82217";
paths = (
{
closed = 1;
nodes = (
"150 0 LINE",
"150 750 LINE",
"110 750 LINE",
"110 0 LINE"
);
},
{
closed = 1;
nodes = (
"460 0 LINE",
"472 38 LINE",
"141 32 LINE",
"141 0 LINE"
);
},
{
closed = 1;
nodes = (
"416 373 LINE",
"416 407 LINE",
"141 407 LINE",
"141 373 LINE"
);
},
{
closed = 1;
nodes = (
"471 750 LINE",
"141 750 LINE",
"141 718 LINE",
"458 712 LINE"
);
}
);
width = 521;
},
{
anchors = (
{
name = "#top";
position = "{341, 740}";
}
);
layerId = "494556E7-144A-4E25-B9FC-0C21051BD184";
paths = (
{
closed = 1;
nodes = (
"290 0 LINE",
"290 750 LINE",
"80 750 LINE",
"80 0 LINE"
);
},
{
closed = 1;
nodes = (
"553 -1 LINE",
"603 149 LINE",
"231 139 LINE",
"231 -1 LINE"
);
},
{
closed = 1;
nodes = (
"533 307 LINE",
"533 457 LINE",
"161 457 LINE",
"161 307 LINE"
);
},
{
closed = 1;
nodes = (
"602 750 LINE",
"221 750 LINE",
"221 610 LINE",
"553 600 LINE"
);
}
);
width = 638;
}
);
leftMetricsKey = H;
note = E;
unicode = 0045;
},
{
color = 5;
glyphname = F;
lastChange = "2023-10-03 14:31:53 +0000";
layers = (
{
background = {
paths = (
{
closed = 1;
nodes = (
"180 0 LINE",
"180 750 LINE",
"90 750 LINE",
"90 0 LINE"
);
},
{
closed = 1;
nodes = (
"171 354 LINE",
"460 354 LINE",
"460 434 LINE",
"171 434 LINE"
);
},
{
closed = 1;
nodes = (
"498 663 LINE",
"527 750 LINE",
"170 750 LINE",
"180 670 LINE"
);
}
);
};
guideLines = (
{
angle = 71.6915;
position = "{413, 406}";
}
);
layerId = master01;
paths = (
{
closed = 1;
nodes = (
"180 0 LINE {\"Letterink-NibData\" = {ValidForParentWidth = 21;};}",
"180 750 LINE {\"Letterink-NibData\" = {ValidForParentWidth = 21;};}",
"90 750 LINE {\"Letterink-NibData\" = {ValidForParentWidth = 21;};}",
"90 0 LINE {\"Letterink-NibData\" = {ValidForParentWidth = 21;};}"
);
},
{
closed = 1;
nodes = (
"460 318 LINE {\"Letterink-NibData\" = {ValidForParentWidth = 21;};}",
"460 398 LINE {\"Letterink-NibData\" = {ValidForParentWidth = 21;};}",
"171 398 LINE {\"Letterink-NibData\" = {ValidForParentWidth = 21;};}",
"171 318 LINE {\"Letterink-NibData\" = {ValidForParentWidth = 21;};}"
);
},
{
closed = 1;
nodes = (
"527 750 LINE {\"Letterink-NibData\" = {ValidForParentWidth = 21;};}",
"170 750 LINE {\"Letterink-NibData\" = {ValidForParentWidth = 21;};}",
"180 670 LINE {\"Letterink-NibData\" = {ValidForParentWidth = 21;};}",
"498 663 LINE {\"Letterink-NibData\" = {ValidForParentWidth = 21;};}"
);
}
);
width = 552;
},
{
background = {
paths = (
{
closed = 1;
nodes = (
"150 0 LINE",
"150 749 LINE",
"110 749 LINE",
"110 0 LINE"
);
},
{
closed = 1;
nodes = (
"141 373 LINE",
"416 373 LINE",
"416 407 LINE",
"141 407 LINE"
);
},
{
closed = 1;
nodes = (
"458 711 LINE",
"471 749 LINE",
"141 749 LINE",
"141 717 LINE"
);
}
);
};
guideLines = (
{
angle = 71.6915;
position = "{357, 406}";
}
);
layerId = "FA803571-32C9-4FEE-972F-1FEF49B82217";
paths = (
{
closed = 1;
nodes = (
"150 0 LINE",
"150 750 LINE",
"110 750 LINE",
"110 0 LINE"
);
},
{
closed = 1;
nodes = (
"416 343 LINE",
"416 377 LINE",
"141 377 LINE",
"141 343 LINE"
);
},
{
closed = 1;
nodes = (
"471 750 LINE",
"141 750 LINE",
"141 718 LINE",
"458 712 LINE"
);
}
);
width = 516;
},
{
layerId = "494556E7-144A-4E25-B9FC-0C21051BD184";
paths = (
{
closed = 1;
nodes = (
"290 0 LINE",
"290 750 LINE",
"80 750 LINE",
"80 0 LINE"
);
},
{
closed = 1;
nodes = (
"524 271 LINE",
"524 421 LINE",
"152 421 LINE",
"152 271 LINE"
);
},
{
closed = 1;
nodes = (
"602 750 LINE",
"221 750 LINE",
"221 610 LINE",
"553 600 LINE"
);
}
);
width = 606;
}
);
leftMetricsKey = H;
note = F;
rightKerningGroup = o;
unicode = 0046;
},
{
color = 5;
glyphname = G;
lastChange = "2023-10-03 14:31:53 +0000";
layers = (
{
background = {
paths = (
{
closed = 1;
nodes = (
"363 276 LINE",
"506 281 LINE",
"506 104 LINE",
"467 85 OFFCURVE",
"417 68 OFFCURVE",
"348 62 CURVE",
"244 89 OFFCURVE",
"127 156 OFFCURVE",
"135 434 CURVE SMOOTH",
"140 619 OFFCURVE",
"227 679 OFFCURVE",
"315 689 CURVE",
"387 679 OFFCURVE",
"489 649 OFFCURVE",
"554 615 CURVE",
"588 703 LINE",
"495 748 OFFCURVE",
"438 764 OFFCURVE",
"369 764 CURVE SMOOTH",
"139 764 OFFCURVE",
"45 615 OFFCURVE",
"45 374 CURVE SMOOTH",
"45 126 OFFCURVE",
"184 -14 OFFCURVE",
"339 -14 CURVE SMOOTH",
"417 -14 OFFCURVE",
"514 10 OFFCURVE",
"575 55 CURVE",
"596 118 LINE",
"596 365 LINE",
"392 365 LINE"
);
}
);
};
guideLines = (
{
angle = 71.6915;
position = "{376, 406}";
}
);
layerId = master01;
paths = (
{
closed = 1;
nodes = (
"407 -14 OFFCURVE",
"509 16 OFFCURVE",
"575 51 CURVE {\"Letterink-NibData\" = {ValidForParentWidth = 21;};}",
"596 117 LINE {\"Letterink-NibData\" = {ValidForParentWidth = 21;};}",
"596 364 LINE {\"Letterink-NibData\" = {ValidForParentWidth = 21;};}",
"392 364 LINE {\"Letterink-NibData\" = {ValidForParentWidth = 21;};}",
"363 275 LINE {\"Letterink-NibData\" = {ValidForParentWidth = 21;};}",
"506 280 LINE {\"Letterink-NibData\" = {ValidForParentWidth = 21;};}",
"506 104 LINE {\"Letterink-NibData\" = {ValidForParentWidth = 21;};}",
"467 85 OFFCURVE",
"388 65 OFFCURVE",
"339 62 CURVE {\"Letterink-NibData\" = {ValidForParentWidth = 21;};}",
"199 85 OFFCURVE",
"135 207 OFFCURVE",
"135 447 CURVE SMOOTH {\"Letterink-NibData\" = {ValidForParentWidth = 21;};}",
"135 575 OFFCURVE",
"185 685 OFFCURVE",
"315 688 CURVE {\"Letterink-NibData\" = {ValidForParentWidth = 21;};}",
"387 678 OFFCURVE",
"489 647 OFFCURVE",
"554 615 CURVE {\"Letterink-NibData\" = {ValidForParentWidth = 21;};}",
"588 703 LINE {\"Letterink-NibData\" = {ValidForParentWidth = 21;};}",
"495 748 OFFCURVE",
"438 764 OFFCURVE",
"369 764 CURVE SMOOTH {\"Letterink-NibData\" = {ValidForParentWidth = 21;};}",
"145 764 OFFCURVE",
"45 607 OFFCURVE",
"45 375 CURVE SMOOTH {\"Letterink-NibData\" = {ValidForParentWidth = 21;};}",
"45 133 OFFCURVE",
"150 -14 OFFCURVE",
"342 -14 CURVE SMOOTH {\"Letterink-NibData\" = {ValidForParentWidth = 21;};}"
);
}
);
width = 633;
},
{
background = {
paths = (
{
closed = 1;
nodes = (
"395 329 LINE",
"536 333 LINE",
"536 89 LINE",
"469 48 OFFCURVE",
"458 41 OFFCURVE",
"375 26 CURVE",
"234 26 OFFCURVE",
"104 141 OFFCURVE",
"104 374 CURVE SMOOTH",
"104 615 OFFCURVE",
"234 719 OFFCURVE",
"361 724 CURVE",
"409 720 OFFCURVE",
"499 696 OFFCURVE",
"558 672 CURVE",
"571 713 LINE",
"504 741 OFFCURVE",
"421 764 OFFCURVE",
"367 764 CURVE SMOOTH",
"180 764 OFFCURVE",
"60 601 OFFCURVE",
"60 374 CURVE SMOOTH",
"60 137 OFFCURVE",
"187 -14 OFFCURVE",
"367 -14 CURVE",
"423 -14 OFFCURVE",
"497 10 OFFCURVE",
"555 62 CURVE",
"576 124 LINE",
"576 365 LINE",
"407 365 LINE"
);
}
);
};
guideLines = (
{
angle = 71.6915;
position = "{669, 406}";
}
);
layerId = "FA803571-32C9-4FEE-972F-1FEF49B82217";
paths = (
{
closed = 1;
nodes = (
"409 -14 OFFCURVE",
"497 10 OFFCURVE",
"555 62 CURVE",
"576 124 LINE",
"576 365 LINE",
"407 365 LINE",
"395 329 LINE",
"536 333 LINE",
"536 89 LINE",
"458 41 OFFCURVE",
"454 40 OFFCURVE",
"370 27 CURVE",
"129 27 OFFCURVE",
"104 202 OFFCURVE",
"104 422 CURVE SMOOTH",
"104 603 OFFCURVE",
"196 724 OFFCURVE",
"354 724 CURVE",
"402 719 OFFCURVE",
"495 696 OFFCURVE",
"554 672 CURVE",
"567 713 LINE",
"490 745 OFFCURVE",
"418 764 OFFCURVE",
"360 764 CURVE SMOOTH",
"150 764 OFFCURVE",
"60 592 OFFCURVE",
"60 372 CURVE SMOOTH",
"60 129 OFFCURVE",
"167 -13 OFFCURVE",
"353 -14 CURVE SMOOTH"
);
}
);
width = 636;
},
{
layerId = "494556E7-144A-4E25-B9FC-0C21051BD184";
paths = (
{
closed = 1;
nodes = (
"452 -14 OFFCURVE",
"560 2 OFFCURVE",
"626 47 CURVE",
"651 121 LINE",
"651 424 LINE",
"423 424 LINE",
"375 279 LINE",
"471 287 LINE",
"471 175 LINE",
"456 163 OFFCURVE",
"394 160 OFFCURVE",
"365 163 CURVE",
"310 187 OFFCURVE",
"246 244 OFFCURVE",
"246 371 CURVE SMOOTH",
"246 493 OFFCURVE",
"287 557 OFFCURVE",
"370 596 CURVE",
"452 580 OFFCURVE",
"546 558 OFFCURVE",
"609 528 CURVE",
"663 691 LINE",
"568 750 OFFCURVE",
"470 765 OFFCURVE",
"390 765 CURVE SMOOTH",
"157 765 OFFCURVE",
"25 633 OFFCURVE",
"25 376 CURVE SMOOTH",
"25 157 OFFCURVE",
"147 -14 OFFCURVE",
"381 -14 CURVE SMOOTH"
);
}
);
width = 697;
}
);
leftKerningGroup = O;
leftMetricsKey = O;
note = G;
unicode = 0047;
},
{
color = 1;
glyphname = H;
lastChange = "2023-10-03 14:31:53 +0000";
layers = (
{
background = {
paths = (
{
closed = 1;
nodes = (
"80 750 LINE",
"80 0 LINE",
"170 0 LINE",
"170 750 LINE"
);
},
{
closed = 1;
nodes = (
"525 750 LINE",
"525 0 LINE",
"615 0 LINE",
"615 750 LINE"
);
},
{
closed = 1;
nodes = (
"161 437 LINE",
"161 357 LINE",
"533 357 LINE",
"533 437 LINE"
);
}
);
};
layerId = master01;
paths = (
{
closed = 1;
nodes = (
"625 0 LINE {\"Letterink-NibData\" = {ValidForParentWidth = 21;};}",
"625 750 LINE {\"Letterink-NibData\" = {ValidForParentWidth = 21;};}",
"535 750 LINE {\"Letterink-NibData\" = {ValidForParentWidth = 21;};}",
"535 0 LINE {\"Letterink-NibData\" = {ValidForParentWidth = 21;};}"
);
},
{
closed = 1;
nodes = (
"180 0 LINE {\"Letterink-NibData\" = {ValidForParentWidth = 21;};}",
"180 750 LINE {\"Letterink-NibData\" = {ValidForParentWidth = 21;};}",
"90 750 LINE {\"Letterink-NibData\" = {ValidForParentWidth = 21;};}",
"90 0 LINE {\"Letterink-NibData\" = {ValidForParentWidth = 21;};}"
);
},
{
closed = 1;
nodes = (
"543 357 LINE {\"Letterink-NibData\" = {ValidForParentWidth = 21;};}",
"543 437 LINE {\"Letterink-NibData\" = {ValidForParentWidth = 21;};}",
"171 437 LINE {\"Letterink-NibData\" = {ValidForParentWidth = 21;};}",
"171 357 LINE {\"Letterink-NibData\" = {ValidForParentWidth = 21;};}"
);
}
);
width = 715;
},
{
layerId = "FA803571-32C9-4FEE-972F-1FEF49B82217";
paths = (
{
closed = 1;
nodes = (
"565 0 LINE",
"565 750 LINE",
"525 750 LINE",
"525 0 LINE"
);
},
{
closed = 1;
nodes = (
"150 0 LINE",
"150 750 LINE",
"110 750 LINE",
"110 0 LINE"
);
},
{
closed = 1;
nodes = (
"533 373 LINE",
"533 407 LINE",
"141 407 LINE",
"141 373 LINE"
);
}
);
width = 675;
},
{
layerId = "494556E7-144A-4E25-B9FC-0C21051BD184";
paths = (
{
closed = 1;
nodes = (
"700 0 LINE",
"700 750 LINE",
"490 750 LINE",
"490 0 LINE"
);
},
{
closed = 1;
nodes = (
"290 0 LINE",
"290 750 LINE",
"80 750 LINE",
"80 0 LINE"
);
},
{
closed = 1;
nodes = (
"573 297 LINE",
"573 437 LINE",
"201 437 LINE",
"201 297 LINE"
);
}
);
width = 780;
}
);
note = H;
unicode = 0048;
},
{
color = 1;
glyphname = I;
lastChange = "2023-10-03 14:31:53 +0000";
layers = (
{
anchors = (
{
name = "#top";
position = "{145, 740}";
}
);
layerId = master01;
paths = (
{
closed = 1;
nodes = (
"190 0 LINE {\"Letterink-NibData\" = {ValidForParentWidth = 21;};}",
"190 750 LINE {\"Letterink-NibData\" = {ValidForParentWidth = 21;};}",
"100 750 LINE {\"Letterink-NibData\" = {ValidForParentWidth = 21;};}",
"100 0 LINE {\"Letterink-NibData\" = {ValidForParentWidth = 21;};}"
);
}
);
width = 290;
},
{
anchors = (
{
name = "#top";
position = "{130, 740}";
}
);
layerId = "FA803571-32C9-4FEE-972F-1FEF49B82217";
paths = (
{
closed = 1;
nodes = (
"150 0 LINE",
"150 750 LINE",
"110 750 LINE",
"110 0 LINE"
);
}
);
width = 260;
},
{
anchors = (
{
name = "#top";
position = "{195, 740}";
}
);
layerId = "494556E7-144A-4E25-B9FC-0C21051BD184";
paths = (
{
closed = 1;
nodes = (
"300 0 LINE",
"300 750 LINE",
"90 750 LINE",
"90 0 LINE"
);
}
);
width = 390;
}
);
note = I;
unicode = 0049;
},
{
color = 1;
glyphname = J;
lastChange = "2023-10-03 14:31:53 +0000";
layers = (
{
anchors = (
{
name = "#top";
position = "{328, 740}";
}
);
layerId = master01;
paths = (
{
closed = 1;
nodes = (
"328 -14 OFFCURVE",
"373 79 OFFCURVE",
"373 194 CURVE SMOOTH {\"Letterink-NibData\" = {ValidForParentWidth = 21;};}",
"373 749 LINE {\"Letterink-NibData\" = {ValidForParentWidth = 21;};}",
"283 749 LINE {\"Letterink-NibData\" = {ValidForParentWidth = 21;};}",
"283 233 LINE SMOOTH {\"Letterink-NibData\" = {ValidForParentWidth = 21;};}",
"283 188 OFFCURVE",
"276 90 OFFCURVE",
"246 60 CURVE {\"Letterink-NibData\" = {ValidForParentWidth = 21;};}",
"194 63 OFFCURVE",
"100 94 OFFCURVE",
"52 117 CURVE {\"Letterink-NibData\" = {ValidForParentWidth = 21;};}",
"24 35 LINE {\"Letterink-NibData\" = {ValidForParentWidth = 21;};}",
"91 7 OFFCURVE",
"166 -14 OFFCURVE",
"242 -14 CURVE SMOOTH {\"Letterink-NibData\" = {ValidForParentWidth = 21;};}"
);
}
);
width = 463;
},
{
anchors = (
{
name = "#top";
position = "{319, 740}";
}
);
background = {
paths = (
{
closed = 1;
nodes = (
"299 749 LINE",
"299 223 LINE SMOOTH",
"299 78 OFFCURVE",
"283 49 OFFCURVE",
"248 19 CURVE",
"198 19 OFFCURVE",
"102 40 OFFCURVE",
"52 64 CURVE",
"40 29 LINE",
"103 2 OFFCURVE",
"162 -14 OFFCURVE",
"244 -14 CURVE SMOOTH",
"300 -14 OFFCURVE",
"339 79 OFFCURVE",
"339 184 CURVE SMOOTH",
"339 749 LINE"
);
}
);
};
guideLines = (
{
angle = 71.6915;
position = "{165, 406}";
}
);
layerId = "FA803571-32C9-4FEE-972F-1FEF49B82217";
paths = (
{
closed = 1;
nodes = (
"308 -14 OFFCURVE",
"339 53 OFFCURVE",
"339 204 CURVE SMOOTH",
"339 750 LINE",
"299 750 LINE",
"299 223 LINE SMOOTH",
"299 78 OFFCURVE",
"283 49 OFFCURVE",
"248 19 CURVE",
"198 19 OFFCURVE",
"102 40 OFFCURVE",
"52 64 CURVE",
"40 29 LINE",
"114 1 OFFCURVE",
"171 -14 OFFCURVE",
"215 -14 CURVE SMOOTH"
);
}
);
width = 444;
},
{
anchors = (
{
name = "#top";
position = "{318, 740}";
}
);
layerId = "494556E7-144A-4E25-B9FC-0C21051BD184";
paths = (
{
closed = 1;
nodes = (
"409 -14 OFFCURVE",
"423 118 OFFCURVE",
"423 290 CURVE",
"423 750 LINE",
"213 750 LINE",
"213 299 LINE SMOOTH",
"213 260 OFFCURVE",
"213 190 OFFCURVE",
"198 144 CURVE",
"150 153 OFFCURVE",
"99 170 OFFCURVE",
"57 190 CURVE",
"10 48 LINE",
"94 11 OFFCURVE",
"153 -14 OFFCURVE",
"253 -14 CURVE SMOOTH"
);
}
);
width = 488;
}
);
note = J;
unicode = 004A;
},
{
color = 1;
glyphname = K;
lastChange = "2023-10-03 14:31:53 +0000";
layers = (
{
guideLines = (
{
angle = 161.6915;
position = "{601, 699}";
}
);
layerId = master01;
paths = (
{
closed = 1;
nodes = (
"536 721 LINE {\"Letterink-NibData\" = {ValidForParentWidth = 21;};}",
"448 750 LINE {\"Letterink-NibData\" = {ValidForParentWidth = 21;};}",
"146 360 LINE {\"Letterink-NibData\" = {ValidForParentWidth = 21;};}",
"161 266 LINE {\"Letterink-NibData\" = {ValidForParentWidth = 21;};}"
);
},
{
closed = 1;
nodes = (
"180 0 LINE {\"Letterink-NibData\" = {ValidForParentWidth = 21;};}",
"180 750 LINE {\"Letterink-NibData\" = {ValidForParentWidth = 21;};}",
"90 750 LINE {\"Letterink-NibData\" = {ValidForParentWidth = 21;};}",
"90 0 LINE {\"Letterink-NibData\" = {ValidForParentWidth = 21;};}"
);
},
{
closed = 1;
nodes = (
"568 0 LINE {\"Letterink-NibData\" = {ValidForParentWidth = 21;};}",
"317 488 LINE {\"Letterink-NibData\" = {ValidForParentWidth = 21;};}",
"258 410 LINE {\"Letterink-NibData\" = {ValidForParentWidth = 21;};}",
"458 0 LINE {\"Letterink-NibData\" = {ValidForParentWidth = 21;};}"
);
}
);
width = 608;
},
{
background = {
guideLines = (
{
angle = 341.5651;
position = "{477, 736}";
}
);
paths = (
{
closed = 1;
nodes = (
"130 360 LINE",
"145 266 LINE",
"520 721 LINE",
"433 750 LINE"
);
},
{
closed = 1;
nodes = (
"74 750 LINE",
"74 0 LINE",
"164 0 LINE",
"164 750 LINE"
);
},
{
closed = 1;
nodes = (
"301 488 LINE",
"242 410 LINE",
"442 0 LINE",
"552 0 LINE"
);
}
);
};
layerId = "FA803571-32C9-4FEE-972F-1FEF49B82217";
paths = (
{
closed = 1;
nodes = (
"472 738 LINE",
"437 750 LINE",
"130 329 LINE",
"133 280 LINE"
);
},
{
closed = 1;
nodes = (
"150 0 LINE",
"150 750 LINE",
"110 750 LINE",
"110 0 LINE"
);
},
{
closed = 1;
nodes = (
"499 0 LINE",
"247 489 LINE",
"225 455 LINE",
"456 0 LINE"
);
}
);
width = 554;
},
{
layerId = "494556E7-144A-4E25-B9FC-0C21051BD184";
paths = (
{
closed = 1;
nodes = (
"680 695 LINE",
"499 750 LINE",
"196 360 LINE",
"228 158 LINE"
);
},
{
closed = 1;
nodes = (
"280 0 LINE",
"280 750 LINE",
"80 750 LINE",
"80 0 LINE"
);
},
{
closed = 1;
nodes = (
"696 0 LINE",
"441 492 LINE",
"281 412 LINE",
"472 0 LINE"
);
}
);
width = 696;
}
);
leftMetricsKey = H;
note = K;
unicode = 004B;
},
{
color = 1;
glyphname = L;
lastChange = "2023-10-03 14:31:53 +0000";
layers = (
{
guideLines = (
{
angle = 71.6915;
position = "{587, 406}";
}
);
layerId = master01;
paths = (
{
closed = 1;
nodes = (
"180 0 LINE {\"Letterink-NibData\" = {ValidForParentWidth = 21;};}",
"180 750 LINE {\"Letterink-NibData\" = {ValidForParentWidth = 21;};}",
"90 750 LINE {\"Letterink-NibData\" = {ValidForParentWidth = 21;};}",
"90 0 LINE {\"Letterink-NibData\" = {ValidForParentWidth = 21;};}"
);
},
{
closed = 1;
nodes = (
"452 0 LINE {\"Letterink-NibData\" = {ValidForParentWidth = 21;};}",
"481 87 LINE {\"Letterink-NibData\" = {ValidForParentWidth = 21;};}",
"171 78 LINE {\"Letterink-NibData\" = {ValidForParentWidth = 21;};}",
"171 0 LINE {\"Letterink-NibData\" = {ValidForParentWidth = 21;};}"
);
}
);
width = 501;
},
{
guideLines = (
{
angle = 71.6915;
position = "{585, 406}";
}
);
layerId = "FA803571-32C9-4FEE-972F-1FEF49B82217";
paths = (
{
closed = 1;
nodes = (
"150 0 LINE",
"150 750 LINE",
"110 750 LINE",
"110 0 LINE"
);
},
{
closed = 1;
nodes = (
"451 0 LINE",
"463 38 LINE",
"141 32 LINE",
"141 0 LINE"
);
}
);
width = 508;
},
{
layerId = "494556E7-144A-4E25-B9FC-0C21051BD184";
paths = (
{
closed = 1;
nodes = (
"290 0 LINE",
"290 750 LINE",
"80 750 LINE",
"80 0 LINE"
);
},
{
closed = 1;
nodes = (
"493 -1 LINE",
"543 149 LINE",
"171 139 LINE",
"171 -1 LINE"
);
}
);
width = 568;
}
);
leftMetricsKey = H;
note = L;
unicode = 004C;
},
{
color = 1;
glyphname = M;
lastChange = "2023-10-03 14:31:53 +0000";
layers = (
{
background = {
paths = (
{
closed = 1;
nodes = (
"388 100 LINE",
"464 100 LINE",
"636 675 LINE",
"599 750 LINE",
"413 167 LINE",
"460 167 LINE",
"253 750 LINE",
"205 678 LINE"
);
},
{
closed = 1;
nodes = (
"136 0 LINE",
"231 679 LINE",
"253 750 LINE",
"163 750 LINE",
"50 0 LINE"
);
},
{
closed = 1;
nodes = (
"802 0 LINE",
"689 750 LINE",
"599 750 LINE",
"617 676 LINE",
"705 0 LINE"
);
}
);
};
layerId = master01;
paths = (
{
closed = 1;
nodes = (
"141 0 LINE {\"Letterink-NibData\" = {ValidForParentWidth = 21;};}",
"234 666 LINE {\"Letterink-NibData\" = {ValidForParentWidth = 21;};}",
"214 664 LINE {\"Letterink-NibData\" = {ValidForParentWidth = 21;};}",
"393 100 LINE {\"Letterink-NibData\" = {ValidForParentWidth = 21;};}",
"469 100 LINE {\"Letterink-NibData\" = {ValidForParentWidth = 21;};}",
"641 674 LINE {\"Letterink-NibData\" = {ValidForParentWidth = 21;};}",
"622 676 LINE {\"Letterink-NibData\" = {ValidForParentWidth = 21;};}",
"710 0 LINE {\"Letterink-NibData\" = {ValidForParentWidth = 21;};}",
"807 0 LINE {\"Letterink-NibData\" = {ValidForParentWidth = 21;};}",
"694 750 LINE {\"Letterink-NibData\" = {ValidForParentWidth = 21;};}",
"604 750 LINE {\"Letterink-NibData\" = {ValidForParentWidth = 21;};}",
"426 194 LINE {\"Letterink-NibData\" = {ValidForParentWidth = 21;};}",
"455 195 LINE {\"Letterink-NibData\" = {ValidForParentWidth = 21;};}",
"258 750 LINE {\"Letterink-NibData\" = {ValidForParentWidth = 21;};}",
"168 750 LINE {\"Letterink-NibData\" = {ValidForParentWidth = 21;};}",
"55 0 LINE {\"Letterink-NibData\" = {ValidForParentWidth = 21;};}"
);
}
);
width = 852;
},
{
background = {
paths = (
{
closed = 1;
nodes = (
"388 100 LINE",
"433 100 LINE",
"624 750 LINE",
"595 750 LINE",
"407 136 LINE",
"417 136 LINE",
"215 750 LINE",
"179 750 LINE"
);
},
{
closed = 1;
nodes = (
"96 0 LINE",
"200 720 LINE",
"214 750 LINE",
"170 750 LINE",
"60 0 LINE"
);
},
{
closed = 1;
nodes = (
"763 0 LINE",
"640 750 LINE",
"593 750 LINE",
"609 708 LINE",
"722 0 LINE"
);
}
);
};
layerId = "FA803571-32C9-4FEE-972F-1FEF49B82217";
paths = (
{
closed = 1;
nodes = (
"96 0 LINE",
"202 742 LINE",
"182 740 LINE",
"388 100 LINE",
"433 100 LINE",
"623 746 LINE",
"603 747 LINE",
"722 0 LINE",
"763 0 LINE",
"640 750 LINE",
"595 750 LINE",
"399 109 LINE",
"426 109 LINE",
"215 750 LINE",
"170 750 LINE",
"60 0 LINE"
);
}
);
width = 818;
},
{
layerId = "494556E7-144A-4E25-B9FC-0C21051BD184";
paths = (
{
closed = 1;
nodes = (
"237 0 LINE",
"291 478 LINE",
"281 478 LINE",
"383 100 LINE",
"523 100 LINE",
"616 484 LINE",
"606 484 LINE",
"669 0 LINE",
"889 0 LINE",
"745 750 LINE",
"549 750 LINE",
"456 358 LINE",
"466 358 LINE",
"367 750 LINE",
"171 750 LINE",
"27 0 LINE"
);
}
);
width = 924;
}
);
note = M;
unicode = 004D;
},
{
color = 1;
glyphname = N;
lastChange = "2023-10-03 14:31:53 +0000";
layers = (
{
anchors = (
{
name = "#top";
position = "{355, 740}";
}
);
background = {
paths = (
{
closed = 1;
nodes = (
"510 0 LINE",
"566 84 LINE",
"170 750 LINE",
"98 692 LINE"
);
},
{
closed = 1;
nodes = (
"170 0 LINE",
"170 750 LINE",
"80 750 LINE",
"80 0 LINE"
);
},
{
closed = 1;
nodes = (
"600 0 LINE",
"600 750 LINE",
"510 750 LINE",
"510 0 LINE"
);
}
);
};
layerId = master01;
paths = (
{
closed = 1;
nodes = (
"180 0 LINE {\"Letterink-NibData\" = {ValidForParentWidth = 21;};}",
"180 616 LINE {\"Letterink-NibData\" = {ValidForParentWidth = 21;};}",
"160 610 LINE {\"Letterink-NibData\" = {ValidForParentWidth = 21;};}",
"520 0 LINE {\"Letterink-NibData\" = {ValidForParentWidth = 21;};}",
"610 0 LINE {\"Letterink-NibData\" = {ValidForParentWidth = 21;};}",
"610 750 LINE {\"Letterink-NibData\" = {ValidForParentWidth = 21;};}",
"520 750 LINE {\"Letterink-NibData\" = {ValidForParentWidth = 21;};}",
"520 133 LINE {\"Letterink-NibData\" = {ValidForParentWidth = 21;};}",
"540 139 LINE {\"Letterink-NibData\" = {ValidForParentWidth = 21;};}",
"180 750 LINE {\"Letterink-NibData\" = {ValidForParentWidth = 21;};}",
"90 750 LINE {\"Letterink-NibData\" = {ValidForParentWidth = 21;};}",
"90 0 LINE {\"Letterink-NibData\" = {ValidForParentWidth = 21;};}"
);
}
);
width = 700;
},
{
anchors = (
{
name = "#top";
position = "{350, 740}";
}
);
background = {
paths = (
{
closed = 1;
nodes = (
"551 0 LINE",
"567 51 LINE",
"150 750 LINE",
"134 700 LINE"
);
},
{
closed = 1;
nodes = (
"150 0 LINE",
"150 750 LINE",
"110 750 LINE",
"110 0 LINE"
);
},
{
closed = 1;
nodes = (
"591 0 LINE",
"591 750 LINE",
"551 750 LINE",
"551 0 LINE"
);
}
);
};
layerId = "FA803571-32C9-4FEE-972F-1FEF49B82217";
paths = (
{
closed = 1;
nodes = (
"150 0 LINE",
"150 718 LINE",
"127 712 LINE",
"551 0 LINE",
"591 0 LINE",
"591 750 LINE",
"551 750 LINE",
"551 33 LINE",
"574 39 LINE",
"150 750 LINE",
"110 750 LINE",
"110 0 LINE"
);
}
);
width = 701;
},
{
anchors = (
{
name = "#top";
position = "{385, 740}";
}
);
layerId = "494556E7-144A-4E25-B9FC-0C21051BD184";
paths = (
{
closed = 1;
nodes = (
"290 0 LINE",
"275 449 LINE",
"270 444 LINE",
"500 0 LINE",
"700 0 LINE",
"700 750 LINE",
"490 750 LINE",
"505 277 LINE",
"510 282 LINE",
"280 750 LINE",
"80 750 LINE",
"80 0 LINE"
);
}
);
width = 780;
}
);
leftMetricsKey = H;
note = N;
rightMetricsKey = H;
unicode = 004E;
},
{
color = 5;
glyphname = O;
lastChange = "2023-10-03 14:31:53 +0000";
layers = (
{
anchors = (
{
name = "#top";
position = "{356, 740}";
}
);
background = {
paths = (
{
closed = 1;
nodes = (
"570 -14 OFFCURVE",
"670 135 OFFCURVE",
"667 374 CURVE SMOOTH",
"664 604 OFFCURVE",
"559 764 OFFCURVE",
"359 764 CURVE SMOOTH",
"139 764 OFFCURVE",
"43 615 OFFCURVE",
"43 374 CURVE SMOOTH",
"43 146 OFFCURVE",
"150 -14 OFFCURVE",
"350 -14 CURVE SMOOTH"
);
},
{
closed = 1;
nodes = (
"133 599 OFFCURVE",
"216 688 OFFCURVE",
"330 688 CURVE SMOOTH",
"490 688 OFFCURVE",
"577 584 OFFCURVE",
"577 314 CURVE SMOOTH",
"577 151 OFFCURVE",
"494 62 OFFCURVE",
"379 62 CURVE SMOOTH",
"219 62 OFFCURVE",
"133 164 OFFCURVE",
"133 434 CURVE SMOOTH"
);
}
);
};
guideLines = (
{
position = "{361, 769}";
}
);
layerId = master01;
paths = (
{
closed = 1;
nodes = (
"556 -14 OFFCURVE",
"666 136 OFFCURVE",
"664 375 CURVE SMOOTH {\"Letterink-NibData\" = {ValidForParentWidth = 21;};}",
"662 612 OFFCURVE",
"564 764 OFFCURVE",
"357 764 CURVE SMOOTH {\"Letterink-NibData\" = {ValidForParentWidth = 21;};}",
"153 764 OFFCURVE",
"45 613 OFFCURVE",
"45 375 CURVE SMOOTH {\"Letterink-NibData\" = {ValidForParentWidth = 21;};}",
"45 137 OFFCURVE",
"146 -14 OFFCURVE",
"350 -14 CURVE SMOOTH {\"Letterink-NibData\" = {ValidForParentWidth = 21;};}"
);
},
{
closed = 1;
nodes = (
"186 61 OFFCURVE",
"135 228 OFFCURVE",
"135 447 CURVE SMOOTH {\"Letterink-NibData\" = {ValidForParentWidth = 21;};}",
"135 579 OFFCURVE",
"182 688 OFFCURVE",
"328 688 CURVE SMOOTH {\"Letterink-NibData\" = {ValidForParentWidth = 21;};}",
"522 688 OFFCURVE",
"574 523 OFFCURVE",
"574 303 CURVE SMOOTH {\"Letterink-NibData\" = {ValidForParentWidth = 21;};}",
"574 171 OFFCURVE",
"526 61 OFFCURVE",
"383 61 CURVE SMOOTH {\"Letterink-NibData\" = {ValidForParentWidth = 21;};}"
);
}
);
width = 709;
},
{
anchors = (
{
name = "#top";
position = "{356, 740}";
}
);
background = {
paths = (
{
closed = 1;
nodes = (
"578 -14 OFFCURVE",
"663 167 OFFCURVE",
"663 364 CURVE SMOOTH",
"663 583 OFFCURVE",
"553 764 OFFCURVE",
"338 764 CURVE SMOOTH",
"118 764 OFFCURVE",
"33 583 OFFCURVE",
"33 386 CURVE SMOOTH",
"33 167 OFFCURVE",
"143 -14 OFFCURVE",
"358 -14 CURVE SMOOTH"
);
},
{
closed = 1;
nodes = (
"183 26 OFFCURVE",
"77 167 OFFCURVE",
"77 384 CURVE SMOOTH",
"77 688 OFFCURVE",
"235 724 OFFCURVE",
"353 724 CURVE SMOOTH",
"513 724 OFFCURVE",
"619 583 OFFCURVE",
"619 366 CURVE SMOOTH",
"619 62 OFFCURVE",
"461 26 OFFCURVE",
"343 26 CURVE SMOOTH"
);
}
);
};
layerId = "FA803571-32C9-4FEE-972F-1FEF49B82217";
paths = (
{
closed = 1;
nodes = (
"561 -13 OFFCURVE",
"651 157 OFFCURVE",
"651 377 CURVE SMOOTH",
"651 567 OFFCURVE",
"580 764 OFFCURVE",
"360 764 CURVE SMOOTH",
"150 764 OFFCURVE",
"60 592 OFFCURVE",
"60 372 CURVE SMOOTH",
"60 182 OFFCURVE",
"131 -13 OFFCURVE",
"351 -13 CURVE SMOOTH"
);
},
{
closed = 1;
nodes = (
"129 27 OFFCURVE",
"104 202 OFFCURVE",
"104 422 CURVE SMOOTH",
"104 597 OFFCURVE",
"196 724 OFFCURVE",
"342 724 CURVE SMOOTH",
"582 724 OFFCURVE",
"607 547 OFFCURVE",
"607 327 CURVE SMOOTH",
"607 152 OFFCURVE",
"515 27 OFFCURVE",
"369 27 CURVE SMOOTH"
);
}
);
width = 711;
},
{
anchors = (
{
name = "#top";
position = "{380, 740}";
}
);
layerId = "494556E7-144A-4E25-B9FC-0C21051BD184";
paths = (
{
closed = 1;
nodes = (
"634 -14 OFFCURVE",
"735 153 OFFCURVE",
"735 365 CURVE SMOOTH",
"735 584 OFFCURVE",
"619 764 OFFCURVE",
"379 764 CURVE SMOOTH",
"125 764 OFFCURVE",
"25 596 OFFCURVE",
"25 384 CURVE SMOOTH",
"25 165 OFFCURVE",
"140 -14 OFFCURVE",
"380 -14 CURVE SMOOTH"
);
},
{
closed = 1;
nodes = (
"284 146 OFFCURVE",
"245 267 OFFCURVE",
"245 421 CURVE SMOOTH",
"245 530 OFFCURVE",
"267 604 OFFCURVE",
"363 604 CURVE SMOOTH",
"477 604 OFFCURVE",
"515 482 OFFCURVE",
"515 327 CURVE SMOOTH",
"515 216 OFFCURVE",
"491 146 OFFCURVE",
"398 146 CURVE SMOOTH"
);
}
);
width = 760;
}
);
note = O;
unicode = 004F;
},
{
color = 5;
glyphname = P;
lastChange = "2023-10-03 14:31:53 +0000";
layers = (
{
background = {
paths = (
{
closed = 1;
nodes = (
"90 0 LINE",
"180 0 LINE",
"180 750 LINE",
"90 750 LINE"
);
},
{
closed = 1;
nodes = (
"529 669 OFFCURVE",
"417 764 OFFCURVE",
"245 764 CURVE SMOOTH",
"160 764 OFFCURVE",
"108 753 OFFCURVE",
"90 750 CURVE",
"135 671 LINE",
"168 680 OFFCURVE",
"201 685 OFFCURVE",
"232 685 CURVE SMOOTH",
"346 685 OFFCURVE",
"439 622 OFFCURVE",
"439 502 CURVE SMOOTH",
"439 422 OFFCURVE",
"420 376 OFFCURVE",
"381 335 CURVE",
"356 325 OFFCURVE",
"322 324 OFFCURVE",
"289 324 CURVE SMOOTH",
"238 324 OFFCURVE",
"185 338 OFFCURVE",
"152 360 CURVE",
"152 277 LINE",
"192 259 OFFCURVE",
"243 249 OFFCURVE",
"294 249 CURVE SMOOTH",
"442 249 OFFCURVE",
"529 384 OFFCURVE",
"529 513 CURVE SMOOTH"
);
}
);
};
layerId = master01;
paths = (
{
closed = 1;
nodes = (
"442 249 OFFCURVE",
"529 374 OFFCURVE",
"529 513 CURVE SMOOTH {\"Letterink-NibData\" = {ValidForParentWidth = 21;};}",
"529 674 OFFCURVE",
"417 764 OFFCURVE",
"245 764 CURVE SMOOTH {\"Letterink-NibData\" = {ValidForParentWidth = 21;};}",
"160 764 OFFCURVE",
"108 753 OFFCURVE",
"90 750 CURVE {\"Letterink-NibData\" = {ValidForParentWidth = 21;};}",
"135 671 LINE {\"Letterink-NibData\" = {ValidForParentWidth = 21;};}",
"168 680 OFFCURVE",
"201 685 OFFCURVE",
"232 685 CURVE SMOOTH {\"Letterink-NibData\" = {ValidForParentWidth = 21;};}",
"346 685 OFFCURVE",
"439 627 OFFCURVE",
"439 502 CURVE SMOOTH {\"Letterink-NibData\" = {ValidForParentWidth = 21;};}",
"439 412 OFFCURVE",
"420 376 OFFCURVE",
"381 335 CURVE {\"Letterink-NibData\" = {ValidForParentWidth = 21;};}",
"356 325 OFFCURVE",
"322 324 OFFCURVE",
"289 324 CURVE SMOOTH {\"Letterink-NibData\" = {ValidForParentWidth = 21;};}",
"238 324 OFFCURVE",
"185 338 OFFCURVE",
"152 360 CURVE {\"Letterink-NibData\" = {ValidForParentWidth = 21;};}",
"152 277 LINE {\"Letterink-NibData\" = {ValidForParentWidth = 21;};}",
"192 259 OFFCURVE",
"243 249 OFFCURVE",
"294 249 CURVE SMOOTH {\"Letterink-NibData\" = {ValidForParentWidth = 21;};}"
);
},
{
closed = 1;
nodes = (
"180 0 LINE {\"Letterink-NibData\" = {ValidForParentWidth = 21;};}",
"180 750 LINE {\"Letterink-NibData\" = {ValidForParentWidth = 21;};}",
"90 750 LINE {\"Letterink-NibData\" = {ValidForParentWidth = 21;};}",
"90 0 LINE {\"Letterink-NibData\" = {ValidForParentWidth = 21;};}"
);
}
);
width = 574;
},
{
background = {
paths = (
{
closed = 1;
nodes = (
"413 274 OFFCURVE",
"508 356 OFFCURVE",
"508 532 CURVE SMOOTH",
"508 670 OFFCURVE",
"416 764 OFFCURVE",
"246 764 CURVE SMOOTH",
"210 764 OFFCURVE",
"156 761 OFFCURVE",
"110 749 CURVE",
"125 710 LINE",
"167 722 OFFCURVE",
"214 724 OFFCURVE",
"246 724 CURVE SMOOTH",
"395 724 OFFCURVE",
"468 647 OFFCURVE",
"468 532 CURVE SMOOTH",
"468 445 OFFCURVE",
"450 403 OFFCURVE",
"403 354 CURVE",
"359 328 OFFCURVE",
"309 314 OFFCURVE",
"258 314 CURVE SMOOTH",
"221 314 OFFCURVE",
"184 321 OFFCURVE",
"147 336 CURVE",
"133 298 LINE",
"174 282 OFFCURVE",
"216 274 OFFCURVE",
"258 274 CURVE SMOOTH"
);
},
{
closed = 1;
nodes = (
"150 0 LINE",
"150 749 LINE",
"110 749 LINE",
"110 0 LINE"
);
}
);
};
layerId = "FA803571-32C9-4FEE-972F-1FEF49B82217";
paths = (
{
closed = 1;
nodes = (
"413 274 OFFCURVE",
"508 356 OFFCURVE",
"508 532 CURVE SMOOTH",
"508 670 OFFCURVE",
"416 764 OFFCURVE",
"246 764 CURVE SMOOTH",
"210 764 OFFCURVE",
"156 762 OFFCURVE",
"110 750 CURVE",
"125 710 LINE",
"167 722 OFFCURVE",
"214 724 OFFCURVE",
"246 724 CURVE SMOOTH",
"395 724 OFFCURVE",
"468 647 OFFCURVE",
"468 532 CURVE SMOOTH",
"468 445 OFFCURVE",
"450 393 OFFCURVE",
"403 344 CURVE",
"359 318 OFFCURVE",
"309 314 OFFCURVE",
"258 314 CURVE SMOOTH",
"221 314 OFFCURVE",
"184 321 OFFCURVE",
"147 336 CURVE",
"133 298 LINE",
"174 282 OFFCURVE",
"216 274 OFFCURVE",
"258 274 CURVE SMOOTH"
);
},
{
closed = 1;
nodes = (
"150 0 LINE",
"150 750 LINE",
"110 750 LINE",
"110 0 LINE"
);
}
);
width = 562;
},
{
layerId = "494556E7-144A-4E25-B9FC-0C21051BD184";
paths = (
{
closed = 1;
nodes = (
"501 193 OFFCURVE",
"624 293 OFFCURVE",
"624 473 CURVE SMOOTH",
"624 707 OFFCURVE",
"446 764 OFFCURVE",
"278 764 CURVE SMOOTH",
"172 764 OFFCURVE",
"118 756 OFFCURVE",
"90 750 CURVE",
"210 608 LINE",
"237 609 OFFCURVE",
"281 612 OFFCURVE",
"303 612 CURVE SMOOTH",
"380 612 OFFCURVE",
"424 559 OFFCURVE",
"424 463 CURVE SMOOTH",
"424 411 OFFCURVE",
"418 372 OFFCURVE",
"393 339 CURVE",
"366 324 OFFCURVE",
"341 319 OFFCURVE",
"301 319 CURVE SMOOTH",
"268 319 OFFCURVE",
"229 331 OFFCURVE",
"210 334 CURVE",
"210 203 LINE",
"237 197 OFFCURVE",
"314 193 OFFCURVE",
"369 193 CURVE SMOOTH"
);
},
{
closed = 1;
nodes = (
"290 0 LINE",
"290 750 LINE",
"80 750 LINE",
"80 0 LINE"
);
}
);
width = 649;
}
);
leftMetricsKey = H;
note = P;
unicode = 0050;
},
{
color = 1;
glyphname = Q;
lastChange = "2023-10-03 14:31:53 +0000";
layers = (
{
background = {
paths = (
{
closed = 1;
nodes = (
"692 -8 LINE",
"340 27 LINE",
"253 -6 LINE",
"672 -100 LINE"
);
},
{
closed = 1;
nodes = (
"557 -14 OFFCURVE",
"667 167 OFFCURVE",
"667 386 CURVE SMOOTH",
"667 598 OFFCURVE",
"591 764 OFFCURVE",
"357 764 CURVE SMOOTH",
"147 764 OFFCURVE",
"37 583 OFFCURVE",
"37 364 CURVE SMOOTH",
"37 152 OFFCURVE",
"113 -14 OFFCURVE",
"347 -14 CURVE SMOOTH"
);
},
{
closed = 1;
nodes = (
"170 62 OFFCURVE",
"127 207 OFFCURVE",
"127 406 CURVE SMOOTH",
"127 527 OFFCURVE",
"167 688 OFFCURVE",
"322 688 CURVE SMOOTH",
"534 688 OFFCURVE",
"577 543 OFFCURVE",
"577 344 CURVE SMOOTH",
"577 223 OFFCURVE",
"537 62 OFFCURVE",
"382 62 CURVE SMOOTH"
);
}
);
};
components = (
{
name = O;
}
);
guideLines = (
{
angle = 71.6915;
position = "{839, 406}";
}
);
layerId = master01;
paths = (
{
closed = 1;
nodes = (
"702 -8 LINE {\"Letterink-NibData\" = {ValidForParentWidth = 21;};}",
"350 27 LINE {\"Letterink-NibData\" = {ValidForParentWidth = 21;};}",
"283 -7 LINE {\"Letterink-NibData\" = {ValidForParentWidth = 21;};}",
"674 -90 LINE {\"Letterink-NibData\" = {ValidForParentWidth = 21;};}"
);
}
);
width = 722;
},
{
background = {
paths = (
{
closed = 1;
nodes = (
"672 -48 LINE",
"291 14 LINE",
"284 -8 LINE",
"664 -88 LINE"
);
},
{
closed = 1;
nodes = (
"565 -14 OFFCURVE",
"675 167 OFFCURVE",
"675 386 CURVE SMOOTH",
"675 583 OFFCURVE",
"590 764 OFFCURVE",
"370 764 CURVE SMOOTH",
"155 764 OFFCURVE",
"45 583 OFFCURVE",
"45 364 CURVE SMOOTH",
"45 167 OFFCURVE",
"130 -14 OFFCURVE",
"350 -14 CURVE SMOOTH"
);
},
{
closed = 1;
nodes = (
"237 18 OFFCURVE",
"85 62 OFFCURVE",
"85 366 CURVE SMOOTH",
"85 583 OFFCURVE",
"185 732 OFFCURVE",
"355 732 CURVE SMOOTH",
"483 732 OFFCURVE",
"635 688 OFFCURVE",
"635 384 CURVE SMOOTH",
"635 167 OFFCURVE",
"535 18 OFFCURVE",
"365 18 CURVE SMOOTH"
);
}
);
};
components = (
{
name = O;
}
);
guideLines = (
{
angle = 71.6915;
position = "{822, 406}";
}
);
layerId = "FA803571-32C9-4FEE-972F-1FEF49B82217";
paths = (
{
closed = 1;
nodes = (
"674 -38 LINE",
"291 24 LINE",
"315 -7 LINE",
"661 -77 LINE"
);
}
);
width = 751;
},
{
components = (
{
name = O;
}
);
layerId = "494556E7-144A-4E25-B9FC-0C21051BD184";
paths = (
{
closed = 1;
nodes = (
"740 65 LINE",
"432 93 LINE",
"308 -8 LINE",
"691 -82 LINE"
);
}
);
width = 770;
}
);
leftKerningGroup = O;
leftMetricsKey = O;
note = Q;
unicode = 0051;
},
{
color = 5;
glyphname = R;
lastChange = "2023-10-03 14:31:53 +0000";
layers = (
{
background = {
paths = (
{
closed = 1;
nodes = (
"180 750 LINE",
"90 750 LINE",
"90 0 LINE",
"180 0 LINE"
);
},
{
closed = 1;
nodes = (
"431 297 OFFCURVE",
"526 420 OFFCURVE",
"526 548 CURVE SMOOTH",
"526 658 OFFCURVE",
"437 764 OFFCURVE",
"257 764 CURVE SMOOTH",
"172 764 OFFCURVE",
"108 753 OFFCURVE",
"90 750 CURVE",
"135 673 LINE",
"185 684 OFFCURVE",
"198 685 OFFCURVE",
"243 685 CURVE SMOOTH",
"353 685 OFFCURVE",
"437 622 OFFCURVE",
"437 542 CURVE SMOOTH",
"437 467 OFFCURVE",
"406 428 OFFCURVE",
"375 396 CURVE",
"336 380 OFFCURVE",
"294 373 OFFCURVE",
"252 373 CURVE SMOOTH",
"210 373 OFFCURVE",
"187 380 OFFCURVE",
"152 394 CURVE",
"152 314 LINE",
"195 301 OFFCURVE",
"226 297 OFFCURVE",
"262 297 CURVE SMOOTH"
);
},
{
closed = 1;
nodes = (
"545 0 LINE",
"363 369 LINE",
"271 361 LINE",
"432 0 LINE"
);
}
);
};
layerId = master01;
paths = (
{
closed = 1;
nodes = (
"431 297 OFFCURVE",
"526 410 OFFCURVE",
"526 548 CURVE SMOOTH {\"Letterink-NibData\" = {ValidForParentWidth = 21;};}",
"526 668 OFFCURVE",
"437 764 OFFCURVE",
"257 764 CURVE SMOOTH {\"Letterink-NibData\" = {ValidForParentWidth = 21;};}",
"172 764 OFFCURVE",
"108 753 OFFCURVE",
"90 750 CURVE {\"Letterink-NibData\" = {ValidForParentWidth = 21;};}",
"135 673 LINE {\"Letterink-NibData\" = {ValidForParentWidth = 21;};}",
"185 684 OFFCURVE",
"198 685 OFFCURVE",
"243 685 CURVE SMOOTH {\"Letterink-NibData\" = {ValidForParentWidth = 21;};}",
"365 685 OFFCURVE",
"436 624 OFFCURVE",
"436 535 CURVE SMOOTH {\"Letterink-NibData\" = {ValidForParentWidth = 21;};}",
"436 470 OFFCURVE",
"418 431 OFFCURVE",
"378 387 CURVE {\"Letterink-NibData\" = {ValidForParentWidth = 21;};}",
"352 377 OFFCURVE",
"313 371 OFFCURVE",
"273 371 CURVE SMOOTH {\"Letterink-NibData\" = {ValidForParentWidth = 21;};}",
"228 371 OFFCURVE",
"181 379 OFFCURVE",
"152 394 CURVE {\"Letterink-NibData\" = {ValidForParentWidth = 21;};}",
"152 314 LINE {\"Letterink-NibData\" = {ValidForParentWidth = 21;};}",
"195 301 OFFCURVE",
"226 297 OFFCURVE",
"262 297 CURVE SMOOTH {\"Letterink-NibData\" = {ValidForParentWidth = 21;};}"
);
},
{
closed = 1;
nodes = (
"180 0 LINE {\"Letterink-NibData\" = {ValidForParentWidth = 21;};}",
"180 750 LINE {\"Letterink-NibData\" = {ValidForParentWidth = 21;};}",
"90 750 LINE {\"Letterink-NibData\" = {ValidForParentWidth = 21;};}",
"90 0 LINE {\"Letterink-NibData\" = {ValidForParentWidth = 21;};}"
);
},
{
closed = 1;
nodes = (
"545 0 LINE {\"Letterink-NibData\" = {ValidForParentWidth = 21;};}",
"363 369 LINE {\"Letterink-NibData\" = {ValidForParentWidth = 21;};}",
"271 361 LINE {\"Letterink-NibData\" = {ValidForParentWidth = 21;};}",
"432 0 LINE {\"Letterink-NibData\" = {ValidForParentWidth = 21;};}"
);
}
);
width = 585;
},
{
background = {
paths = (
{
closed = 1;
nodes = (
"142 325 LINE",
"182 312 OFFCURVE",
"221 306 OFFCURVE",
"258 306 CURVE SMOOTH",
"416 306 OFFCURVE",
"507 414 OFFCURVE",
"507 534 CURVE SMOOTH",
"507 675 OFFCURVE",
"430 763 OFFCURVE",
"258 763 CURVE SMOOTH",
"208 763 OFFCURVE",
"160 758 OFFCURVE",
"110 750 CURVE",
"110 707 LINE",
"198 733 OFFCURVE",
"326 732 OFFCURVE",
"403 688 CURVE",
"445 638 OFFCURVE",
"463 603 OFFCURVE",
"463 524 CURVE SMOOTH",
"463 426 OFFCURVE",
"386 346 OFFCURVE",
"255 346 CURVE SMOOTH",
"219 346 OFFCURVE",
"181 353 OFFCURVE",
"142 368 CURVE"
);
},
{
closed = 1;
nodes = (
"150 750 LINE",
"110 750 LINE",
"110 0 LINE",
"150 0 LINE"
);
},
{
closed = 1;
nodes = (
"532 0 LINE",
"366 336 LINE",
"331 325 LINE",
"488 0 LINE"
);
}
);
};
layerId = "FA803571-32C9-4FEE-972F-1FEF49B82217";
paths = (
{
closed = 1;
nodes = (
"393 306 OFFCURVE",
"507 388 OFFCURVE",
"507 547 CURVE SMOOTH",
"507 677 OFFCURVE",
"416 764 OFFCURVE",
"246 764 CURVE SMOOTH",
"210 764 OFFCURVE",
"156 761 OFFCURVE",
"110 750 CURVE",
"125 713 LINE",
"167 724 OFFCURVE",
"214 726 OFFCURVE",
"246 726 CURVE SMOOTH",
"395 726 OFFCURVE",
"467 655 OFFCURVE",
"467 547 CURVE SMOOTH",
"467 466 OFFCURVE",
"451 425 OFFCURVE",
"404 380 CURVE",
"360 356 OFFCURVE",
"309 346 OFFCURVE",
"258 346 CURVE SMOOTH",
"221 346 OFFCURVE",
"184 352 OFFCURVE",
"147 366 CURVE",
"133 329 LINE",
"174 313 OFFCURVE",
"216 306 OFFCURVE",
"258 306 CURVE SMOOTH"
);
},
{
closed = 1;
nodes = (
"150 0 LINE",
"150 750 LINE",
"110 750 LINE",
"110 0 LINE"
);
},
{
closed = 1;
nodes = (
"532 0 LINE",
"366 336 LINE",
"331 325 LINE",
"488 0 LINE"
);
}
);
width = 601;
},
{
layerId = "494556E7-144A-4E25-B9FC-0C21051BD184";
paths = (
{
closed = 1;
nodes = (
"491 263 OFFCURVE",
"614 353 OFFCURVE",
"614 523 CURVE SMOOTH",
"614 703 OFFCURVE",
"436 764 OFFCURVE",
"268 764 CURVE SMOOTH",
"162 764 OFFCURVE",
"108 756 OFFCURVE",
"80 750 CURVE",
"200 608 LINE",
"227 609 OFFCURVE",
"271 612 OFFCURVE",
"293 612 CURVE SMOOTH",
"370 612 OFFCURVE",
"411 590 OFFCURVE",
"411 497 CURVE SMOOTH",
"411 466 OFFCURVE",
"398 421 OFFCURVE",
"378 397 CURVE",
"364 391 OFFCURVE",
"339 389 OFFCURVE",
"319 389 CURVE SMOOTH",
"289 389 OFFCURVE",
"261 392 OFFCURVE",
"210 417 CURVE",
"210 273 LINE",
"237 267 OFFCURVE",
"304 263 OFFCURVE",
"359 263 CURVE SMOOTH"
);
},
{
closed = 1;
nodes = (
"290 0 LINE",
"290 750 LINE",
"80 750 LINE",
"80 0 LINE"
);
},
{
closed = 1;
nodes = (
"646 0 LINE",
"471 388 LINE",
"303 361 LINE",
"421 0 LINE"
);
}
);
width = 661;
}
);
leftMetricsKey = H;
note = R;
unicode = 0052;
},
{
color = 5;
glyphname = S;
lastChange = "2023-10-03 14:31:53 +0000";
layers = (
{
background = {
paths = (
{
closed = 1;
nodes = (
"479 691 LINE {\"Letterink-NibData\" = {ValidForParentWidth = \"21\";};}",
"415 742 OFFCURVE",
"344 764 OFFCURVE",
"280 764 CURVE SMOOTH {\"Letterink-NibData\" = {ValidForParentWidth = \"21\";};}",
"153 764 OFFCURVE",
"47 668 OFFCURVE",
"47 552 CURVE SMOOTH {\"Letterink-NibData\" = {ValidForParentWidth = \"21\";};}",
"47 440 OFFCURVE",
"157 393 OFFCURVE",
"257 341 CURVE SMOOTH {\"Letterink-NibData\" = {ValidForParentWidth = \"21\";};}",
"328 304 OFFCURVE",
"390 272 OFFCURVE",
"413 201 CURVE {\"Letterink-NibData\" = {ValidForParentWidth = \"21\";};}",
"383 111 OFFCURVE",
"309 77 OFFCURVE",
"243 77 CURVE SMOOTH {\"Letterink-NibData\" = {ValidForParentWidth = \"21\";};}",
"187 77 OFFCURVE",
"121 115 OFFCURVE",
"60 168 CURVE {\"Letterink-NibData\" = {ValidForParentWidth = \"21\";};}",
"30 77 LINE {\"Letterink-NibData\" = {ValidForParentWidth = \"21\";};}",
"94 16 OFFCURVE",
"187 -14 OFFCURVE",
"247 -14 CURVE SMOOTH {\"Letterink-NibData\" = {ValidForParentWidth = \"21\";};}",
"361 -14 OFFCURVE",
"489 85 OFFCURVE",
"489 213 CURVE SMOOTH {\"Letterink-NibData\" = {ValidForParentWidth = \"21\";};}",
"489 320 OFFCURVE",
"395 384 OFFCURVE",
"302 432 CURVE SMOOTH {\"Letterink-NibData\" = {ValidForParentWidth = \"21\";};}",
"222 473 OFFCURVE",
"147 492 OFFCURVE",
"123 554 CURVE {\"Letterink-NibData\" = {ValidForParentWidth = \"21\";};}",
"143 654 OFFCURVE",
"217 673 OFFCURVE",
"283 673 CURVE SMOOTH {\"Letterink-NibData\" = {ValidForParentWidth = \"21\";};}",
"339 673 OFFCURVE",
"388 645 OFFCURVE",
"449 600 CURVE {\"Letterink-NibData\" = {ValidForParentWidth = \"21\";};}"
);
}
);
};
guideLines = (
{
angle = 71.6915;
position = "{376, 406}";
},
{
angle = 71.6915;
position = "{139, 406}";
},
{
angle = 90;
position = "{488, 112}";
}
);
layerId = master01;
paths = (
{
closed = 1;
nodes = (
"361 -14 OFFCURVE",
"489 85 OFFCURVE",
"489 213 CURVE SMOOTH {\"Letterink-NibData\" = {ValidForParentWidth = 21;};}",
"489 320 OFFCURVE",
"395 393 OFFCURVE",
"302 441 CURVE SMOOTH {\"Letterink-NibData\" = {ValidForParentWidth = 21;};}",
"222 482 OFFCURVE",
"147 501 OFFCURVE",
"123 563 CURVE {\"Letterink-NibData\" = {ValidForParentWidth = 21;};}",
"143 663 OFFCURVE",
"217 673 OFFCURVE",
"283 673 CURVE SMOOTH {\"Letterink-NibData\" = {ValidForParentWidth = 21;};}",
"337 673 OFFCURVE",
"384 647 OFFCURVE",
"442 605 CURVE",
"472 696 LINE",
"410 744 OFFCURVE",
"342 764 OFFCURVE",
"280 764 CURVE SMOOTH {\"Letterink-NibData\" = {ValidForParentWidth = 21;};}",
"153 764 OFFCURVE",
"47 677 OFFCURVE",
"47 561 CURVE SMOOTH {\"Letterink-NibData\" = {ValidForParentWidth = 21;};}",
"47 449 OFFCURVE",
"157 402 OFFCURVE",
"257 350 CURVE SMOOTH {\"Letterink-NibData\" = {ValidForParentWidth = 21;};}",
"328 313 OFFCURVE",
"390 272 OFFCURVE",
"413 201 CURVE {\"Letterink-NibData\" = {ValidForParentWidth = 21;};}",
"383 111 OFFCURVE",
"309 77 OFFCURVE",
"243 77 CURVE SMOOTH {\"Letterink-NibData\" = {ValidForParentWidth = 21;};}",
"187 77 OFFCURVE",
"121 115 OFFCURVE",
"60 168 CURVE {\"Letterink-NibData\" = {ValidForParentWidth = 21;};}",
"30 77 LINE {\"Letterink-NibData\" = {ValidForParentWidth = 21;};}",
"94 16 OFFCURVE",
"187 -14 OFFCURVE",
"247 -14 CURVE SMOOTH {\"Letterink-NibData\" = {ValidForParentWidth = 21;};}"
);
}
);
width = 516;
},
{
background = {
guideLines = (
{
angle = 248.1986;
position = "{459, 649}";
}
);
paths = (
{
closed = 1;
nodes = (
"109 7 OFFCURVE",
"190 -14 OFFCURVE",
"267 -14 CURVE SMOOTH",
"369 -14 OFFCURVE",
"503 65 OFFCURVE",
"503 200 CURVE SMOOTH",
"503 336 OFFCURVE",
"367 384 OFFCURVE",
"281 425 CURVE SMOOTH",
"193 467 OFFCURVE",
"142 489 OFFCURVE",
"122 563 CURVE",
"132 663 OFFCURVE",
"192 723 OFFCURVE",
"294 723 CURVE SMOOTH",
"355 723 OFFCURVE",
"394 701 OFFCURVE",
"439 662 CURVE",
"455 704 LINE",
"401 740 OFFCURVE",
"367 763 OFFCURVE",
"294 763 CURVE SMOOTH",
"174 763 OFFCURVE",
"78 682 OFFCURVE",
"78 573 CURVE SMOOTH",
"78 487 OFFCURVE",
"179 427 OFFCURVE",
"265 385 CURVE SMOOTH",
"353 342 OFFCURVE",
"449 322 OFFCURVE",
"459 190 CURVE",
"439 59 OFFCURVE",
"332 26 OFFCURVE",
"262 26 CURVE SMOOTH",
"204 26 OFFCURVE",
"130 55 OFFCURVE",
"71 118 CURVE",
"47 82 LINE"
);
}
);
};
guideLines = (
{
angle = 71.6915;
position = "{166, 406}";
}
);
layerId = "FA803571-32C9-4FEE-972F-1FEF49B82217";
paths = (
{
closed = 1;
nodes = (
"383 -14 OFFCURVE",
"505 82 OFFCURVE",
"505 204 CURVE SMOOTH",
"505 313 OFFCURVE",
"395 370 OFFCURVE",
"287 429 CURVE SMOOTH",
"209 472 OFFCURVE",
"133 506 OFFCURVE",
"102 572 CURVE",
"122 671 OFFCURVE",
"203 724 OFFCURVE",
"294 724 CURVE SMOOTH",
"343 724 OFFCURVE",
"395 708 OFFCURVE",
"441 675 CURVE",
"455 720 LINE",
"411 749 OFFCURVE",
"358 764 OFFCURVE",
"306 764 CURVE SMOOTH",
"185 764 OFFCURVE",
"66 682 OFFCURVE",
"66 576 CURVE SMOOTH",
"66 492 OFFCURVE",
"164 447 OFFCURVE",
"265 388 CURVE SMOOTH",
"354 336 OFFCURVE",
"445 283 OFFCURVE",
"469 208 CURVE",
"452 95 OFFCURVE",
"359 26 OFFCURVE",
"267 26 CURVE SMOOTH",
"200 26 OFFCURVE",
"128 56 OFFCURVE",
"71 118 CURVE",
"47 82 LINE",
"105 17 OFFCURVE",
"185 -14 OFFCURVE",
"261 -14 CURVE SMOOTH"
);
}
);
width = 578;
},
{
layerId = "494556E7-144A-4E25-B9FC-0C21051BD184";
paths = (
{
closed = 1;
nodes = (
"462 -14 OFFCURVE",
"590 66 OFFCURVE",
"590 215 CURVE SMOOTH",
"590 290 OFFCURVE",
"508 362 OFFCURVE",
"423 433 CURVE SMOOTH",
"359 486 OFFCURVE",
"276 538 OFFCURVE",
"226 575 CURVE",
"259 585 OFFCURVE",
"289 590 OFFCURVE",
"319 590 CURVE SMOOTH",
"382 590 OFFCURVE",
"441 568 OFFCURVE",
"517 528 CURVE",
"571 691 LINE",
"508 734 OFFCURVE",
"398 764 OFFCURVE",
"324 764 CURVE SMOOTH",
"179 764 OFFCURVE",
"66 671 OFFCURVE",
"66 554 CURVE SMOOTH",
"66 470 OFFCURVE",
"146 393 OFFCURVE",
"226 325 CURVE SMOOTH",
"294 267 OFFCURVE",
"379 218 OFFCURVE",
"422 186 CURVE",
"396 182 OFFCURVE",
"370 180 OFFCURVE",
"346 180 CURVE SMOOTH",
"260 180 OFFCURVE",
"182 203 OFFCURVE",
"105 249 CURVE",
"45 67 LINE",
"119 19 OFFCURVE",
"243 -14 OFFCURVE",
"316 -14 CURVE SMOOTH"
);
}
);
width = 635;
}
);
note = S;
unicode = 0053;
},
{
color = 1;
glyphname = T;
lastChange = "2023-10-03 14:31:53 +0000";
layers = (
{
guideLines = (
{
angle = 71.6915;
position = "{475, 406}";
}
);
layerId = master01;
paths = (
{
closed = 1;
nodes = (
"348 0 LINE {\"Letterink-NibData\" = {ValidForParentWidth = 21;};}",
"348 750 LINE {\"Letterink-NibData\" = {ValidForParentWidth = 21;};}",
"258 750 LINE {\"Letterink-NibData\" = {ValidForParentWidth = 21;};}",
"258 0 LINE {\"Letterink-NibData\" = {ValidForParentWidth = 21;};}"
);
},
{
closed = 1;
nodes = (
"256 678 LINE {\"Letterink-NibData\" = {ValidForParentWidth = 21;};}",
"350 678 LINE {\"Letterink-NibData\" = {ValidForParentWidth = 21;};}",
"562 669 LINE {\"Letterink-NibData\" = {ValidForParentWidth = 21;};}",
"589 750 LINE {\"Letterink-NibData\" = {ValidForParentWidth = 21;};}",
"30 750 LINE {\"Letterink-NibData\" = {ValidForParentWidth = 21;};}",
"30 669 LINE {\"Letterink-NibData\" = {ValidForParentWidth = 21;};}"
);
}
);
width = 606;
},
{
background = {
paths = (
{
closed = 1;
nodes = (
"295 0 LINE",
"295 723 LINE",
"295 750 LINE",
"255 750 LINE",
"255 723 LINE",
"255 0 LINE"
);
}
);
};
guideLines = (
{
angle = 71.6915;
position = "{414, 406}";
}
);
layerId = "FA803571-32C9-4FEE-972F-1FEF49B82217";
paths = (
{
closed = 1;
nodes = (
"295 0 LINE",
"295 750 LINE",
"255 750 LINE",
"255 0 LINE"
);
},
{
closed = 1;
nodes = (
"255 723 LINE",
"295 723 LINE",
"516 716 LINE",
"528 750 LINE",
"29 750 LINE",
"29 716 LINE"
);
}
);
width = 550;
},
{
layerId = "494556E7-144A-4E25-B9FC-0C21051BD184";
paths = (
{
closed = 1;
nodes = (
"406 0 LINE",
"406 750 LINE",
"196 750 LINE",
"196 0 LINE"
);
},
{
closed = 1;
nodes = (
"196 619 LINE",
"406 619 LINE",
"551 600 LINE",
"602 750 LINE",
"15 750 LINE",
"15 600 LINE"
);
}
);
width = 617;
}
);
note = T;
unicode = 0054;
},
{
color = 1;
glyphname = U;
lastChange = "2023-10-03 14:31:53 +0000";
layers = (
{
anchors = (
{
name = "#top";
position = "{349, 740}";
}
);
background = {
paths = (
{
closed = 1;
nodes = (
"157 702 LINE",
"67 702 LINE",
"67 193 LINE SMOOTH",
"67 81 OFFCURVE",
"113 -14 OFFCURVE",
"214 -14 CURVE SMOOTH",
"292 -14 OFFCURVE",
"465 55 OFFCURVE",
"549 106 CURVE",
"517 179 LINE",
"477 147 OFFCURVE",
"310 73 OFFCURVE",
"205 73 CURVE",
"170 100 OFFCURVE",
"157 171 OFFCURVE",
"157 224 CURVE SMOOTH"
);
},
{
closed = 1;
nodes = (
"604 702 LINE",
"514 702 LINE",
"514 147 LINE",
"562 -14 LINE",
"640 17 LINE",
"619 86 OFFCURVE",
"604 158 OFFCURVE",
"604 231 CURVE SMOOTH"
);
}
);
};
layerId = master01;
paths = (
{
closed = 1;
nodes = (
"320 -13 OFFCURVE",
"463 60 OFFCURVE",
"550 114 CURVE {\"Letterink-NibData\" = {ValidForParentWidth = 21;};}",
"520 192 LINE {\"Letterink-NibData\" = {ValidForParentWidth = 21;};}",
"479 158 OFFCURVE",
"339 76 OFFCURVE",
"230 76 CURVE {\"Letterink-NibData\" = {ValidForParentWidth = 21;};}",
"194 105 OFFCURVE",
"180 183 OFFCURVE",
"180 240 CURVE SMOOTH {\"Letterink-NibData\" = {ValidForParentWidth = 21;};}",
"180 750 LINE {\"Letterink-NibData\" = {ValidForParentWidth = 21;};}",
"90 750 LINE {\"Letterink-NibData\" = {ValidForParentWidth = 21;};}",
"90 207 LINE SMOOTH {\"Letterink-NibData\" = {ValidForParentWidth = 21;};}",
"90 87 OFFCURVE",
"135 -13 OFFCURVE",
"239 -13 CURVE SMOOTH {\"Letterink-NibData\" = {ValidForParentWidth = 21;};}"
);
},
{
closed = 1;
nodes = (
"642 0 LINE {\"Letterink-NibData\" = {ValidForParentWidth = 21;};}",
"621 73 OFFCURVE",
"607 174 OFFCURVE",
"607 247 CURVE SMOOTH {\"Letterink-NibData\" = {ValidForParentWidth = 21;};}",
"607 750 LINE {\"Letterink-NibData\" = {ValidForParentWidth = 21;};}",
"517 750 LINE {\"Letterink-NibData\" = {ValidForParentWidth = 21;};}",
"517 158 LINE {\"Letterink-NibData\" = {ValidForParentWidth = 21;};}",
"552 0 LINE {\"Letterink-NibData\" = {ValidForParentWidth = 21;};}"
);
}
);
width = 717;
},
{
anchors = (
{
name = "#top";
position = "{331, 740}";
}
);
background = {
paths = (
{
closed = 1;
nodes = (
"145 750 LINE",
"105 750 LINE",
"105 177 LINE SMOOTH",
"105 67 OFFCURVE",
"166 -14 OFFCURVE",
"230 -14 CURVE SMOOTH",
"300 -14 OFFCURVE",
"448 84 OFFCURVE",
"535 144 CURVE",
"524 183 LINE",
"473 142 OFFCURVE",
"300 22 OFFCURVE",
"222 21 CURVE",
"182 40 OFFCURVE",
"145 73 OFFCURVE",
"145 210 CURVE SMOOTH"
);
},
{
closed = 1;
nodes = (
"557 750 LINE",
"517 750 LINE",
"517 158 LINE",
"564 -14 LINE",
"605 -12 LINE",
"589 35 OFFCURVE",
"557 135 OFFCURVE",
"557 202 CURVE SMOOTH"
);
}
);
};
layerId = "FA803571-32C9-4FEE-972F-1FEF49B82217";
paths = (
{
closed = 1;
nodes = (
"290 -14 OFFCURVE",
"448 84 OFFCURVE",
"535 144 CURVE",
"524 183 LINE",
"473 142 OFFCURVE",
"290 22 OFFCURVE",
"212 21 CURVE",
"172 40 OFFCURVE",
"145 73 OFFCURVE",
"145 210 CURVE SMOOTH",
"145 749 LINE",
"105 749 LINE",
"105 177 LINE SMOOTH",
"105 57 OFFCURVE",
"156 -14 OFFCURVE",
"220 -14 CURVE SMOOTH"
);
},
{
closed = 1;
nodes = (
"601 0 LINE",
"581 80 OFFCURVE",
"557 154 OFFCURVE",
"557 202 CURVE SMOOTH",
"557 749 LINE",
"517 749 LINE",
"517 158 LINE",
"560 0 LINE"
);
}
);
width = 662;
},
{
anchors = (
{
name = "#top";
position = "{383, 740}";
}
);
layerId = "494556E7-144A-4E25-B9FC-0C21051BD184";
paths = (
{
closed = 1;
nodes = (
"370 -14 OFFCURVE",
"473 55 OFFCURVE",
"560 114 CURVE",
"530 282 LINE",
"489 229 OFFCURVE",
"389 166 OFFCURVE",
"330 166 CURVE",
"284 201 OFFCURVE",
"280 272 OFFCURVE",
"280 377 CURVE SMOOTH",
"280 750 LINE",
"70 750 LINE",
"70 227 LINE SMOOTH",
"70 87 OFFCURVE",
"165 -14 OFFCURVE",
"279 -14 CURVE SMOOTH"
);
},
{
closed = 1;
nodes = (
"737 0 LINE",
"716 73 OFFCURVE",
"697 175 OFFCURVE",
"697 267 CURVE SMOOTH",
"697 750 LINE",
"487 750 LINE",
"487 168 LINE",
"536 0 LINE"
);
}
);
width = 767;
}
);
note = U;
unicode = 0055;
},
{
color = 1;
glyphname = V;
lastChange = "2023-10-03 14:31:53 +0000";
layers = (
{
background = {
guideLines = (
{
angle = 161.3127;
position = "{270, 830}";
}
);
paths = (
{
closed = 1;
nodes = (
"125 750 LINE",
"25 750 LINE",
"272 0 LINE",
"352 0 LINE",
"593 721 LINE",
"513 750 LINE",
"293 18 LINE",
"344 28 LINE"
);
}
);
};
guideLines = (
{
angle = 161.6915;
position = "{601, 723}";
}
);
layerId = master01;
paths = (
{
closed = 1;
nodes = (
"365 0 LINE {\"Letterink-NibData\" = {ValidForParentWidth = 21;};}",
"611 721 LINE {\"Letterink-NibData\" = {ValidForParentWidth = 21;};}",
"523 751 LINE {\"Letterink-NibData\" = {ValidForParentWidth = 21;};}",
"309 28 LINE {\"Letterink-NibData\" = {ValidForParentWidth = 21;};}",
"354 28 LINE {\"Letterink-NibData\" = {ValidForParentWidth = 21;};}",
"138 750 LINE {\"Letterink-NibData\" = {ValidForParentWidth = 21;};}",
"35 750 LINE {\"Letterink-NibData\" = {ValidForParentWidth = 21;};}",
"285 0 LINE {\"Letterink-NibData\" = {ValidForParentWidth = 21;};}"
);
}
);
width = 646;
},
{
guideLines = (
{
angle = 341.5651;
position = "{569, 736}";
}
);
layerId = "FA803571-32C9-4FEE-972F-1FEF49B82217";
paths = (
{
closed = 1;
nodes = (
"318 0 LINE",
"565 741 LINE",
"532 752 LINE",
"294 28 LINE",
"310 28 LINE",
"76 750 LINE",
"34 750 LINE",
"283 0 LINE"
);
}
);
width = 600;
},
{
layerId = "494556E7-144A-4E25-B9FC-0C21051BD184";
paths = (
{
closed = 1;
nodes = (
"460 -1 LINE",
"690 696 LINE",
"490 751 LINE",
"339 149 LINE",
"384 149 LINE",
"239 750 LINE",
"10 750 LINE",
"250 -1 LINE"
);
}
);
width = 700;
}
);
leftKerningGroup = V;
note = V;
rightKerningGroup = V;
unicode = 0056;
},
{
color = 1;
glyphname = W;
lastChange = "2023-10-03 14:31:53 +0000";
layers = (
{
anchors = (
{
name = "#top";
position = "{472, 740}";
}
);
background = {
paths = (
{
closed = 1;
nodes = (
"809 758 LINE",
"642 70 LINE",
"680 70 LINE",
"508 735 LINE",
"418 735 LINE",
"253 69 LINE",
"284 69 LINE",
"135 750 LINE",
"25 750 LINE",
"222 0 LINE",
"302 0 LINE",
"476 678 LINE",
"420 678 LINE",
"612 0 LINE",
"692 0 LINE",
"897 728 LINE"
);
}
);
};
guideLines = (
{
angle = 161.6915;
position = "{601, 821}";
}
);
layerId = master01;
paths = (
{
closed = 1;
nodes = (
"312 0 LINE {\"Letterink-NibData\" = {ValidForParentWidth = 21;};}",
"486 678 LINE {\"Letterink-NibData\" = {ValidForParentWidth = 21;};}",
"430 678 LINE {\"Letterink-NibData\" = {ValidForParentWidth = 21;};}",
"622 0 LINE {\"Letterink-NibData\" = {ValidForParentWidth = 21;};}",
"702 0 LINE {\"Letterink-NibData\" = {ValidForParentWidth = 21;};}",
"905 721 LINE {\"Letterink-NibData\" = {ValidForParentWidth = 21;};}",
"817 751 LINE {\"Letterink-NibData\" = {ValidForParentWidth = 21;};}",
"652 70 LINE {\"Letterink-NibData\" = {ValidForParentWidth = 21;};}",
"690 70 LINE {\"Letterink-NibData\" = {ValidForParentWidth = 21;};}",
"518 735 LINE {\"Letterink-NibData\" = {ValidForParentWidth = 21;};}",
"428 735 LINE {\"Letterink-NibData\" = {ValidForParentWidth = 21;};}",
"263 69 LINE {\"Letterink-NibData\" = {ValidForParentWidth = 21;};}",
"294 69 LINE {\"Letterink-NibData\" = {ValidForParentWidth = 21;};}",
"145 750 LINE {\"Letterink-NibData\" = {ValidForParentWidth = 21;};}",
"35 750 LINE {\"Letterink-NibData\" = {ValidForParentWidth = 21;};}",
"232 0 LINE {\"Letterink-NibData\" = {ValidForParentWidth = 21;};}"
);
}
);
width = 940;
},
{
anchors = (
{
name = "#top";
position = "{439, 740}";
}
);
background = {
paths = (
{
closed = 1;
nodes = (
"639 28 LINE",
"458 750 LINE",
"419 738 LINE",
"617 0 LINE",
"652 0 LINE",
"849 750 LINE",
"800 750 LINE",
"627 28 LINE"
);
},
{
closed = 1;
nodes = (
"249 28 LINE",
"75 750 LINE",
"36 738 LINE",
"227 0 LINE",
"262 0 LINE",
"462 750 LINE",
"413 750 LINE",
"237 28 LINE"
);
}
);
};
guideLines = (
{
angle = 341.5651;
position = "{841, 736}";
}
);
layerId = "FA803571-32C9-4FEE-972F-1FEF49B82217";
paths = (
{
closed = 1;
nodes = (
"262 0 LINE",
"446 690 LINE",
"426 690 LINE",
"616 0 LINE",
"651 0 LINE",
"841 740 LINE",
"809 751 LINE",
"627 25 LINE",
"643 25 LINE",
"452 735 LINE",
"427 735 LINE",
"238 21 LINE",
"256 21 LINE",
"76 750 LINE",
"34 750 LINE",
"227 0 LINE"
);
}
);
width = 876;
},
{
anchors = (
{
name = "#top";
position = "{510, 740}";
}
);
layerId = "494556E7-144A-4E25-B9FC-0C21051BD184";
paths = (
{
closed = 1;
nodes = (
"410 0 LINE",
"510 430 LINE",
"488 430 LINE",
"592 0 LINE",
"802 0 LINE",
"1000 728 LINE",
"801 763 LINE",
"697 221 LINE",
"714 221 LINE",
"615 750 LINE",
"405 750 LINE",
"318 221 LINE",
"335 221 LINE",
"230 750 LINE",
"10 750 LINE",
"200 0 LINE"
);
}
);
width = 1010;
}
);
leftKerningGroup = V;
leftMetricsKey = V;
note = W;
rightKerningGroup = V;
rightMetricsKey = V;
unicode = 0057;
},
{
color = 1;
glyphname = X;
lastChange = "2023-10-03 14:31:53 +0000";
layers = (
{
background = {
paths = (
{
closed = 1;
nodes = (
"155 750 LINE",
"40 750 LINE",
"506 0 LINE",
"621 0 LINE"
);
},
{
closed = 1;
nodes = (
"25 0 LINE",
"139 0 LINE",
"333 339 LINE",
"295 411 LINE"
);
},
{
closed = 1;
nodes = (
"587 728 LINE",
"499 757 LINE",
"306 412 LINE",
"342 340 LINE"
);
}
);
};
guideLines = (
{
angle = 161.3127;
position = "{287, 836}";
},
{
angle = 161.6915;
position = "{601, 718}";
}
);
layerId = master01;
paths = (
{
closed = 1;
nodes = (
"631 0 LINE {\"Letterink-NibData\" = {ValidForParentWidth = 21;};}",
"165 750 LINE {\"Letterink-NibData\" = {ValidForParentWidth = 21;};}",
"50 750 LINE {\"Letterink-NibData\" = {ValidForParentWidth = 21;};}",
"516 0 LINE {\"Letterink-NibData\" = {ValidForParentWidth = 21;};}"
);
},
{
closed = 1;
nodes = (
"149 0 LINE {\"Letterink-NibData\" = {ValidForParentWidth = 21;};}",
"343 339 LINE {\"Letterink-NibData\" = {ValidForParentWidth = 21;};}",
"305 411 LINE {\"Letterink-NibData\" = {ValidForParentWidth = 21;};}",
"35 0 LINE {\"Letterink-NibData\" = {ValidForParentWidth = 21;};}"
);
},
{
closed = 1;
nodes = (
"593 721 LINE {\"Letterink-NibData\" = {ValidForParentWidth = 21;};}",
"505 750 LINE {\"Letterink-NibData\" = {ValidForParentWidth = 21;};}",
"316 412 LINE {\"Letterink-NibData\" = {ValidForParentWidth = 21;};}",
"352 340 LINE {\"Letterink-NibData\" = {ValidForParentWidth = 21;};}"
);
}
);
width = 666;
},
{
background = {
paths = (
{
closed = 1;
nodes = (
"154 750 LINE",
"39 750 LINE",
"505 0 LINE",
"620 0 LINE"
);
},
{
closed = 1;
nodes = (
"24 0 LINE",
"138 0 LINE",
"332 339 LINE",
"294 411 LINE"
);
},
{
closed = 1;
nodes = (
"596 724 LINE",
"498 757 LINE",
"305 412 LINE",
"341 340 LINE"
);
}
);
};
guideLines = (
{
angle = 341.5651;
position = "{598, 726}";
}
);
layerId = "FA803571-32C9-4FEE-972F-1FEF49B82217";
paths = (
{
closed = 1;
nodes = (
"575 0 LINE",
"104 750 LINE",
"59 750 LINE",
"530 0 LINE"
);
},
{
closed = 1;
nodes = (
"78 0 LINE",
"305 354 LINE",
"299 399 LINE",
"35 0 LINE"
);
},
{
closed = 1;
nodes = (
"562 740 LINE",
"527 752 LINE",
"306 392 LINE",
"317 354 LINE"
);
}
);
width = 610;
},
{
layerId = "494556E7-144A-4E25-B9FC-0C21051BD184";
paths = (
{
closed = 1;
nodes = (
"711 0 LINE",
"244 750 LINE",
"11 750 LINE",
"478 0 LINE"
);
},
{
closed = 1;
nodes = (
"243 0 LINE",
"431 338 LINE",
"338 509 LINE",
"11 0 LINE"
);
},
{
closed = 1;
nodes = (
"675 692 LINE",
"490 750 LINE",
"295 413 LINE",
"380 238 LINE"
);
}
);
width = 714;
}
);
note = X;
unicode = 0058;
},
{
color = 1;
glyphname = Y;
lastChange = "2023-10-03 14:31:53 +0000";
layers = (
{
anchors = (
{
name = "#top";
position = "{308, 740}";
}
);
background = {
paths = (
{
closed = 1;
nodes = (
"251 309 LINE",
"251 0 LINE",
"341 0 LINE",
"341 309 LINE"
);
},
{
closed = 1;
nodes = (
"293 355 LINE",
"306 353 LINE",
"130 747 LINE",
"20 747 LINE",
"251 297 LINE",
"341 297 LINE",
"557 728 LINE",
"470 757 LINE"
);
}
);
};
guideLines = (
{
angle = 161.3127;
position = "{294, 824}";
},
{
angle = 161.6915;
position = "{601, 709}";
}
);
layerId = master01;
paths = (
{
closed = 1;
nodes = (
"351 297 LINE {\"Letterink-NibData\" = {ValidForParentWidth = 21;};}",
"564 721 LINE {\"Letterink-NibData\" = {ValidForParentWidth = 21;};}",
"476 750 LINE {\"Letterink-NibData\" = {ValidForParentWidth = 21;};}",
"303 355 LINE {\"Letterink-NibData\" = {ValidForParentWidth = 21;};}",
"316 353 LINE {\"Letterink-NibData\" = {ValidForParentWidth = 21;};}",
"138 750 LINE {\"Letterink-NibData\" = {ValidForParentWidth = 21;};}",
"28 750 LINE {\"Letterink-NibData\" = {ValidForParentWidth = 21;};}",
"261 297 LINE {\"Letterink-NibData\" = {ValidForParentWidth = 21;};}"
);
},
{
closed = 1;
nodes = (
"351 0 LINE {\"Letterink-NibData\" = {ValidForParentWidth = 21;};}",
"351 309 LINE {\"Letterink-NibData\" = {ValidForParentWidth = 21;};}",
"261 309 LINE {\"Letterink-NibData\" = {ValidForParentWidth = 21;};}",
"261 0 LINE {\"Letterink-NibData\" = {ValidForParentWidth = 21;};}"
);
}
);
width = 617;
},
{
anchors = (
{
name = "#top";
position = "{288, 740}";
}
);
background = {
paths = (
{
closed = 1;
nodes = (
"236 309 LINE",
"236 0 LINE",
"326 0 LINE",
"326 309 LINE"
);
},
{
closed = 1;
nodes = (
"278 355 LINE",
"291 353 LINE",
"115 747 LINE",
"5 747 LINE",
"236 297 LINE",
"326 297 LINE",
"562 729 LINE",
"475 756 LINE"
);
}
);
};
layerId = "FA803571-32C9-4FEE-972F-1FEF49B82217";
paths = (
{
closed = 1;
nodes = (
"311 287 LINE",
"532 742 LINE",
"499 753 LINE",
"281 295 LINE",
"306 293 LINE",
"76 750 LINE",
"30 750 LINE",
"271 287 LINE"
);
},
{
closed = 1;
nodes = (
"311 0 LINE",
"311 299 LINE",
"271 299 LINE",
"271 0 LINE"
);
}
);
width = 566;
},
{
anchors = (
{
name = "#top";
position = "{368, 740}";
}
);
layerId = "494556E7-144A-4E25-B9FC-0C21051BD184";
paths = (
{
closed = 1;
nodes = (
"466 270 LINE",
"697 696 LINE",
"499 750 LINE",
"328 340 LINE",
"403 340 LINE",
"237 750 LINE",
"10 750 LINE",
"256 270 LINE"
);
},
{
closed = 1;
nodes = (
"466 0 LINE",
"466 309 LINE",
"256 309 LINE",
"256 0 LINE"
);
}
);
width = 707;
}
);
note = Y;
rightKerningGroup = F;
unicode = 0059;
},
{
color = 1;
glyphname = Z;
lastChange = "2023-10-03 14:31:53 +0000";
layers = (
{
guideLines = (
{
angle = 290.2249;
position = "{499, 672}";
},
{
angle = 108.3085;
position = "{-49, 406}";
},
{
angle = 71.6915;
position = "{671, 406}";
}
);
layerId = master01;
paths = (
{
closed = 1;
nodes = (
"521 681 LINE {\"Letterink-NibData\" = {ValidForParentWidth = 21;};}",
"423 688 LINE {\"Letterink-NibData\" = {ValidForParentWidth = 21;};}",
"60 78 LINE {\"Letterink-NibData\" = {ValidForParentWidth = 21;};}",
"161 68 LINE {\"Letterink-NibData\" = {ValidForParentWidth = 21;};}"
);
},
{
closed = 1;
nodes = (
"539 0 LINE {\"Letterink-NibData\" = {ValidForParentWidth = 21;};}",
"566 89 LINE {\"Letterink-NibData\" = {ValidForParentWidth = 21;};}",
"60 78 LINE {\"Letterink-NibData\" = {ValidForParentWidth = 21;};}",
"86 0 LINE {\"Letterink-NibData\" = {ValidForParentWidth = 21;};}"
);
},
{
closed = 1;
nodes = (
"521 681 LINE {\"Letterink-NibData\" = {ValidForParentWidth = 21;};}",
"494 750 LINE {\"Letterink-NibData\" = {ValidForParentWidth = 21;};}",
"67 750 LINE {\"Letterink-NibData\" = {ValidForParentWidth = 21;};}",
"67 663 LINE {\"Letterink-NibData\" = {ValidForParentWidth = 21;};}"
);
}
);
width = 611;
},
{
background = {
paths = (
{
closed = 1;
nodes = (
"41 663 LINE",
"495 681 LINE",
"468 750 LINE",
"41 750 LINE"
);
},
{
closed = 1;
nodes = (
"540 89 LINE",
"34 78 LINE",
"60 0 LINE",
"523 0 LINE"
);
},
{
closed = 1;
nodes = (
"495 681 LINE",
"397 688 LINE",
"34 78 LINE",
"135 68 LINE"
);
}
);
};
guideLines = (
{
angle = 71.6915;
position = "{652, 406}";
},
{
angle = 108.3085;
position = "{-74, 406}";
},
{
angle = 108.3085;
position = "{584, 406}";
}
);
layerId = "FA803571-32C9-4FEE-972F-1FEF49B82217";
paths = (
{
closed = 1;
nodes = (
"481 717 LINE",
"442 729 LINE",
"49 32 LINE",
"96 32 LINE"
);
},
{
closed = 1;
nodes = (
"517 0 LINE",
"529 38 LINE",
"49 32 LINE",
"59 0 LINE"
);
},
{
closed = 1;
nodes = (
"481 717 LINE",
"470 750 LINE",
"41 750 LINE",
"41 710 LINE"
);
}
);
width = 579;
},
{
layerId = "494556E7-144A-4E25-B9FC-0C21051BD184";
paths = (
{
closed = 1;
nodes = (
"599 606 LINE",
"350 615 LINE",
"8 150 LINE",
"238 138 LINE"
);
},
{
closed = 1;
nodes = (
"550 0 LINE",
"607 165 LINE",
"8 150 LINE",
"58 0 LINE"
);
},
{
closed = 1;
nodes = (
"599 606 LINE",
"551 750 LINE",
"35 750 LINE",
"35 585 LINE"
);
}
);
width = 625;
}
);
note = Z;
unicode = 005A;
},
{
color = 5;
glyphname = a;
lastChange = "2023-10-03 14:32:33 +0000";
layers = (
{
anchors = (
{
name = "#top";
position = "{276, 515}";
}
);
guideLines = (
{
angle = 108.3085;
position = "{101, 406}";
},
{
angle = 18.3085;
position = "{601, 44}";
}
);
layerId = master01;
paths = (
{
closed = 1;
nodes = (
"493 8 LINE {\"Letterink-NibData\" = {ValidForParentWidth = 21;};}",
"473 43 OFFCURVE",
"449 135 OFFCURVE",
"449 188 CURVE SMOOTH {\"Letterink-NibData\" = {ValidForParentWidth = 21;};}",
"449 376 LINE SMOOTH {\"Letterink-NibData\" = {ValidForParentWidth = 21;};}",
"449 458 OFFCURVE",
"427 529 OFFCURVE",
"355 529 CURVE SMOOTH {\"Letterink-NibData\" = {ValidForParentWidth = 21;};}",
"288 529 OFFCURVE",
"139 484 OFFCURVE",
"89 442 CURVE {\"Letterink-NibData\" = {ValidForParentWidth = 21;};}",
"111 375 LINE {\"Letterink-NibData\" = {ValidForParentWidth = 21;};}",
"168 414 OFFCURVE",
"273 453 OFFCURVE",
"341 458 CURVE {\"Letterink-NibData\" = {ValidForParentWidth = 21;};}",
"362 437 OFFCURVE",
"365 395 OFFCURVE",
"365 352 CURVE SMOOTH {\"Letterink-NibData\" = {ValidForParentWidth = 21;};}",
"365 109 LINE {\"Letterink-NibData\" = {ValidForParentWidth = 21;};}",
"376 109 LINE {\"Letterink-NibData\" = {ValidForParentWidth = 21;};}",
"376 83 OFFCURVE",
"405 11 OFFCURVE",
"425 -14 CURVE {\"Letterink-NibData\" = {ValidForParentWidth = 21;};}"
);
},
{
closed = 1;
nodes = (
"262 -14 OFFCURVE",
"345 37 OFFCURVE",
"400 82 CURVE {\"Letterink-NibData\" = {ValidForParentWidth = 21;};}",
"374 139 LINE {\"Letterink-NibData\" = {ValidForParentWidth = 21;};}",
"327 98 OFFCURVE",
"263 58 OFFCURVE",
"214 47 CURVE {\"Letterink-NibData\" = {ValidForParentWidth = 21;};}",
"163 54 OFFCURVE",
"137 92 OFFCURVE",
"137 132 CURVE SMOOTH {\"Letterink-NibData\" = {ValidForParentWidth = 21;};}",
"137 222 OFFCURVE",
"271 252 OFFCURVE",
"374 252 CURVE {\"Letterink-NibData\" = {ValidForParentWidth = 21;};}",
"378 324 LINE {\"Letterink-NibData\" = {ValidForParentWidth = 21;};}",
"230 324 OFFCURVE",
"49 268 OFFCURVE",
"49 127 CURVE SMOOTH {\"Letterink-NibData\" = {ValidForParentWidth = 21;};}",
"49 47 OFFCURVE",
"112 -14 OFFCURVE",
"198 -14 CURVE SMOOTH {\"Letterink-NibData\" = {ValidForParentWidth = 21;};}"
);
}
);
width = 552;
},
{
anchors = (
{
name = "#top";
position = "{268, 505}";
}
);
guideLines = (
{
angle = 108.3085;
position = "{116, 406}";
},
{
angle = 18.3085;
position = "{601, 39}";
}
);
layerId = "FA803571-32C9-4FEE-972F-1FEF49B82217";
paths = (
{
closed = 1;
nodes = (
"472 -4 LINE",
"453 30 OFFCURVE",
"421 109 OFFCURVE",
"421 174 CURVE",
"421 369 LINE",
"421 449 OFFCURVE",
"401 519 OFFCURVE",
"342 519 CURVE SMOOTH",
"279 519 OFFCURVE",
"155 474 OFFCURVE",
"103 445 CURVE",
"116 405 LINE",
"178 445 OFFCURVE",
"279 475 OFFCURVE",
"350 480 CURVE",
"373 454 OFFCURVE",
"383 422 OFFCURVE",
"383 378 CURVE",
"383 114 LINE",
"395 114 LINE",
"395 87 OFFCURVE",
"424 13 OFFCURVE",
"445 -13 CURVE"
);
},
{
closed = 1;
nodes = (
"274 -12 OFFCURVE",
"362 59 OFFCURVE",
"417 104 CURVE",
"395 141 LINE",
"348 93 OFFCURVE",
"283 29 OFFCURVE",
"204 19 CURVE",
"131 33 OFFCURVE",
"105 66 OFFCURVE",
"105 123 CURVE SMOOTH",
"105 258 OFFCURVE",
"292 271 OFFCURVE",
"395 274 CURVE",
"399 311 LINE",
"251 311 OFFCURVE",
"63 272 OFFCURVE",
"63 122 CURVE SMOOTH",
"63 47 OFFCURVE",
"125 -12 OFFCURVE",
"210 -12 CURVE SMOOTH"
);
}
);
width = 535;
},
{
anchors = (
{
name = "#top";
position = "{309, 520}";
}
);
layerId = "494556E7-144A-4E25-B9FC-0C21051BD184";
paths = (
{
closed = 1;
nodes = (
"561 32 LINE",
"537 82 OFFCURVE",
"530 141 OFFCURVE",
"530 208 CURVE",
"530 351 LINE SMOOTH",
"530 464 OFFCURVE",
"482 529 OFFCURVE",
"392 529 CURVE SMOOTH",
"308 529 OFFCURVE",
"175 514 OFFCURVE",
"62 474 CURVE",
"107 338 LINE",
"177 372 OFFCURVE",
"260 391 OFFCURVE",
"327 391 CURVE",
"346 372 OFFCURVE",
"347 330 OFFCURVE",
"347 293 CURVE SMOOTH",
"347 94 LINE",
"357 94 LINE",
"357 74 OFFCURVE",
"407 9 OFFCURVE",
"423 -14 CURVE"
);
},
{
closed = 1;
nodes = (
"283 -12 OFFCURVE",
"357 17 OFFCURVE",
"406 74 CURVE",
"373 150 LINE",
"349 129 OFFCURVE",
"315 108 OFFCURVE",
"290 102 CURVE",
"264 108 OFFCURVE",
"230 117 OFFCURVE",
"230 160 CURVE SMOOTH",
"230 222 OFFCURVE",
"313 229 OFFCURVE",
"375 229 CURVE",
"399 327 LINE",
"234 327 OFFCURVE",
"45 270 OFFCURVE",
"45 131 CURVE SMOOTH",
"45 19 OFFCURVE",
"130 -12 OFFCURVE",
"215 -12 CURVE SMOOTH"
);
}
);
width = 601;
}
);
note = a;
unicode = 0061;
},
{
color = 5;
glyphname = b;
lastChange = "2023-10-03 14:31:53 +0000";
layers = (
{
background = {
paths = (
{
closed = 1;
nodes = (
"90 47 LINE",
"178 47 LINE",
"178 770 LINE",
"90 770 LINE"
);
},
{
closed = 1;
nodes = (
"92 47 LINE",
"157 8 OFFCURVE",
"240 -14 OFFCURVE",
"325 -14 CURVE SMOOTH",
"441 -14 OFFCURVE",
"543 102 OFFCURVE",
"546 272 CURVE SMOOTH",
"548 403 OFFCURVE",
"469 529 OFFCURVE",
"334 529 CURVE SMOOTH",
"268 529 OFFCURVE",
"193 480 OFFCURVE",
"105 413 CURVE",
"125 354 LINE",
"186 403 OFFCURVE",
"264 451 OFFCURVE",
"316 451 CURVE SMOOTH",
"418 451 OFFCURVE",
"459 337 OFFCURVE",
"459 239 CURVE SMOOTH",
"459 134 OFFCURVE",
"414 77 OFFCURVE",
"355 47 CURVE",
"315 47 OFFCURVE",
"214 66 OFFCURVE",
"173 95 CURVE"
);
}
);
};
layerId = master01;
paths = (
{
closed = 1;
nodes = (
"437 -14 OFFCURVE",
"549 114 OFFCURVE",
"548 269 CURVE SMOOTH {\"Letterink-NibData\" = {ValidForParentWidth = 21;};}",
"547 404 OFFCURVE",
"455 529 OFFCURVE",
"327 529 CURVE SMOOTH {\"Letterink-NibData\" = {ValidForParentWidth = 21;};}",
"261 529 OFFCURVE",
"192 480 OFFCURVE",
"104 413 CURVE {\"Letterink-NibData\" = {ValidForParentWidth = 21;};}",
"124 354 LINE {\"Letterink-NibData\" = {ValidForParentWidth = 21;};}",
"185 403 OFFCURVE",
"263 451 OFFCURVE",
"315 451 CURVE SMOOTH {\"Letterink-NibData\" = {ValidForParentWidth = 21;};}",
"417 451 OFFCURVE",
"460 341 OFFCURVE",
"460 239 CURVE SMOOTH {\"Letterink-NibData\" = {ValidForParentWidth = 21;};}",
"460 124 OFFCURVE",
"414 72 OFFCURVE",
"353 44 CURVE {\"Letterink-NibData\" = {ValidForParentWidth = 21;};}",
"313 44 OFFCURVE",
"212 66 OFFCURVE",
"171 95 CURVE {\"Letterink-NibData\" = {ValidForParentWidth = 21;};}",
"90 47 LINE {\"Letterink-NibData\" = {ValidForParentWidth = 21;};}",
"155 8 OFFCURVE",
"238 -14 OFFCURVE",
"323 -14 CURVE SMOOTH {\"Letterink-NibData\" = {ValidForParentWidth = 21;};}"
);
},
{
closed = 1;
nodes = (
"178 47 LINE {\"Letterink-NibData\" = {ValidForParentWidth = 21;};}",
"178 770 LINE {\"Letterink-NibData\" = {ValidForParentWidth = 21;};}",
"90 770 LINE {\"Letterink-NibData\" = {ValidForParentWidth = 21;};}",
"90 47 LINE {\"Letterink-NibData\" = {ValidForParentWidth = 21;};}"
);
}
);
width = 593;
},
{
background = {
paths = (
{
closed = 1;
nodes = (
"97 46 LINE",
"135 46 LINE",
"135 770 LINE",
"97 770 LINE"
);
},
{
closed = 1;
nodes = (
"96 46 LINE",
"165 5 OFFCURVE",
"245 -14 OFFCURVE",
"313 -14 CURVE SMOOTH",
"403 -14 OFFCURVE",
"507 97 OFFCURVE",
"507 246 CURVE SMOOTH",
"507 376 OFFCURVE",
"445 519 OFFCURVE",
"305 519 CURVE",
"235 519 OFFCURVE",
"155 449 OFFCURVE",
"106 407 CURVE",
"125 382 LINE",
"170 419 OFFCURVE",
"243 481 OFFCURVE",
"305 481 CURVE",
"414 481 OFFCURVE",
"465 346 OFFCURVE",
"465 250 CURVE SMOOTH",
"465 104 OFFCURVE",
"385 41 OFFCURVE",
"326 23 CURVE",
"255 23 OFFCURVE",
"186 36 OFFCURVE",
"128 71 CURVE"
);
}
);
};
layerId = "FA803571-32C9-4FEE-972F-1FEF49B82217";
paths = (
{
closed = 1;
nodes = (
"403 -14 OFFCURVE",
"507 97 OFFCURVE",
"507 246 CURVE SMOOTH",
"507 382 OFFCURVE",
"444 519 OFFCURVE",
"304 519 CURVE",
"234 519 OFFCURVE",
"160 449 OFFCURVE",
"111 407 CURVE",
"130 382 LINE",
"175 419 OFFCURVE",
"242 481 OFFCURVE",
"304 481 CURVE",
"413 481 OFFCURVE",
"465 352 OFFCURVE",
"465 250 CURVE SMOOTH",
"465 104 OFFCURVE",
"385 41 OFFCURVE",
"326 23 CURVE",
"255 23 OFFCURVE",
"186 36 OFFCURVE",
"128 71 CURVE",
"96 46 LINE",
"165 5 OFFCURVE",
"245 -14 OFFCURVE",
"313 -14 CURVE SMOOTH"
);
},
{
closed = 1;
nodes = (
"135 46 LINE",
"135 770 LINE",
"97 770 LINE",
"97 46 LINE"
);
}
);
width = 567;
},
{
layerId = "494556E7-144A-4E25-B9FC-0C21051BD184";
paths = (
{
closed = 1;
nodes = (
"482 -14 OFFCURVE",
"597 85 OFFCURVE",
"597 281 CURVE SMOOTH",
"597 416 OFFCURVE",
"539 534 OFFCURVE",
"422 534 CURVE SMOOTH",
"333 534 OFFCURVE",
"223 471 OFFCURVE",
"123 349 CURVE",
"155 182 LINE",
"178 287 OFFCURVE",
"260 356 OFFCURVE",
"321 356 CURVE SMOOTH",
"362 356 OFFCURVE",
"393 326 OFFCURVE",
"393 257 CURVE SMOOTH",
"393 212 OFFCURVE",
"375 161 OFFCURVE",
"336 133 CURVE",
"290 140 OFFCURVE",
"241 146 OFFCURVE",
"191 242 CURVE",
"70 67 LINE",
"164 12 OFFCURVE",
"264 -14 OFFCURVE",
"364 -14 CURVE SMOOTH"
);
},
{
closed = 1;
nodes = (
"270 67 LINE",
"270 770 LINE",
"70 770 LINE",
"70 67 LINE"
);
}
);
width = 632;
}
);
note = b;
rightKerningGroup = o;
rightMetricsKey = o;
unicode = 0062;
},
{
color = 5;
glyphname = c;
lastChange = "2023-10-03 14:31:53 +0000";
layers = (
{
anchors = (
{
name = "#bottom";
position = "{285, 0}";
},
{
name = "#top";
position = "{276, 515}";
}
);
background = {
paths = (
{
closed = 1;
nodes = (
"401 84 OFFCURVE",
"343 60 OFFCURVE",
"294 46 CURVE",
"182 55 OFFCURVE",
"131 161 OFFCURVE",
"131 299 CURVE SMOOTH",
"131 403 OFFCURVE",
"188 454 OFFCURVE",
"267 464 CURVE",
"331 451 OFFCURVE",
"403 419 OFFCURVE",
"440 392 CURVE",
"468 460 LINE",
"437 486 OFFCURVE",
"357 529 OFFCURVE",
"294 529 CURVE SMOOTH",
"145 529 OFFCURVE",
"45 420 OFFCURVE",
"45 258 CURVE SMOOTH",
"45 98 OFFCURVE",
"125 -14 OFFCURVE",
"287 -14 CURVE SMOOTH",
"350 -14 OFFCURVE",
"414 13 OFFCURVE",
"473 53 CURVE",
"450 116 LINE"
);
}
);
};
guideLines = (
{
angle = 108.3085;
position = "{360, 406}";
},
{
angle = 71.6915;
position = "{447, 406}";
}
);
layerId = master01;
paths = (
{
closed = 1;
nodes = (
"348 -14 OFFCURVE",
"414 13 OFFCURVE",
"473 53 CURVE {\"Letterink-NibData\" = {ValidForParentWidth = 21;};}",
"450 116 LINE {\"Letterink-NibData\" = {ValidForParentWidth = 21;};}",
"401 85 OFFCURVE",
"351 63 OFFCURVE",
"302 48 CURVE {\"Letterink-NibData\" = {ValidForParentWidth = 21;};}",
"176 68 OFFCURVE",
"133 151 OFFCURVE",
"133 299 CURVE SMOOTH {\"Letterink-NibData\" = {ValidForParentWidth = 21;};}",
"133 411 OFFCURVE",
"175 461 OFFCURVE",
"271 463 CURVE {\"Letterink-NibData\" = {ValidForParentWidth = 21;};}",
"335 448 OFFCURVE",
"401 419 OFFCURVE",
"438 392 CURVE {\"Letterink-NibData\" = {ValidForParentWidth = 21;};}",
"466 460 LINE {\"Letterink-NibData\" = {ValidForParentWidth = 21;};}",
"435 486 OFFCURVE",
"354 529 OFFCURVE",
"291 529 CURVE SMOOTH {\"Letterink-NibData\" = {ValidForParentWidth = 21;};}",
"146 529 OFFCURVE",
"45 417 OFFCURVE",
"45 257 CURVE SMOOTH {\"Letterink-NibData\" = {ValidForParentWidth = 21;};}",
"45 98 OFFCURVE",
"146 -14 OFFCURVE",
"285 -14 CURVE SMOOTH {\"Letterink-NibData\" = {ValidForParentWidth = 21;};}"
);
}
);
width = 513;
},
{
anchors = (
{
name = "#bottom";
position = "{285, 0}";
},
{
name = "#top";
position = "{271, 505}";
}
);
background = {
paths = (
{
closed = 1;
nodes = (
"392 49 OFFCURVE",
"329 30 OFFCURVE",
"280 22 CURVE",
"152 41 OFFCURVE",
"102 113 OFFCURVE",
"101 279 CURVE SMOOTH",
"103 409 OFFCURVE",
"197 483 OFFCURVE",
"289 483 CURVE",
"332 473 OFFCURVE",
"385 456 OFFCURVE",
"434 431 CURVE",
"448 473 LINE",
"402 500 OFFCURVE",
"346 515 OFFCURVE",
"293 517 CURVE SMOOTH",
"159 522 OFFCURVE",
"61 415 OFFCURVE",
"61 255 CURVE SMOOTH",
"61 108 OFFCURVE",
"128 -14 OFFCURVE",
"283 -14 CURVE SMOOTH",
"332 -14 OFFCURVE",
"410 8 OFFCURVE",
"462 43 CURVE",
"450 79 LINE"
);
}
);
};
guideLines = (
{
angle = 108.3085;
position = "{341, 406}";
},
{
angle = 71.6915;
position = "{426, 406}";
}
);
layerId = "FA803571-32C9-4FEE-972F-1FEF49B82217";
paths = (
{
closed = 1;
nodes = (
"331 -14 OFFCURVE",
"409 8 OFFCURVE",
"461 43 CURVE",
"449 79 LINE",
"391 49 OFFCURVE",
"330 30 OFFCURVE",
"281 22 CURVE",
"156 31 OFFCURVE",
"101 124 OFFCURVE",
"100 283 CURVE SMOOTH",
"99 412 OFFCURVE",
"153 472 OFFCURVE",
"280 484 CURVE",
"323 474 OFFCURVE",
"378 460 OFFCURVE",
"427 435 CURVE",
"441 475 LINE",
"395 502 OFFCURVE",
"339 517 OFFCURVE",
"286 519 CURVE",
"141 519 OFFCURVE",
"60 417 OFFCURVE",
"60 257 CURVE SMOOTH",
"60 98 OFFCURVE",
"141 -14 OFFCURVE",
"280 -14 CURVE SMOOTH"
);
}
);
width = 521;
},
{
anchors = (
{
name = "#bottom";
position = "{275, 0}";
},
{
name = "#top";
position = "{276, 520}";
}
);
layerId = "494556E7-144A-4E25-B9FC-0C21051BD184";
paths = (
{
closed = 1;
nodes = (
"373 -14 OFFCURVE",
"447 7 OFFCURVE",
"519 42 CURVE",
"473 176 LINE",
"425 159 OFFCURVE",
"380 146 OFFCURVE",
"325 137 CURVE",
"255 152 OFFCURVE",
"227 197 OFFCURVE",
"227 270 CURVE SMOOTH",
"227 339 OFFCURVE",
"251 372 OFFCURVE",
"320 387 CURVE",
"375 375 OFFCURVE",
"417 360 OFFCURVE",
"465 338 CURVE",
"513 483 LINE",
"441 518 OFFCURVE",
"376 534 OFFCURVE",
"287 534 CURVE SMOOTH",
"128 534 OFFCURVE",
"25 420 OFFCURVE",
"25 264 CURVE SMOOTH",
"25 98 OFFCURVE",
"115 -14 OFFCURVE",
"284 -14 CURVE SMOOTH"
);
}
);
width = 549;
}
);
leftKerningGroup = o;
leftMetricsKey = O;
note = c;
unicode = 0063;
},
{
color = 5;
glyphname = d;
lastChange = "2023-10-03 14:31:53 +0000";
layers = (
{
background = {
paths = (
{
closed = 1;
nodes = (
"413 109 LINE",
"428 109 LINE",
"428 83 OFFCURVE",
"457 11 OFFCURVE",
"477 -14 CURVE",
"545 9 LINE",
"525 44 OFFCURVE",
"501 135 OFFCURVE",
"501 188 CURVE SMOOTH",
"501 770 LINE",
"413 770 LINE"
);
},
{
closed = 1;
nodes = (
"428 452 LINE",
"371 499 OFFCURVE",
"307 528 OFFCURVE",
"257 528 CURVE SMOOTH",
"138 528 OFFCURVE",
"47 391 OFFCURVE",
"45 241 CURVE SMOOTH",
"43 112 OFFCURVE",
"122 -14 OFFCURVE",
"257 -14 CURVE SMOOTH",
"323 -14 OFFCURVE",
"398 35 OFFCURVE",
"486 102 CURVE",
"466 161 LINE",
"405 112 OFFCURVE",
"327 64 OFFCURVE",
"275 64 CURVE SMOOTH",
"173 64 OFFCURVE",
"132 180 OFFCURVE",
"132 278 CURVE SMOOTH",
"132 383 OFFCURVE",
"178 441 OFFCURVE",
"237 469 CURVE",
"287 462 OFFCURVE",
"362 416 OFFCURVE",
"424 365 CURVE"
);
}
);
};
guideLines = (
{
angle = 18.3085;
position = "{97, -139}";
}
);
layerId = master01;
paths = (
{
closed = 1;
nodes = (
"332 -14 OFFCURVE",
"401 35 OFFCURVE",
"489 102 CURVE {\"Letterink-NibData\" = {ValidForParentWidth = 21;};}",
"469 161 LINE {\"Letterink-NibData\" = {ValidForParentWidth = 21;};}",
"408 112 OFFCURVE",
"330 64 OFFCURVE",
"278 64 CURVE SMOOTH {\"Letterink-NibData\" = {ValidForParentWidth = 21;};}",
"176 64 OFFCURVE",
"133 174 OFFCURVE",
"133 276 CURVE SMOOTH {\"Letterink-NibData\" = {ValidForParentWidth = 21;};}",
"133 391 OFFCURVE",
"179 443 OFFCURVE",
"240 471 CURVE {\"Letterink-NibData\" = {ValidForParentWidth = 21;};}",
"290 464 OFFCURVE",
"365 418 OFFCURVE",
"427 367 CURVE {\"Letterink-NibData\" = {ValidForParentWidth = 21;};}",
"431 461 LINE {\"Letterink-NibData\" = {ValidForParentWidth = 21;};}",
"400 489 OFFCURVE",
"326 529 OFFCURVE",
"270 529 CURVE SMOOTH {\"Letterink-NibData\" = {ValidForParentWidth = 21;};}",
"156 529 OFFCURVE",
"44 401 OFFCURVE",
"45 246 CURVE SMOOTH {\"Letterink-NibData\" = {ValidForParentWidth = 21;};}",
"46 111 OFFCURVE",
"138 -14 OFFCURVE",
"266 -14 CURVE SMOOTH {\"Letterink-NibData\" = {ValidForParentWidth = 21;};}"
);
},
{
closed = 1;
nodes = (
"545 9 LINE {\"Letterink-NibData\" = {ValidForParentWidth = 21;};}",
"525 44 OFFCURVE",
"501 135 OFFCURVE",
"501 188 CURVE SMOOTH {\"Letterink-NibData\" = {ValidForParentWidth = 21;};}",
"501 770 LINE {\"Letterink-NibData\" = {ValidForParentWidth = 21;};}",
"413 770 LINE {\"Letterink-NibData\" = {ValidForParentWidth = 21;};}",
"413 109 LINE {\"Letterink-NibData\" = {ValidForParentWidth = 21;};}",
"428 109 LINE {\"Letterink-NibData\" = {ValidForParentWidth = 21;};}",
"428 83 OFFCURVE",
"457 11 OFFCURVE",
"477 -14 CURVE {\"Letterink-NibData\" = {ValidForParentWidth = 21;};}"
);
}
);
width = 605;
},
{
background = {
paths = (
{
closed = 1;
nodes = (
"444 394 LINE",
"403 464 OFFCURVE",
"342 519 OFFCURVE",
"262 519 CURVE",
"121 519 OFFCURVE",
"60 378 OFFCURVE",
"60 248 CURVE",
"60 113 OFFCURVE",
"145 -14 OFFCURVE",
"240 -14 CURVE",
"310 -14 OFFCURVE",
"415 47 OFFCURVE",
"468 107 CURVE",
"446 136 LINE",
"385 67 OFFCURVE",
"279 22 OFFCURVE",
"232 22 CURVE",
"148 51 OFFCURVE",
"102 180 OFFCURVE",
"102 262 CURVE",
"102 378 OFFCURVE",
"157 483 OFFCURVE",
"263 483 CURVE",
"338 483 OFFCURVE",
"431 392 OFFCURVE",
"444 313 CURVE"
);
},
{
closed = 1;
nodes = (
"432 114 LINE",
"444 114 LINE",
"444 87 OFFCURVE",
"473 13 OFFCURVE",
"494 -13 CURVE",
"521 -4 LINE",
"502 30 OFFCURVE",
"470 109 OFFCURVE",
"470 174 CURVE SMOOTH",
"470 770 LINE",
"432 770 LINE"
);
}
);
};
guideLines = (
{
angle = 18.3085;
position = "{699, 55}";
}
);
layerId = "FA803571-32C9-4FEE-972F-1FEF49B82217";
paths = (
{
closed = 1;
nodes = (
"338 -14 OFFCURVE",
"412 56 OFFCURVE",
"461 98 CURVE",
"442 123 LINE",
"397 86 OFFCURVE",
"330 24 OFFCURVE",
"268 24 CURVE",
"159 24 OFFCURVE",
"102 153 OFFCURVE",
"102 255 CURVE SMOOTH",
"102 401 OFFCURVE",
"174 463 OFFCURVE",
"233 481 CURVE",
"320 469 OFFCURVE",
"385 426 OFFCURVE",
"446 377 CURVE",
"458 418 LINE",
"405 458 OFFCURVE",
"316 519 OFFCURVE",
"246 519 CURVE",
"156 519 OFFCURVE",
"60 408 OFFCURVE",
"60 259 CURVE SMOOTH",
"60 123 OFFCURVE",
"128 -14 OFFCURVE",
"268 -14 CURVE"
);
},
{
closed = 1;
nodes = (
"521 -4 LINE",
"502 30 OFFCURVE",
"470 109 OFFCURVE",
"470 174 CURVE SMOOTH",
"470 770 LINE",
"432 770 LINE",
"432 104 LINE",
"444 104 LINE",
"444 77 OFFCURVE",
"477 13 OFFCURVE",
"494 -13 CURVE"
);
}
);
width = 584;
},
{
layerId = "494556E7-144A-4E25-B9FC-0C21051BD184";
paths = (
{
closed = 1;
nodes = (
"299 -13 OFFCURVE",
"409 50 OFFCURVE",
"509 172 CURVE",
"477 339 LINE",
"454 234 OFFCURVE",
"372 165 OFFCURVE",
"311 165 CURVE SMOOTH",
"270 165 OFFCURVE",
"239 195 OFFCURVE",
"239 264 CURVE SMOOTH",
"239 309 OFFCURVE",
"257 360 OFFCURVE",
"296 388 CURVE",
"342 380 OFFCURVE",
"391 345 OFFCURVE",
"441 249 CURVE",
"441 395 LINE",
"384 489 OFFCURVE",
"333 535 OFFCURVE",
"254 535 CURVE SMOOTH",
"112 535 OFFCURVE",
"35 390 OFFCURVE",
"35 240 CURVE SMOOTH",
"35 105 OFFCURVE",
"93 -13 OFFCURVE",
"210 -13 CURVE SMOOTH"
);
},
{
closed = 1;
nodes = (
"596 26 LINE",
"569 78 OFFCURVE",
"562 139 OFFCURVE",
"562 208 CURVE SMOOTH",
"562 769 LINE",
"362 769 LINE",
"362 94 LINE",
"399 94 LINE",
"399 74 OFFCURVE",
"439 9 OFFCURVE",
"455 -14 CURVE"
);
}
);
width = 641;
}
);
leftKerningGroup = o;
leftMetricsKey = o;
note = d;
unicode = 0064;
},
{
color = 5;
glyphname = e;
lastChange = "2023-10-03 14:31:53 +0000";
layers = (
{
anchors = (
{
name = "#top";
position = "{293, 515}";
}
);
background = {
paths = (
{
closed = 1;
nodes = (
"401 85 OFFCURVE",
"351 63 OFFCURVE",
"302 48 CURVE {\"Letterink-NibData\" = {ValidForParentWidth = 21;};}",
"176 68 OFFCURVE",
"133 151 OFFCURVE",
"133 299 CURVE SMOOTH {\"Letterink-NibData\" = {ValidForParentWidth = 21;};}",
"133 406 OFFCURVE",
"171 465 OFFCURVE",
"272 465 CURVE SMOOTH {\"Letterink-NibData\" = {ValidForParentWidth = 21;};}",
"386 465 OFFCURVE",
"398 406 OFFCURVE",
"402 275 CURVE {\"Letterink-NibData\" = {ValidForParentWidth = 21;};}",
"428 322 LINE {\"Letterink-NibData\" = {ValidForParentWidth = 21;};}",
"331 306 OFFCURVE",
"216 301 OFFCURVE",
"114 301 CURVE {\"Letterink-NibData\" = {ValidForParentWidth = 21;};}",
"108 243 LINE {\"Letterink-NibData\" = {ValidForParentWidth = 21;};}",
"225 246 OFFCURVE",
"349 253 OFFCURVE",
"462 268 CURVE {\"Letterink-NibData\" = {ValidForParentWidth = 21;};}",
"482 325 LINE {\"Letterink-NibData\" = {ValidForParentWidth = 21;};}",
"477 452 OFFCURVE",
"400 529 OFFCURVE",
"293 529 CURVE SMOOTH {\"Letterink-NibData\" = {ValidForParentWidth = 21;};}",
"148 529 OFFCURVE",
"45 417 OFFCURVE",
"45 257 CURVE SMOOTH {\"Letterink-NibData\" = {ValidForParentWidth = 21;};}",
"45 98 OFFCURVE",
"146 -14 OFFCURVE",
"285 -14 CURVE SMOOTH {\"Letterink-NibData\" = {ValidForParentWidth = 21;};}",
"348 -14 OFFCURVE",
"414 13 OFFCURVE",
"473 53 CURVE {\"Letterink-NibData\" = {ValidForParentWidth = 21;};}",
"450 116 LINE {\"Letterink-NibData\" = {ValidForParentWidth = 21;};}"
);
}
);
};
guideLines = (
{
angle = 108.3085;
position = "{354, 406}";
},
{
angle = 71.6915;
position = "{509, 406}";
}
);
layerId = master01;
paths = (
{
closed = 1;
nodes = (
"348 -14 OFFCURVE",
"413 13 OFFCURVE",
"472 53 CURVE {\"Letterink-NibData\" = {ValidForParentWidth = 21;};}",
"450 116 LINE {\"Letterink-NibData\" = {ValidForParentWidth = 21;};}",
"401 85 OFFCURVE",
"351 63 OFFCURVE",
"302 48 CURVE {\"Letterink-NibData\" = {ValidForParentWidth = 21;};}",
"176 68 OFFCURVE",
"133 151 OFFCURVE",
"133 299 CURVE SMOOTH {\"Letterink-NibData\" = {ValidForParentWidth = 21;};}",
"133 406 OFFCURVE",
"171 465 OFFCURVE",
"272 465 CURVE SMOOTH {\"Letterink-NibData\" = {ValidForParentWidth = 21;};}",
"386 465 OFFCURVE",
"398 406 OFFCURVE",
"402 275 CURVE {\"Letterink-NibData\" = {ValidForParentWidth = 21;};}",
"428 322 LINE {\"Letterink-NibData\" = {ValidForParentWidth = 21;};}",
"331 306 OFFCURVE",
"216 301 OFFCURVE",
"114 301 CURVE {\"Letterink-NibData\" = {ValidForParentWidth = 21;};}",
"108 243 LINE {\"Letterink-NibData\" = {ValidForParentWidth = 21;};}",
"225 246 OFFCURVE",
"349 253 OFFCURVE",
"462 268 CURVE {\"Letterink-NibData\" = {ValidForParentWidth = 21;};}",
"482 325 LINE {\"Letterink-NibData\" = {ValidForParentWidth = 21;};}",
"477 452 OFFCURVE",
"400 529 OFFCURVE",
"293 529 CURVE SMOOTH {\"Letterink-NibData\" = {ValidForParentWidth = 21;};}",
"148 529 OFFCURVE",
"45 417 OFFCURVE",
"45 257 CURVE SMOOTH {\"Letterink-NibData\" = {ValidForParentWidth = 21;};}",
"45 98 OFFCURVE",
"146 -14 OFFCURVE",
"285 -14 CURVE SMOOTH {\"Letterink-NibData\" = {ValidForParentWidth = 21;};}"
);
}
);
width = 527;
},
{
anchors = (
{
name = "#top";
position = "{269, 505}";
}
);
background = {
paths = (
{
closed = 1;
nodes = (
"393 49 OFFCURVE",
"330 30 OFFCURVE",
"281 22 CURVE",
"153 41 OFFCURVE",
"101 117 OFFCURVE",
"100 283 CURVE SMOOTH",
"99 411 OFFCURVE",
"172 482 OFFCURVE",
"277 482 CURVE SMOOTH",
"383 482 OFFCURVE",
"427 414 OFFCURVE",
"427 286 CURVE",
"445 313 LINE",
"334 295 OFFCURVE",
"186 291 OFFCURVE",
"75 291 CURVE",
"78 252 LINE",
"192 255 OFFCURVE",
"344 260 OFFCURVE",
"454 275 CURVE",
"466 311 LINE",
"461 436 OFFCURVE",
"396 518 OFFCURVE",
"289 518 CURVE SMOOTH",
"141 518 OFFCURVE",
"60 430 OFFCURVE",
"60 259 CURVE SMOOTH",
"60 112 OFFCURVE",
"127 -14 OFFCURVE",
"282 -14 CURVE SMOOTH",
"333 -14 OFFCURVE",
"411 8 OFFCURVE",
"463 43 CURVE",
"451 79 LINE"
);
}
);
};
guideLines = (
{
angle = 108.3085;
position = "{340, 406}";
},
{
angle = 71.6915;
position = "{497, 406}";
}
);
layerId = "FA803571-32C9-4FEE-972F-1FEF49B82217";
paths = (
{
closed = 1;
nodes = (
"331 -14 OFFCURVE",
"409 8 OFFCURVE",
"461 43 CURVE",
"449 79 LINE",
"391 49 OFFCURVE",
"330 30 OFFCURVE",
"281 22 CURVE",
"156 31 OFFCURVE",
"101 124 OFFCURVE",
"100 283 CURVE SMOOTH",
"99 411 OFFCURVE",
"172 482 OFFCURVE",
"277 482 CURVE SMOOTH",
"383 482 OFFCURVE",
"427 414 OFFCURVE",
"427 286 CURVE",
"445 313 LINE",
"334 295 OFFCURVE",
"186 291 OFFCURVE",
"75 291 CURVE",
"78 252 LINE",
"192 255 OFFCURVE",
"344 260 OFFCURVE",
"454 275 CURVE",
"466 311 LINE",
"461 436 OFFCURVE",
"396 518 OFFCURVE",
"289 518 CURVE SMOOTH",
"141 518 OFFCURVE",
"60 428 OFFCURVE",
"60 257 CURVE SMOOTH",
"60 98 OFFCURVE",
"141 -14 OFFCURVE",
"280 -14 CURVE SMOOTH"
);
}
);
width = 526;
},
{
anchors = (
{
name = "#top";
position = "{287, 520}";
}
);
layerId = "494556E7-144A-4E25-B9FC-0C21051BD184";
paths = (
{
closed = 1;
nodes = (
"396 -14 OFFCURVE",
"468 13 OFFCURVE",
"537 47 CURVE",
"493 181 LINE",
"442 163 OFFCURVE",
"394 148 OFFCURVE",
"335 139 CURVE",
"265 154 OFFCURVE",
"237 196 OFFCURVE",
"237 269 CURVE SMOOTH",
"237 383 OFFCURVE",
"255 418 OFFCURVE",
"305 418 CURVE SMOOTH",
"365 418 OFFCURVE",
"365 378 OFFCURVE",
"364 270 CURVE",
"382 325 LINE",
"339 319 OFFCURVE",
"235 321 OFFCURVE",
"210 325 CURVE",
"210 217 LINE",
"326 220 OFFCURVE",
"385 226 OFFCURVE",
"518 241 CURVE",
"538 299 LINE",
"533 417 OFFCURVE",
"494 534 OFFCURVE",
"305 534 CURVE SMOOTH",
"136 534 OFFCURVE",
"35 424 OFFCURVE",
"35 254 CURVE SMOOTH",
"35 98 OFFCURVE",
"126 -14 OFFCURVE",
"297 -14 CURVE SMOOTH"
);
}
);
width = 578;
}
);
leftKerningGroup = o;
leftMetricsKey = o;
note = e;
unicode = 0065;
},
{
color = 1;
glyphname = f;
lastChange = "2023-10-03 14:31:53 +0000";
layers = (
{
background = {
paths = (
{
closed = 1;
nodes = (
"215 0 LINE",
"215 616 LINE SMOOTH",
"215 639 OFFCURVE",
"215 690 OFFCURVE",
"238 713 CURVE",
"285 709 OFFCURVE",
"346 688 OFFCURVE",
"403 661 CURVE",
"425 728 LINE",
"371 755 OFFCURVE",
"274 784 OFFCURVE",
"224 784 CURVE SMOOTH",
"152 784 OFFCURVE",
"130 709 OFFCURVE",
"130 627 CURVE SMOOTH",
"130 0 LINE"
);
},
{
closed = 1;
nodes = (
"369 448 LINE",
"391 515 LINE",
"35 515 LINE",
"35 448 LINE"
);
},
{
closed = 1;
nodes = (
"41 254 LINE",
"396 254 LINE",
"374 321 LINE",
"41 321 LINE"
);
},
{
closed = 1;
nodes = (
"41 254 LINE",
"396 254 LINE",
"374 321 LINE",
"41 321 LINE"
);
},
{
closed = 1;
nodes = (
"221 90 LINE",
"221 606 LINE SMOOTH",
"221 649 OFFCURVE",
"226 700 OFFCURVE",
"238 713 CURVE",
"275 714 OFFCURVE",
"338 685 OFFCURVE",
"376 660 CURVE",
"399 729 LINE",
"352 762 OFFCURVE",
"304 783 OFFCURVE",
"231 783 CURVE SMOOTH",
"153 783 OFFCURVE",
"135 715 OFFCURVE",
"135 630 CURVE SMOOTH",
"135 90 LINE"
);
}
);
};
guideLines = (
{
angle = 71.6915;
position = "{355, 405}";
}
);
layerId = master01;
paths = (
{
closed = 1;
nodes = (
"215 0 LINE {\"Letterink-NibData\" = {ValidForParentWidth = 21;};}",
"215 616 LINE SMOOTH {\"Letterink-NibData\" = {ValidForParentWidth = 21;};}",
"215 639 OFFCURVE",
"218 701 OFFCURVE",
"233 713 CURVE {\"Letterink-NibData\" = {ValidForParentWidth = 21;};}",
"280 709 OFFCURVE",
"346 688 OFFCURVE",
"403 661 CURVE {\"Letterink-NibData\" = {ValidForParentWidth = 21;};}",
"425 728 LINE {\"Letterink-NibData\" = {ValidForParentWidth = 21;};}",
"371 755 OFFCURVE",
"274 784 OFFCURVE",
"224 784 CURVE SMOOTH {\"Letterink-NibData\" = {ValidForParentWidth = 21;};}",
"152 784 OFFCURVE",
"130 709 OFFCURVE",
"130 627 CURVE SMOOTH {\"Letterink-NibData\" = {ValidForParentWidth = 21;};}",
"130 0 LINE {\"Letterink-NibData\" = {ValidForParentWidth = 21;};}"
);
},
{
closed = 1;
nodes = (
"369 448 LINE {\"Letterink-NibData\" = {ValidForParentWidth = 21;};}",
"391 515 LINE {\"Letterink-NibData\" = {ValidForParentWidth = 21;};}",
"35 515 LINE {\"Letterink-NibData\" = {ValidForParentWidth = 21;};}",
"35 448 LINE {\"Letterink-NibData\" = {ValidForParentWidth = 21;};}"
);
}
);
width = 415;
},
{
guideLines = (
{
angle = 71.6915;
position = "{310, 406}";
}
);
layerId = "FA803571-32C9-4FEE-972F-1FEF49B82217";
paths = (
{
closed = 1;
nodes = (
"153 1 LINE",
"153 627 LINE SMOOTH",
"153 660 OFFCURVE",
"156 721 OFFCURVE",
"185 744 CURVE",
"235 744 OFFCURVE",
"294 726 OFFCURVE",
"350 694 CURVE",
"362 730 LINE",
"308 763 OFFCURVE",
"222 784 OFFCURVE",
"189 784 CURVE SMOOTH",
"147 784 OFFCURVE",
"115 720 OFFCURVE",
"115 638 CURVE SMOOTH",
"115 1 LINE"
);
},
{
closed = 1;
nodes = (
"332 474 LINE",
"343 505 LINE",
"30 505 LINE",
"30 474 LINE"
);
}
);
width = 355;
},
{
layerId = "494556E7-144A-4E25-B9FC-0C21051BD184";
paths = (
{
closed = 1;
nodes = (
"315 0 LINE",
"315 496 LINE SMOOTH",
"315 552 OFFCURVE",
"320 615 OFFCURVE",
"339 642 CURVE",
"372 640 OFFCURVE",
"437 625 OFFCURVE",
"482 602 CURVE",
"525 730 LINE",
"450 763 OFFCURVE",
"349 783 OFFCURVE",
"290 783 CURVE SMOOTH",
"174 783 OFFCURVE",
"115 704 OFFCURVE",
"115 544 CURVE SMOOTH",
"115 0 LINE"
);
},
{
closed = 1;
nodes = (
"420 390 LINE",
"465 520 LINE",
"30 520 LINE",
"30 390 LINE"
);
}
);
width = 483;
}
);
note = f;
unicode = 0066;
},
{
color = 5;
glyphname = g;
lastChange = "2023-10-03 14:31:53 +0000";
layers = (
{
background = {
paths = (
{
closed = 1;
nodes = (
"151 -210 OFFCURVE",
"239 -244 OFFCURVE",
"302 -244 CURVE SMOOTH",
"413 -244 OFFCURVE",
"502 -129 OFFCURVE",
"502 35 CURVE SMOOTH",
"502 346 LINE SMOOTH",
"502 402 OFFCURVE",
"509 454 OFFCURVE",
"517 505 CURVE",
"445 527 LINE",
"414 405 LINE",
"414 41 LINE SMOOTH",
"414 -75 OFFCURVE",
"394 -143 OFFCURVE",
"337 -175 CURVE",
"254 -172 OFFCURVE",
"168 -128 OFFCURVE",
"109 -86 CURVE",
"84 -159 LINE"
);
},
{
closed = 1;
nodes = (
"405 112 OFFCURVE",
"327 64 OFFCURVE",
"275 64 CURVE SMOOTH",
"173 64 OFFCURVE",
"132 180 OFFCURVE",
"132 278 CURVE SMOOTH",
"132 383 OFFCURVE",
"178 441 OFFCURVE",
"237 469 CURVE",
"287 462 OFFCURVE",
"362 416 OFFCURVE",
"424 365 CURVE",
"428 452 LINE",
"371 499 OFFCURVE",
"307 528 OFFCURVE",
"257 528 CURVE SMOOTH",
"138 528 OFFCURVE",
"45 391 OFFCURVE",
"45 241 CURVE SMOOTH",
"43 112 OFFCURVE",
"122 -14 OFFCURVE",
"257 -14 CURVE SMOOTH",
"323 -14 OFFCURVE",
"398 35 OFFCURVE",
"486 102 CURVE",
"466 161 LINE"
);
}
);
};
guideLines = (
{
angle = 161.6915;
position = "{198, 609}";
},
{
angle = 72.2553;
position = "{96, -125}";
}
);
layerId = master01;
paths = (
{
closed = 1;
nodes = (
"413 -244 OFFCURVE",
"502 -129 OFFCURVE",
"502 35 CURVE SMOOTH {\"Letterink-NibData\" = {ValidForParentWidth = 21;};}",
"502 346 LINE SMOOTH {\"Letterink-NibData\" = {ValidForParentWidth = 21;};}",
"502 402 OFFCURVE",
"509 454 OFFCURVE",
"517 505 CURVE {\"Letterink-NibData\" = {ValidForParentWidth = 21;};}",
"445 527 LINE {\"Letterink-NibData\" = {ValidForParentWidth = 21;};}",
"414 405 LINE {\"Letterink-NibData\" = {ValidForParentWidth = 21;};}",
"414 41 LINE SMOOTH {\"Letterink-NibData\" = {ValidForParentWidth = 21;};}",
"414 -75 OFFCURVE",
"394 -143 OFFCURVE",
"337 -175 CURVE {\"Letterink-NibData\" = {ValidForParentWidth = 21;};}",
"254 -172 OFFCURVE",
"168 -128 OFFCURVE",
"109 -86 CURVE {\"Letterink-NibData\" = {ValidForParentWidth = 21;};}",
"84 -159 LINE {\"Letterink-NibData\" = {ValidForParentWidth = 21;};}",
"151 -210 OFFCURVE",
"239 -244 OFFCURVE",
"302 -244 CURVE SMOOTH {\"Letterink-NibData\" = {ValidForParentWidth = 21;};}"
);
},
{
closed = 1;
nodes = (
"332 -14 OFFCURVE",
"401 35 OFFCURVE",
"489 102 CURVE {\"Letterink-NibData\" = {ValidForParentWidth = 21;};}",
"469 161 LINE {\"Letterink-NibData\" = {ValidForParentWidth = 21;};}",
"408 112 OFFCURVE",
"330 64 OFFCURVE",
"278 64 CURVE SMOOTH {\"Letterink-NibData\" = {ValidForParentWidth = 21;};}",
"176 64 OFFCURVE",
"133 174 OFFCURVE",
"133 276 CURVE SMOOTH {\"Letterink-NibData\" = {ValidForParentWidth = 21;};}",
"133 391 OFFCURVE",
"179 443 OFFCURVE",
"240 471 CURVE {\"Letterink-NibData\" = {ValidForParentWidth = 21;};}",
"290 464 OFFCURVE",
"365 418 OFFCURVE",
"427 367 CURVE {\"Letterink-NibData\" = {ValidForParentWidth = 21;};}",
"431 461 LINE {\"Letterink-NibData\" = {ValidForParentWidth = 21;};}",
"400 489 OFFCURVE",
"326 529 OFFCURVE",
"270 529 CURVE SMOOTH {\"Letterink-NibData\" = {ValidForParentWidth = 21;};}",
"156 529 OFFCURVE",
"44 401 OFFCURVE",
"45 246 CURVE SMOOTH {\"Letterink-NibData\" = {ValidForParentWidth = 21;};}",
"46 111 OFFCURVE",
"138 -14 OFFCURVE",
"266 -14 CURVE SMOOTH {\"Letterink-NibData\" = {ValidForParentWidth = 21;};}"
);
}
);
width = 567;
},
{
background = {
paths = (
{
closed = 1;
nodes = (
"397 -244 OFFCURVE",
"470 -151 OFFCURVE",
"470 5 CURVE SMOOTH",
"470 377 LINE SMOOTH",
"470 413 OFFCURVE",
"474 457 OFFCURVE",
"485 508 CURVE",
"455 518 LINE",
"432 414 LINE",
"432 15 LINE SMOOTH",
"432 -122 OFFCURVE",
"376 -182 OFFCURVE",
"310 -206 CURVE",
"230 -206 OFFCURVE",
"171 -178 OFFCURVE",
"114 -118 CURVE",
"94 -155 LINE",
"141 -212 OFFCURVE",
"221 -244 OFFCURVE",
"277 -244 CURVE SMOOTH"
);
},
{
closed = 1;
nodes = (
"310 -14 OFFCURVE",
"415 47 OFFCURVE",
"468 107 CURVE",
"446 136 LINE",
"385 67 OFFCURVE",
"279 22 OFFCURVE",
"232 22 CURVE",
"148 51 OFFCURVE",
"102 180 OFFCURVE",
"102 262 CURVE",
"102 378 OFFCURVE",
"157 483 OFFCURVE",
"263 483 CURVE",
"338 483 OFFCURVE",
"431 392 OFFCURVE",
"444 313 CURVE",
"444 394 LINE",
"403 464 OFFCURVE",
"342 519 OFFCURVE",
"262 519 CURVE",
"121 519 OFFCURVE",
"60 378 OFFCURVE",
"60 248 CURVE",
"60 113 OFFCURVE",
"145 -14 OFFCURVE",
"240 -14 CURVE"
);
}
);
};
guideLines = (
{
angle = 71.6915;
position = "{287, 406}";
},
{
angle = 161.6915;
position = "{196, 603}";
}
);
layerId = "FA803571-32C9-4FEE-972F-1FEF49B82217";
paths = (
{
closed = 1;
nodes = (
"397 -244 OFFCURVE",
"470 -151 OFFCURVE",
"470 5 CURVE SMOOTH",
"470 377 LINE SMOOTH",
"470 413 OFFCURVE",
"474 456 OFFCURVE",
"485 507 CURVE",
"455 517 LINE",
"432 414 LINE",
"432 15 LINE SMOOTH",
"432 -122 OFFCURVE",
"376 -182 OFFCURVE",
"310 -206 CURVE",
"230 -206 OFFCURVE",
"171 -178 OFFCURVE",
"114 -118 CURVE",
"100 -161 LINE",
"147 -214 OFFCURVE",
"223 -244 OFFCURVE",
"277 -244 CURVE SMOOTH"
);
},
{
closed = 1;
nodes = (
"338 -14 OFFCURVE",
"412 56 OFFCURVE",
"461 98 CURVE",
"442 123 LINE",
"397 86 OFFCURVE",
"330 24 OFFCURVE",
"268 24 CURVE",
"159 24 OFFCURVE",
"102 153 OFFCURVE",
"102 255 CURVE SMOOTH",
"102 401 OFFCURVE",
"174 463 OFFCURVE",
"233 481 CURVE",
"320 469 OFFCURVE",
"385 426 OFFCURVE",
"446 377 CURVE",
"458 418 LINE",
"405 458 OFFCURVE",
"316 519 OFFCURVE",
"246 519 CURVE",
"156 519 OFFCURVE",
"60 408 OFFCURVE",
"60 259 CURVE SMOOTH",
"60 123 OFFCURVE",
"128 -14 OFFCURVE",
"268 -14 CURVE"
);
}
);
width = 574;
},
{
background = {
paths = (
{
closed = 1;
nodes = (
"134 -214 OFFCURVE",
"218 -244 OFFCURVE",
"328 -244 CURVE SMOOTH",
"475 -244 OFFCURVE",
"562 -178 OFFCURVE",
"566 50 CURVE SMOOTH",
"566 282 LINE SMOOTH",
"566 351 OFFCURVE",
"575 397 OFFCURVE",
"592 477 CURVE",
"421 534 LINE",
"366 394 LINE",
"366 21 LINE SMOOTH",
"366 -35 OFFCURVE",
"360 -92 OFFCURVE",
"329 -107 CURVE",
"241 -104 OFFCURVE",
"166 -67 OFFCURVE",
"109 -32 CURVE",
"67 -160 LINE"
);
},
{
closed = 1;
nodes = (
"454 234 OFFCURVE",
"373 147 OFFCURVE",
"312 147 CURVE SMOOTH",
"268 147 OFFCURVE",
"239 181 OFFCURVE",
"239 251 CURVE SMOOTH",
"239 296 OFFCURVE",
"257 360 OFFCURVE",
"296 388 CURVE",
"342 380 OFFCURVE",
"391 332 OFFCURVE",
"441 249 CURVE",
"441 395 LINE",
"384 489 OFFCURVE",
"333 535 OFFCURVE",
"254 535 CURVE SMOOTH",
"112 535 OFFCURVE",
"35 396 OFFCURVE",
"35 246 CURVE SMOOTH",
"35 101 OFFCURVE",
"100 -13 OFFCURVE",
"216 -13 CURVE SMOOTH",
"306 -13 OFFCURVE",
"409 50 OFFCURVE",
"509 172 CURVE",
"477 339 LINE"
);
}
);
};
layerId = "494556E7-144A-4E25-B9FC-0C21051BD184";
paths = (
{
closed = 1;
nodes = (
"475 -244 OFFCURVE",
"562 -178 OFFCURVE",
"566 50 CURVE SMOOTH",
"566 282 LINE SMOOTH",
"566 351 OFFCURVE",
"575 397 OFFCURVE",
"592 477 CURVE",
"421 534 LINE",
"366 394 LINE",
"366 21 LINE SMOOTH",
"366 -35 OFFCURVE",
"360 -92 OFFCURVE",
"329 -107 CURVE",
"241 -104 OFFCURVE",
"166 -67 OFFCURVE",
"109 -32 CURVE",
"67 -160 LINE",
"134 -214 OFFCURVE",
"218 -244 OFFCURVE",
"328 -244 CURVE SMOOTH"
);
},
{
closed = 1;
nodes = (
"306 -13 OFFCURVE",
"409 50 OFFCURVE",
"509 172 CURVE",
"477 339 LINE",
"454 234 OFFCURVE",
"373 147 OFFCURVE",
"312 147 CURVE SMOOTH",
"268 147 OFFCURVE",
"239 181 OFFCURVE",
"239 251 CURVE SMOOTH",
"239 296 OFFCURVE",
"257 360 OFFCURVE",
"296 388 CURVE",
"342 380 OFFCURVE",
"391 332 OFFCURVE",
"441 249 CURVE",
"441 395 LINE",
"384 489 OFFCURVE",
"333 535 OFFCURVE",
"254 535 CURVE SMOOTH",
"112 535 OFFCURVE",
"35 396 OFFCURVE",
"35 246 CURVE SMOOTH",
"35 101 OFFCURVE",
"100 -13 OFFCURVE",
"216 -13 CURVE SMOOTH"
);
}
);
width = 638;
}
);
leftMetricsKey = o;
note = g;
unicode = 0067;
},
{
color = 5;
glyphname = h;
lastChange = "2023-10-03 14:31:53 +0000";
layers = (
{
background = {
paths = (
{
closed = 1;
nodes = (
"93 0 LINE",
"181 0 LINE",
"181 770 LINE",
"93 770 LINE"
);
},
{
closed = 1;
nodes = (
"503 0 LINE",
"503 376 LINE SMOOTH",
"503 461 OFFCURVE",
"484 529 OFFCURVE",
"406 529 CURVE SMOOTH",
"335 529 OFFCURVE",
"196 488 OFFCURVE",
"149 452 CURVE",
"172 388 LINE",
"211 419 OFFCURVE",
"343 462 OFFCURVE",
"394 458 CURVE",
"413 438 OFFCURVE",
"415 406 OFFCURVE",
"415 363 CURVE SMOOTH",
"415 0 LINE"
);
}
);
};
layerId = master01;
paths = (
{
closed = 1;
nodes = (
"503 0 LINE {\"Letterink-NibData\" = {ValidForParentWidth = 21;};}",
"503 376 LINE SMOOTH {\"Letterink-NibData\" = {ValidForParentWidth = 21;};}",
"503 461 OFFCURVE",
"484 529 OFFCURVE",
"406 529 CURVE SMOOTH {\"Letterink-NibData\" = {ValidForParentWidth = 21;};}",
"335 529 OFFCURVE",
"196 488 OFFCURVE",
"149 452 CURVE {\"Letterink-NibData\" = {ValidForParentWidth = 21;};}",
"172 388 LINE {\"Letterink-NibData\" = {ValidForParentWidth = 21;};}",
"211 419 OFFCURVE",
"343 462 OFFCURVE",
"394 458 CURVE {\"Letterink-NibData\" = {ValidForParentWidth = 21;};}",
"413 438 OFFCURVE",
"415 406 OFFCURVE",
"415 363 CURVE SMOOTH {\"Letterink-NibData\" = {ValidForParentWidth = 21;};}",
"415 0 LINE {\"Letterink-NibData\" = {ValidForParentWidth = 21;};}"
);
},
{
closed = 1;
nodes = (
"181 0 LINE {\"Letterink-NibData\" = {ValidForParentWidth = 21;};}",
"181 770 LINE {\"Letterink-NibData\" = {ValidForParentWidth = 21;};}",
"93 770 LINE {\"Letterink-NibData\" = {ValidForParentWidth = 21;};}",
"93 0 LINE {\"Letterink-NibData\" = {ValidForParentWidth = 21;};}"
);
}
);
width = 573;
},
{
layerId = "FA803571-32C9-4FEE-972F-1FEF49B82217";
paths = (
{
closed = 1;
nodes = (
"468 0 LINE",
"468 366 LINE SMOOTH",
"468 449 OFFCURVE",
"438 519 OFFCURVE",
"382 519 CURVE SMOOTH",
"336 519 OFFCURVE",
"164 449 OFFCURVE",
"117 418 CURVE",
"130 391 LINE",
"169 417 OFFCURVE",
"328 484 OFFCURVE",
"389 484 CURVE",
"411 472 OFFCURVE",
"430 434 OFFCURVE",
"430 343 CURVE SMOOTH",
"430 0 LINE"
);
},
{
closed = 1;
nodes = (
"142 0 LINE",
"142 770 LINE",
"104 770 LINE",
"104 0 LINE"
);
}
);
width = 567;
},
{
layerId = "494556E7-144A-4E25-B9FC-0C21051BD184";
paths = (
{
closed = 1;
nodes = (
"576 0 LINE",
"576 346 LINE",
"576 460 OFFCURVE",
"547 535 OFFCURVE",
"447 535 CURVE",
"375 535 OFFCURVE",
"270 475 OFFCURVE",
"212 430 CURVE",
"250 271 LINE",
"273 298 OFFCURVE",
"311 339 OFFCURVE",
"355 339 CURVE",
"376 321 OFFCURVE",
"376 272 OFFCURVE",
"376 239 CURVE",
"376 0 LINE"
);
},
{
closed = 1;
nodes = (
"270 0 LINE",
"270 750 LINE",
"70 750 LINE",
"70 0 LINE"
);
}
);
width = 636;
}
);
note = h;
rightMetricsKey = n;
unicode = 0068;
},
{
color = 5;
glyphname = k;
lastChange = "2023-10-03 14:31:53 +0000";
layers = (
{
background = {
paths = (
{
closed = 1;
nodes = (
"513 0 LINE",
"271 332 LINE",
"198 294 LINE",
"399 0 LINE"
);
},
{
closed = 1;
nodes = (
"93 0 LINE",
"181 0 LINE",
"181 770 LINE",
"93 770 LINE"
);
},
{
closed = 1;
nodes = (
"455 490 LINE",
"379 515 LINE",
"181 308 LINE",
"163 198 LINE"
);
}
);
};
guideLines = (
{
angle = 161.6915;
position = "{281, 547}";
}
);
layerId = master01;
paths = (
{
closed = 1;
nodes = (
"539 0 LINE {\"Letterink-NibData\" = {ValidForParentWidth = 21;};}",
"275 362 LINE {\"Letterink-NibData\" = {ValidForParentWidth = 21;};}",
"224 294 LINE {\"Letterink-NibData\" = {ValidForParentWidth = 21;};}",
"425 0 LINE {\"Letterink-NibData\" = {ValidForParentWidth = 21;};}"
);
},
{
closed = 1;
nodes = (
"181 0 LINE {\"Letterink-NibData\" = {ValidForParentWidth = \"21\";};}",
"181 770 LINE {\"Letterink-NibData\" = {ValidForParentWidth = \"21\";};}",
"93 770 LINE {\"Letterink-NibData\" = {ValidForParentWidth = \"21\";};}",
"93 0 LINE {\"Letterink-NibData\" = {ValidForParentWidth = \"21\";};}"
);
},
{
closed = 1;
nodes = (
"475 490 LINE {\"Letterink-NibData\" = {ValidForParentWidth = \"21\";};}",
"399 515 LINE {\"Letterink-NibData\" = {ValidForParentWidth = \"21\";};}",
"171 302 LINE {\"Letterink-NibData\" = {ValidForParentWidth = \"21\";};}",
"163 198 LINE {\"Letterink-NibData\" = {ValidForParentWidth = \"21\";};}"
);
}
);
width = 559;
},
{
background = {
paths = (
{
closed = 1;
nodes = (
"75 770 LINE",
"75 0 LINE",
"163 0 LINE",
"163 770 LINE"
);
},
{
closed = 1;
nodes = (
"162 203 LINE",
"451 486 LINE",
"361 519 LINE",
"163 308 LINE"
);
},
{
closed = 1;
nodes = (
"180 294 LINE",
"401 0 LINE",
"515 0 LINE",
"253 332 LINE"
);
}
);
};
guideLines = (
{
angle = 161.6915;
position = "{201, 579}";
}
);
layerId = "FA803571-32C9-4FEE-972F-1FEF49B82217";
paths = (
{
closed = 1;
nodes = (
"469 0 LINE",
"210 332 LINE",
"186 304 LINE",
"420 0 LINE"
);
},
{
closed = 1;
nodes = (
"143 0 LINE",
"143 770 LINE",
"105 770 LINE",
"105 0 LINE"
);
},
{
closed = 1;
nodes = (
"424 506 LINE",
"383 519 LINE",
"133 255 LINE",
"121 201 LINE"
);
}
);
width = 499;
},
{
layerId = "494556E7-144A-4E25-B9FC-0C21051BD184";
paths = (
{
closed = 1;
nodes = (
"604 0 LINE",
"402 372 LINE",
"256 314 LINE",
"396 0 LINE"
);
},
{
closed = 1;
nodes = (
"585 476 LINE",
"414 533 LINE",
"187 310 LINE",
"227 147 LINE"
);
},
{
closed = 1;
nodes = (
"270 0 LINE",
"270 770 LINE",
"70 770 LINE",
"70 0 LINE"
);
}
);
width = 610;
}
);
note = k;
unicode = 006B;
},
{
color = 1;
glyphname = l;
lastChange = "2023-10-03 14:31:53 +0000";
layers = (
{
background = {
paths = (
{
closed = 1;
nodes = (
"93 750 LINE",
"93 145 LINE SMOOTH",
"93 89 OFFCURVE",
"102 37 OFFCURVE",
"113 -14 CURVE",
"195 14 LINE",
"187 65 OFFCURVE",
"181 111 OFFCURVE",
"181 167 CURVE SMOOTH",
"181 750 LINE"
);
}
);
};
guideLines = (
{
angle = 18.3085;
position = "{101, -29}";
}
);
layerId = master01;
paths = (
{
closed = 1;
nodes = (
"215 9 LINE {\"Letterink-NibData\" = {ValidForParentWidth = 21;};}",
"195 44 OFFCURVE",
"181 135 OFFCURVE",
"181 188 CURVE SMOOTH {\"Letterink-NibData\" = {ValidForParentWidth = 21;};}",
"181 770 LINE {\"Letterink-NibData\" = {ValidForParentWidth = 21;};}",
"93 770 LINE {\"Letterink-NibData\" = {ValidForParentWidth = 21;};}",
"93 169 LINE SMOOTH {\"Letterink-NibData\" = {ValidForParentWidth = 21;};}",
"93 73 OFFCURVE",
"132 11 OFFCURVE",
"148 -14 CURVE {\"Letterink-NibData\" = {ValidForParentWidth = 21;};}"
);
}
);
width = 281;
},
{
background = {
paths = (
{
closed = 1;
nodes = (
"82 93 OFFCURVE",
"131 11 OFFCURVE",
"147 -14 CURVE",
"214 9 LINE",
"194 44 OFFCURVE",
"170 135 OFFCURVE",
"170 188 CURVE SMOOTH",
"170 770 LINE",
"82 770 LINE",
"82 189 LINE SMOOTH"
);
}
);
};
guideLines = (
{
angle = 18.3085;
position = "{201, 1}";
}
);
layerId = "FA803571-32C9-4FEE-972F-1FEF49B82217";
paths = (
{
closed = 1;
nodes = (
"187 -4 LINE",
"165 33 OFFCURVE",
"147 65 OFFCURVE",
"147 168 CURVE SMOOTH",
"147 770 LINE",
"109 770 LINE",
"109 169 LINE SMOOTH",
"109 53 OFFCURVE",
"138 12 OFFCURVE",
"159 -13 CURVE"
);
}
);
width = 257;
},
{
layerId = "494556E7-144A-4E25-B9FC-0C21051BD184";
paths = (
{
closed = 1;
nodes = (
"308 31 LINE",
"270 96 OFFCURVE",
"270 199 OFFCURVE",
"270 254 CURVE",
"270 770 LINE",
"70 770 LINE",
"70 222 LINE SMOOTH",
"70 76 OFFCURVE",
"117 30 OFFCURVE",
"174 -14 CURVE"
);
}
);
width = 348;
}
);
note = l;
unicode = 006C;
},
{
color = 5;
glyphname = m;
lastChange = "2023-10-03 14:31:53 +0000";
layers = (
{
background = {
paths = (
{
closed = 1;
nodes = (
"158 0 LINE",
"158 394 LINE",
"123 528 LINE",
"55 505 LINE",
"63 454 OFFCURVE",
"70 403 OFFCURVE",
"70 347 CURVE SMOOTH",
"70 0 LINE"
);
},
{
closed = 1;
nodes = (
"468 0 LINE",
"468 376 LINE SMOOTH",
"468 461 OFFCURVE",
"449 529 OFFCURVE",
"371 529 CURVE SMOOTH",
"301 529 OFFCURVE",
"179 477 OFFCURVE",
"126 448 CURVE",
"149 388 LINE",
"190 412 OFFCURVE",
"307 458 OFFCURVE",
"359 458 CURVE",
"378 438 OFFCURVE",
"380 406 OFFCURVE",
"380 363 CURVE SMOOTH",
"380 0 LINE"
);
},
{
closed = 1;
nodes = (
"778 0 LINE",
"778 376 LINE SMOOTH",
"778 461 OFFCURVE",
"759 529 OFFCURVE",
"681 529 CURVE SMOOTH",
"605 529 OFFCURVE",
"470 469 OFFCURVE",
"416 438 CURVE",
"439 378 LINE",
"483 403 OFFCURVE",
"612 458 OFFCURVE",
"669 458 CURVE",
"688 438 OFFCURVE",
"690 406 OFFCURVE",
"690 363 CURVE SMOOTH",
"690 0 LINE"
);
}
);
};
guideLines = (
{
angle = 18.3085;
position = "{76, 514}";
}
);
layerId = master01;
paths = (
{
closed = 1;
nodes = (
"762 0 LINE {\"Letterink-NibData\" = {ValidForParentWidth = 21;};}",
"762 376 LINE SMOOTH {\"Letterink-NibData\" = {ValidForParentWidth = 21;};}",
"762 461 OFFCURVE",
"743 529 OFFCURVE",
"665 529 CURVE SMOOTH {\"Letterink-NibData\" = {ValidForParentWidth = 21;};}",
"594 529 OFFCURVE",
"465 476 OFFCURVE",
"418 440 CURVE {\"Letterink-NibData\" = {ValidForParentWidth = 21;};}",
"441 376 LINE {\"Letterink-NibData\" = {ValidForParentWidth = 21;};}",
"480 407 OFFCURVE",
"602 462 OFFCURVE",
"653 458 CURVE {\"Letterink-NibData\" = {ValidForParentWidth = 21;};}",
"672 438 OFFCURVE",
"674 406 OFFCURVE",
"674 363 CURVE SMOOTH {\"Letterink-NibData\" = {ValidForParentWidth = 21;};}",
"674 0 LINE {\"Letterink-NibData\" = {ValidForParentWidth = 21;};}"
);
},
{
closed = 1;
nodes = (
"158 0 LINE {\"Letterink-NibData\" = {ValidForParentWidth = 21;};}",
"158 394 LINE {\"Letterink-NibData\" = {ValidForParentWidth = 21;};}",
"123 528 LINE {\"Letterink-NibData\" = {ValidForParentWidth = 21;};}",
"55 505 LINE {\"Letterink-NibData\" = {ValidForParentWidth = 21;};}",
"63 454 OFFCURVE",
"70 403 OFFCURVE",
"70 347 CURVE SMOOTH {\"Letterink-NibData\" = {ValidForParentWidth = 21;};}",
"70 0 LINE {\"Letterink-NibData\" = {ValidForParentWidth = 21;};}"
);
},
{
closed = 1;
nodes = (
"453 0 LINE {\"Letterink-NibData\" = {ValidForParentWidth = 21;};}",
"453 386 LINE SMOOTH {\"Letterink-NibData\" = {ValidForParentWidth = 21;};}",
"453 471 OFFCURVE",
"434 529 OFFCURVE",
"356 529 CURVE SMOOTH {\"Letterink-NibData\" = {ValidForParentWidth = 21;};}",
"285 529 OFFCURVE",
"156 474 OFFCURVE",
"109 438 CURVE {\"Letterink-NibData\" = {ValidForParentWidth = 21;};}",
"132 374 LINE {\"Letterink-NibData\" = {ValidForParentWidth = 21;};}",
"171 405 OFFCURVE",
"293 462 OFFCURVE",
"344 458 CURVE {\"Letterink-NibData\" = {ValidForParentWidth = 21;};}",
"363 438 OFFCURVE",
"365 406 OFFCURVE",
"365 363 CURVE SMOOTH {\"Letterink-NibData\" = {ValidForParentWidth = 21;};}",
"365 0 LINE {\"Letterink-NibData\" = {ValidForParentWidth = 21;};}"
);
}
);
width = 832;
},
{
guideLines = (
{
angle = 18.3085;
position = "{196, 545}";
}
);
layerId = "FA803571-32C9-4FEE-972F-1FEF49B82217";
paths = (
{
closed = 1;
nodes = (
"794 0 LINE",
"794 366 LINE SMOOTH",
"794 449 OFFCURVE",
"764 519 OFFCURVE",
"708 519 CURVE SMOOTH",
"662 519 OFFCURVE",
"490 449 OFFCURVE",
"443 418 CURVE",
"456 391 LINE",
"495 417 OFFCURVE",
"654 484 OFFCURVE",
"715 484 CURVE",
"737 472 OFFCURVE",
"756 434 OFFCURVE",
"756 343 CURVE SMOOTH",
"756 0 LINE"
);
},
{
closed = 1;
nodes = (
"142 0 LINE",
"142 414 LINE",
"119 518 LINE",
"89 508 LINE",
"100 457 OFFCURVE",
"104 413 OFFCURVE",
"104 377 CURVE SMOOTH",
"104 0 LINE"
);
},
{
closed = 1;
nodes = (
"468 0 LINE",
"468 366 LINE SMOOTH",
"468 449 OFFCURVE",
"438 519 OFFCURVE",
"382 519 CURVE SMOOTH",
"336 519 OFFCURVE",
"164 449 OFFCURVE",
"117 418 CURVE",
"130 391 LINE",
"169 417 OFFCURVE",
"328 484 OFFCURVE",
"389 484 CURVE",
"411 472 OFFCURVE",
"430 434 OFFCURVE",
"430 343 CURVE SMOOTH",
"430 0 LINE"
);
}
);
width = 893;
},
{
layerId = "494556E7-144A-4E25-B9FC-0C21051BD184";
paths = (
{
closed = 1;
nodes = (
"867 0 LINE",
"867 346 LINE",
"867 460 OFFCURVE",
"838 534 OFFCURVE",
"738 534 CURVE",
"653 534 OFFCURVE",
"561 465 OFFCURVE",
"503 420 CURVE",
"541 261 LINE",
"561 292 OFFCURVE",
"592 339 OFFCURVE",
"646 339 CURVE",
"667 321 OFFCURVE",
"667 272 OFFCURVE",
"667 239 CURVE",
"667 0 LINE"
);
},
{
closed = 1;
nodes = (
"277 0 LINE",
"277 394 LINE",
"222 534 LINE",
"50 478 LINE",
"68 398 OFFCURVE",
"77 351 OFFCURVE",
"77 282 CURVE",
"77 0 LINE"
);
},
{
closed = 1;
nodes = (
"572 0 LINE",
"572 346 LINE",
"572 460 OFFCURVE",
"543 534 OFFCURVE",
"443 534 CURVE",
"358 534 OFFCURVE",
"266 465 OFFCURVE",
"208 420 CURVE",
"246 261 LINE",
"266 292 OFFCURVE",
"297 339 OFFCURVE",
"351 339 CURVE",
"372 321 OFFCURVE",
"372 272 OFFCURVE",
"372 239 CURVE",
"372 0 LINE"
);
}
);
width = 927;
}
);
leftMetricsKey = n;
note = m;
rightMetricsKey = n;
unicode = 006D;
},
{
color = 5;
glyphname = n;
lastChange = "2023-10-03 14:31:53 +0000";
layers = (
{
anchors = (
{
name = "#top";
position = "{275, 515}";
}
);
background = {
paths = (
{
closed = 1;
nodes = (
"158 0 LINE",
"158 394 LINE",
"123 528 LINE",
"55 506 LINE",
"63 455 OFFCURVE",
"70 403 OFFCURVE",
"70 347 CURVE SMOOTH",
"70 0 LINE"
);
},
{
closed = 1;
nodes = (
"480 0 LINE",
"480 376 LINE SMOOTH",
"480 461 OFFCURVE",
"461 529 OFFCURVE",
"383 529 CURVE SMOOTH",
"317 529 OFFCURVE",
"173 479 OFFCURVE",
"126 448 CURVE",
"149 388 LINE",
"188 414 OFFCURVE",
"320 458 OFFCURVE",
"371 458 CURVE",
"390 438 OFFCURVE",
"392 406 OFFCURVE",
"392 363 CURVE SMOOTH",
"392 0 LINE"
);
}
);
};
guideLines = (
{
angle = 18.3085;
position = "{578, 679}";
}
);
layerId = master01;
paths = (
{
closed = 1;
nodes = (
"480 0 LINE {\"Letterink-NibData\" = {ValidForParentWidth = 21;};}",
"480 376 LINE SMOOTH {\"Letterink-NibData\" = {ValidForParentWidth = 21;};}",
"480 461 OFFCURVE",
"461 529 OFFCURVE",
"383 529 CURVE SMOOTH {\"Letterink-NibData\" = {ValidForParentWidth = 21;};}",
"312 529 OFFCURVE",
"173 488 OFFCURVE",
"126 452 CURVE {\"Letterink-NibData\" = {ValidForParentWidth = 21;};}",
"149 387 LINE {\"Letterink-NibData\" = {ValidForParentWidth = 21;};}",
"188 418 OFFCURVE",
"320 462 OFFCURVE",
"371 458 CURVE {\"Letterink-NibData\" = {ValidForParentWidth = 21;};}",
"390 438 OFFCURVE",
"392 406 OFFCURVE",
"392 363 CURVE SMOOTH {\"Letterink-NibData\" = {ValidForParentWidth = 21;};}",
"392 0 LINE {\"Letterink-NibData\" = {ValidForParentWidth = 21;};}"
);
},
{
closed = 1;
nodes = (
"158 0 LINE {\"Letterink-NibData\" = {ValidForParentWidth = 21;};}",
"158 394 LINE {\"Letterink-NibData\" = {ValidForParentWidth = 21;};}",
"123 528 LINE {\"Letterink-NibData\" = {ValidForParentWidth = 21;};}",
"55 506 LINE {\"Letterink-NibData\" = {ValidForParentWidth = 21;};}",
"63 455 OFFCURVE",
"70 403 OFFCURVE",
"70 347 CURVE SMOOTH {\"Letterink-NibData\" = {ValidForParentWidth = 21;};}",
"70 0 LINE {\"Letterink-NibData\" = {ValidForParentWidth = 21;};}"
);
}
);
width = 550;
},
{
anchors = (
{
name = "#top";
position = "{275, 515}";
}
);
guideLines = (
{
angle = 18.3085;
position = "{201, 545}";
}
);
layerId = "FA803571-32C9-4FEE-972F-1FEF49B82217";
paths = (
{
closed = 1;
nodes = (
"468 0 LINE",
"468 366 LINE SMOOTH",
"468 449 OFFCURVE",
"438 519 OFFCURVE",
"382 519 CURVE SMOOTH",
"336 519 OFFCURVE",
"164 449 OFFCURVE",
"117 418 CURVE",
"130 391 LINE",
"169 417 OFFCURVE",
"328 484 OFFCURVE",
"389 484 CURVE",
"411 472 OFFCURVE",
"430 434 OFFCURVE",
"430 343 CURVE SMOOTH",
"430 0 LINE"
);
},
{
closed = 1;
nodes = (
"142 0 LINE",
"142 414 LINE",
"119 518 LINE",
"89 508 LINE",
"100 457 OFFCURVE",
"104 413 OFFCURVE",
"104 377 CURVE SMOOTH",
"104 0 LINE"
);
}
);
width = 567;
},
{
anchors = (
{
name = "#top";
position = "{320, 520}";
}
);
layerId = "494556E7-144A-4E25-B9FC-0C21051BD184";
paths = (
{
closed = 1;
nodes = (
"581 0 LINE",
"581 346 LINE",
"581 460 OFFCURVE",
"552 534 OFFCURVE",
"452 534 CURVE",
"380 534 OFFCURVE",
"275 475 OFFCURVE",
"217 430 CURVE",
"255 271 LINE",
"278 302 OFFCURVE",
"306 339 OFFCURVE",
"360 339 CURVE",
"381 321 OFFCURVE",
"381 272 OFFCURVE",
"381 239 CURVE",
"381 0 LINE"
);
},
{
closed = 1;
nodes = (
"276 0 LINE",
"276 394 LINE",
"221 534 LINE",
"50 477 LINE",
"67 397 OFFCURVE",
"76 351 OFFCURVE",
"76 282 CURVE",
"76 0 LINE"
);
}
);
width = 641;
}
);
note = n;
unicode = 006E;
},
{
color = 1;
glyphname = o;
lastChange = "2023-10-03 14:31:53 +0000";
layers = (
{
anchors = (
{
name = "#top";
position = "{291, 529}";
}
);
background = {
paths = (
{
closed = 1;
nodes = (
"437 -14 OFFCURVE",
"533 90 OFFCURVE",
"531 257 CURVE SMOOTH",
"529 431 OFFCURVE",
"443 529 OFFCURVE",
"291 529 CURVE SMOOTH",
"139 529 OFFCURVE",
"45 425 OFFCURVE",
"45 257 CURVE SMOOTH",
"45 84 OFFCURVE",
"133 -14 OFFCURVE",
"285 -14 CURVE SMOOTH"
);
},
{
closed = 1;
nodes = (
"185 53 OFFCURVE",
"133 160 OFFCURVE",
"133 299 CURVE SMOOTH",
"133 400 OFFCURVE",
"170 462 OFFCURVE",
"271 462 CURVE SMOOTH",
"391 462 OFFCURVE",
"443 355 OFFCURVE",
"443 215 CURVE SMOOTH",
"443 115 OFFCURVE",
"406 53 OFFCURVE",
"305 53 CURVE SMOOTH"
);
}
);
};
layerId = master01;
paths = (
{
closed = 1;
nodes = (
"429 -14 OFFCURVE",
"532 108 OFFCURVE",
"531 267 CURVE SMOOTH {\"Letterink-NibData\" = {ValidForParentWidth = 21;};}",
"530 427 OFFCURVE",
"430 529 OFFCURVE",
"291 529 CURVE SMOOTH {\"Letterink-NibData\" = {ValidForParentWidth = 21;};}",
"146 529 OFFCURVE",
"45 407 OFFCURVE",
"45 247 CURVE SMOOTH {\"Letterink-NibData\" = {ValidForParentWidth = 21;};}",
"45 88 OFFCURVE",
"146 -14 OFFCURVE",
"285 -14 CURVE SMOOTH {\"Letterink-NibData\" = {ValidForParentWidth = 21;};}"
);
},
{
closed = 1;
nodes = (
"179 53 OFFCURVE",
"133 160 OFFCURVE",
"133 299 CURVE SMOOTH {\"Letterink-NibData\" = {ValidForParentWidth = 21;};}",
"133 406 OFFCURVE",
"170 462 OFFCURVE",
"271 462 CURVE SMOOTH {\"Letterink-NibData\" = {ValidForParentWidth = 21;};}",
"397 462 OFFCURVE",
"443 355 OFFCURVE",
"443 215 CURVE SMOOTH {\"Letterink-NibData\" = {ValidForParentWidth = 21;};}",
"443 109 OFFCURVE",
"406 53 OFFCURVE",
"305 53 CURVE SMOOTH {\"Letterink-NibData\" = {ValidForParentWidth = 21;};}"
);
}
);
width = 576;
},
{
anchors = (
{
name = "#top";
position = "{285, 505}";
}
);
background = {
paths = (
{
closed = 1;
nodes = (
"423 -14 OFFCURVE",
"504 74 OFFCURVE",
"504 246 CURVE SMOOTH",
"504 400 OFFCURVE",
"429 519 OFFCURVE",
"289 519 CURVE SMOOTH",
"141 519 OFFCURVE",
"60 430 OFFCURVE",
"60 259 CURVE SMOOTH",
"60 105 OFFCURVE",
"135 -14 OFFCURVE",
"275 -14 CURVE SMOOTH"
);
},
{
closed = 1;
nodes = (
"157 24 OFFCURVE",
"101 126 OFFCURVE",
"100 283 CURVE SMOOTH",
"99 411 OFFCURVE",
"154 481 OFFCURVE",
"279 481 CURVE SMOOTH",
"407 481 OFFCURVE",
"463 378 OFFCURVE",
"464 222 CURVE SMOOTH",
"465 94 OFFCURVE",
"410 24 OFFCURVE",
"285 24 CURVE SMOOTH"
);
}
);
};
layerId = "FA803571-32C9-4FEE-972F-1FEF49B82217";
paths = (
{
closed = 1;
nodes = (
"425 -14 OFFCURVE",
"506 88 OFFCURVE",
"506 248 CURVE SMOOTH",
"506 407 OFFCURVE",
"425 519 OFFCURVE",
"286 519 CURVE SMOOTH",
"141 519 OFFCURVE",
"60 417 OFFCURVE",
"60 257 CURVE SMOOTH",
"60 98 OFFCURVE",
"141 -14 OFFCURVE",
"280 -14 CURVE SMOOTH"
);
},
{
closed = 1;
nodes = (
"157 24 OFFCURVE",
"101 126 OFFCURVE",
"100 283 CURVE SMOOTH",
"99 405 OFFCURVE",
"154 481 OFFCURVE",
"279 481 CURVE SMOOTH",
"407 481 OFFCURVE",
"463 379 OFFCURVE",
"464 222 CURVE SMOOTH",
"465 100 OFFCURVE",
"410 24 OFFCURVE",
"285 24 CURVE SMOOTH"
);
}
);
width = 566;
},
{
anchors = (
{
name = "#top";
position = "{295, 515}";
}
);
layerId = "494556E7-144A-4E25-B9FC-0C21051BD184";
paths = (
{
closed = 1;
nodes = (
"467 -14 OFFCURVE",
"568 96 OFFCURVE",
"568 262 CURVE SMOOTH",
"568 428 OFFCURVE",
"474 534 OFFCURVE",
"305 534 CURVE SMOOTH",
"136 534 OFFCURVE",
"35 424 OFFCURVE",
"35 258 CURVE SMOOTH",
"35 92 OFFCURVE",
"129 -14 OFFCURVE",
"298 -14 CURVE SMOOTH"
);
},
{
closed = 1;
nodes = (
"254 146 OFFCURVE",
"236 206 OFFCURVE",
"236 283 CURVE SMOOTH",
"236 337 OFFCURVE",
"246 374 OFFCURVE",
"293 374 CURVE SMOOTH",
"350 374 OFFCURVE",
"368 313 OFFCURVE",
"368 236 CURVE SMOOTH",
"368 181 OFFCURVE",
"357 146 OFFCURVE",
"311 146 CURVE SMOOTH"
);
}
);
width = 603;
}
);
leftKerningGroup = o;
note = o;
unicode = 006F;
},
{
color = 5;
glyphname = p;
lastChange = "2023-10-03 14:31:53 +0000";
layers = (
{
background = {
paths = (
{
closed = 1;
nodes = (
"177 -230 LINE",
"177 407 LINE",
"146 527 LINE",
"74 505 LINE",
"82 454 OFFCURVE",
"89 402 OFFCURVE",
"89 346 CURVE SMOOTH",
"89 -230 LINE"
);
},
{
closed = 1;
nodes = (
"185 403 OFFCURVE",
"263 451 OFFCURVE",
"315 451 CURVE SMOOTH",
"417 451 OFFCURVE",
"458 335 OFFCURVE",
"458 237 CURVE SMOOTH",
"458 132 OFFCURVE",
"412 74 OFFCURVE",
"353 46 CURVE",
"303 53 OFFCURVE",
"228 99 OFFCURVE",
"166 150 CURVE",
"162 63 LINE",
"219 16 OFFCURVE",
"283 -13 OFFCURVE",
"333 -13 CURVE SMOOTH",
"452 -13 OFFCURVE",
"545 122 OFFCURVE",
"545 272 CURVE SMOOTH",
"547 403 OFFCURVE",
"468 529 OFFCURVE",
"333 529 CURVE SMOOTH",
"267 529 OFFCURVE",
"192 480 OFFCURVE",
"104 413 CURVE",
"124 354 LINE"
);
}
);
};
guideLines = (
{
angle = 18.3085;
position = "{105, 512}";
}
);
layerId = master01;
paths = (
{
closed = 1;
nodes = (
"437 -14 OFFCURVE",
"549 114 OFFCURVE",
"548 269 CURVE SMOOTH {\"Letterink-NibData\" = {ValidForParentWidth = 21;};}",
"548 404 OFFCURVE",
"455 529 OFFCURVE",
"327 529 CURVE SMOOTH {\"Letterink-NibData\" = {ValidForParentWidth = 21;};}",
"261 529 OFFCURVE",
"192 480 OFFCURVE",
"104 413 CURVE {\"Letterink-NibData\" = {ValidForParentWidth = 21;};}",
"124 354 LINE {\"Letterink-NibData\" = {ValidForParentWidth = 21;};}",
"185 403 OFFCURVE",
"263 451 OFFCURVE",
"315 451 CURVE SMOOTH {\"Letterink-NibData\" = {ValidForParentWidth = 21;};}",
"417 451 OFFCURVE",
"460 341 OFFCURVE",
"460 239 CURVE SMOOTH {\"Letterink-NibData\" = {ValidForParentWidth = 21;};}",
"460 124 OFFCURVE",
"414 72 OFFCURVE",
"353 44 CURVE {\"Letterink-NibData\" = {ValidForParentWidth = 21;};}",
"303 51 OFFCURVE",
"228 97 OFFCURVE",
"166 148 CURVE {\"Letterink-NibData\" = {ValidForParentWidth = 21;};}",
"162 54 LINE {\"Letterink-NibData\" = {ValidForParentWidth = 21;};}",
"193 26 OFFCURVE",
"267 -14 OFFCURVE",
"323 -14 CURVE SMOOTH {\"Letterink-NibData\" = {ValidForParentWidth = 21;};}"
);
},
{
closed = 1;
nodes = (
"177 -230 LINE {\"Letterink-NibData\" = {ValidForParentWidth = 21;};}",
"177 407 LINE {\"Letterink-NibData\" = {ValidForParentWidth = 21;};}",
"146 527 LINE {\"Letterink-NibData\" = {ValidForParentWidth = 21;};}",
"74 505 LINE {\"Letterink-NibData\" = {ValidForParentWidth = 21;};}",
"82 454 OFFCURVE",
"89 402 OFFCURVE",
"89 346 CURVE SMOOTH {\"Letterink-NibData\" = {ValidForParentWidth = 21;};}",
"89 -230 LINE {\"Letterink-NibData\" = {ValidForParentWidth = 21;};}"
);
}
);
width = 593;
},
{
background = {
paths = (
{
closed = 1;
nodes = (
"142 -230 LINE",
"142 414 LINE",
"119 518 LINE",
"89 508 LINE",
"100 457 OFFCURVE",
"104 413 OFFCURVE",
"104 377 CURVE SMOOTH",
"104 -230 LINE"
);
},
{
closed = 1;
nodes = (
"177 419 OFFCURVE",
"250 481 OFFCURVE",
"312 481 CURVE",
"421 481 OFFCURVE",
"472 346 OFFCURVE",
"472 250 CURVE",
"472 104 OFFCURVE",
"400 42 OFFCURVE",
"341 24 CURVE",
"254 36 OFFCURVE",
"189 79 OFFCURVE",
"128 128 CURVE",
"116 87 LINE",
"169 47 OFFCURVE",
"258 -14 OFFCURVE",
"328 -14 CURVE",
"418 -14 OFFCURVE",
"514 97 OFFCURVE",
"514 246 CURVE",
"514 376 OFFCURVE",
"452 519 OFFCURVE",
"312 519 CURVE",
"242 519 OFFCURVE",
"162 449 OFFCURVE",
"113 407 CURVE",
"132 382 LINE"
);
}
);
};
guideLines = (
{
angle = 18.3085;
position = "{201, 545}";
}
);
layerId = "FA803571-32C9-4FEE-972F-1FEF49B82217";
paths = (
{
closed = 1;
nodes = (
"418 -14 OFFCURVE",
"514 97 OFFCURVE",
"514 246 CURVE SMOOTH",
"514 382 OFFCURVE",
"446 519 OFFCURVE",
"306 519 CURVE",
"236 519 OFFCURVE",
"162 449 OFFCURVE",
"113 407 CURVE",
"132 382 LINE",
"177 419 OFFCURVE",
"244 481 OFFCURVE",
"306 481 CURVE",
"415 481 OFFCURVE",
"472 352 OFFCURVE",
"472 250 CURVE SMOOTH",
"472 104 OFFCURVE",
"400 36 OFFCURVE",
"341 18 CURVE",
"254 30 OFFCURVE",
"189 85 OFFCURVE",
"128 134 CURVE",
"116 87 LINE",
"169 47 OFFCURVE",
"258 -14 OFFCURVE",
"328 -14 CURVE"
);
},
{
closed = 1;
nodes = (
"142 -230 LINE",
"142 414 LINE",
"119 518 LINE",
"89 508 LINE",
"100 457 OFFCURVE",
"104 413 OFFCURVE",
"104 377 CURVE SMOOTH",
"104 -230 LINE"
);
}
);
width = 574;
},
{
layerId = "494556E7-144A-4E25-B9FC-0C21051BD184";
paths = (
{
closed = 1;
nodes = (
"523 -13 OFFCURVE",
"600 126 OFFCURVE",
"600 276 CURVE SMOOTH",
"600 421 OFFCURVE",
"535 535 OFFCURVE",
"419 535 CURVE SMOOTH",
"329 535 OFFCURVE",
"226 472 OFFCURVE",
"126 350 CURVE",
"158 183 LINE",
"181 288 OFFCURVE",
"262 375 OFFCURVE",
"323 375 CURVE SMOOTH",
"367 375 OFFCURVE",
"396 341 OFFCURVE",
"396 271 CURVE SMOOTH",
"396 226 OFFCURVE",
"378 162 OFFCURVE",
"339 134 CURVE",
"293 142 OFFCURVE",
"244 190 OFFCURVE",
"194 273 CURVE",
"194 127 LINE",
"251 33 OFFCURVE",
"302 -13 OFFCURVE",
"381 -13 CURVE SMOOTH"
);
},
{
closed = 1;
nodes = (
"274 -230 LINE",
"274 394 LINE",
"219 534 LINE",
"45 476 LINE",
"59 425 OFFCURVE",
"74 350 OFFCURVE",
"74 297 CURVE",
"74 -230 LINE"
);
}
);
width = 635;
}
);
note = p;
rightKerningGroup = o;
rightMetricsKey = o;
unicode = 0070;
},
{
color = 5;
glyphname = q;
lastChange = "2023-10-03 14:31:53 +0000";
layers = (
{
background = {
paths = (
{
closed = 1;
nodes = (
"502 -230 LINE",
"502 346 LINE SMOOTH",
"502 402 OFFCURVE",
"509 454 OFFCURVE",
"517 505 CURVE",
"445 527 LINE",
"414 407 LINE",
"414 -230 LINE"
);
},
{
closed = 1;
nodes = (
"428 452 LINE",
"371 499 OFFCURVE",
"307 528 OFFCURVE",
"257 528 CURVE SMOOTH",
"138 528 OFFCURVE",
"45 391 OFFCURVE",
"45 241 CURVE SMOOTH",
"43 112 OFFCURVE",
"122 -14 OFFCURVE",
"257 -14 CURVE SMOOTH",
"323 -14 OFFCURVE",
"398 35 OFFCURVE",
"486 102 CURVE",
"466 161 LINE",
"405 112 OFFCURVE",
"327 64 OFFCURVE",
"275 64 CURVE SMOOTH",
"173 64 OFFCURVE",
"132 180 OFFCURVE",
"132 278 CURVE SMOOTH",
"132 383 OFFCURVE",
"178 441 OFFCURVE",
"237 469 CURVE",
"287 462 OFFCURVE",
"362 416 OFFCURVE",
"424 365 CURVE"
);
}
);
};
guideLines = (
{
angle = 161.6915;
position = "{278, 583}";
}
);
layerId = master01;
paths = (
{
closed = 1;
nodes = (
"332 -14 OFFCURVE",
"401 35 OFFCURVE",
"489 102 CURVE {\"Letterink-NibData\" = {ValidForParentWidth = 21;};}",
"469 161 LINE {\"Letterink-NibData\" = {ValidForParentWidth = 21;};}",
"408 112 OFFCURVE",
"330 64 OFFCURVE",
"278 64 CURVE SMOOTH {\"Letterink-NibData\" = {ValidForParentWidth = 21;};}",
"176 64 OFFCURVE",
"133 174 OFFCURVE",
"133 276 CURVE SMOOTH {\"Letterink-NibData\" = {ValidForParentWidth = 21;};}",
"133 391 OFFCURVE",
"179 443 OFFCURVE",
"240 471 CURVE {\"Letterink-NibData\" = {ValidForParentWidth = 21;};}",
"290 464 OFFCURVE",
"365 418 OFFCURVE",
"427 367 CURVE {\"Letterink-NibData\" = {ValidForParentWidth = 21;};}",
"431 461 LINE {\"Letterink-NibData\" = {ValidForParentWidth = 21;};}",
"400 489 OFFCURVE",
"326 529 OFFCURVE",
"270 529 CURVE SMOOTH {\"Letterink-NibData\" = {ValidForParentWidth = 21;};}",
"156 529 OFFCURVE",
"44 401 OFFCURVE",
"45 246 CURVE SMOOTH {\"Letterink-NibData\" = {ValidForParentWidth = 21;};}",
"46 111 OFFCURVE",
"138 -14 OFFCURVE",
"266 -14 CURVE SMOOTH {\"Letterink-NibData\" = {ValidForParentWidth = 21;};}"
);
},
{
closed = 1;
nodes = (
"502 -230 LINE {\"Letterink-NibData\" = {ValidForParentWidth = 21;};}",
"502 346 LINE SMOOTH {\"Letterink-NibData\" = {ValidForParentWidth = 21;};}",
"502 402 OFFCURVE",
"509 454 OFFCURVE",
"517 505 CURVE {\"Letterink-NibData\" = {ValidForParentWidth = 21;};}",
"445 527 LINE {\"Letterink-NibData\" = {ValidForParentWidth = 21;};}",
"414 407 LINE {\"Letterink-NibData\" = {ValidForParentWidth = 21;};}",
"414 -230 LINE {\"Letterink-NibData\" = {ValidForParentWidth = 21;};}"
);
}
);
width = 597;
},
{
background = {
paths = (
{
closed = 1;
nodes = (
"444 394 LINE",
"403 464 OFFCURVE",
"342 519 OFFCURVE",
"262 519 CURVE",
"121 519 OFFCURVE",
"60 378 OFFCURVE",
"60 248 CURVE",
"60 113 OFFCURVE",
"145 -14 OFFCURVE",
"240 -14 CURVE",
"310 -14 OFFCURVE",
"415 47 OFFCURVE",
"468 87 CURVE",
"446 116 LINE",
"385 67 OFFCURVE",
"279 22 OFFCURVE",
"232 22 CURVE",
"148 51 OFFCURVE",
"102 180 OFFCURVE",
"102 262 CURVE",
"102 378 OFFCURVE",
"157 483 OFFCURVE",
"263 483 CURVE",
"338 483 OFFCURVE",
"431 392 OFFCURVE",
"444 313 CURVE"
);
},
{
closed = 1;
nodes = (
"470 -230 LINE",
"470 377 LINE SMOOTH",
"470 413 OFFCURVE",
"474 457 OFFCURVE",
"485 508 CURVE",
"458 517 LINE",
"432 414 LINE",
"432 -230 LINE"
);
}
);
};
guideLines = (
{
angle = 161.6915;
position = "{199, 603}";
}
);
layerId = "FA803571-32C9-4FEE-972F-1FEF49B82217";
paths = (
{
closed = 1;
nodes = (
"338 -14 OFFCURVE",
"412 56 OFFCURVE",
"461 98 CURVE",
"442 123 LINE",
"397 86 OFFCURVE",
"330 24 OFFCURVE",
"268 24 CURVE",
"159 24 OFFCURVE",
"102 153 OFFCURVE",
"102 255 CURVE SMOOTH",
"102 401 OFFCURVE",
"174 463 OFFCURVE",
"233 481 CURVE",
"320 469 OFFCURVE",
"385 426 OFFCURVE",
"446 377 CURVE",
"458 418 LINE",
"405 458 OFFCURVE",
"316 519 OFFCURVE",
"246 519 CURVE",
"156 519 OFFCURVE",
"60 408 OFFCURVE",
"60 259 CURVE SMOOTH",
"60 123 OFFCURVE",
"128 -14 OFFCURVE",
"268 -14 CURVE"
);
},
{
closed = 1;
nodes = (
"470 -230 LINE",
"470 377 LINE SMOOTH",
"470 413 OFFCURVE",
"474 457 OFFCURVE",
"485 508 CURVE",
"458 517 LINE",
"432 414 LINE",
"432 -230 LINE"
);
}
);
width = 574;
},
{
layerId = "494556E7-144A-4E25-B9FC-0C21051BD184";
paths = (
{
closed = 1;
nodes = (
"306 -13 OFFCURVE",
"409 50 OFFCURVE",
"509 172 CURVE",
"477 339 LINE",
"454 234 OFFCURVE",
"373 147 OFFCURVE",
"312 147 CURVE SMOOTH",
"268 147 OFFCURVE",
"239 181 OFFCURVE",
"239 251 CURVE SMOOTH",
"239 296 OFFCURVE",
"257 360 OFFCURVE",
"296 388 CURVE",
"342 380 OFFCURVE",
"391 332 OFFCURVE",
"441 249 CURVE",
"441 395 LINE",
"384 489 OFFCURVE",
"333 535 OFFCURVE",
"254 535 CURVE SMOOTH",
"112 535 OFFCURVE",
"35 396 OFFCURVE",
"35 246 CURVE SMOOTH",
"35 101 OFFCURVE",
"100 -13 OFFCURVE",
"216 -13 CURVE SMOOTH"
);
},
{
closed = 1;
nodes = (
"561 -230 LINE",
"561 297 LINE",
"561 350 OFFCURVE",
"575 426 OFFCURVE",
"589 477 CURVE",
"416 534 LINE",
"361 394 LINE",
"361 -230 LINE"
);
}
);
width = 634;
}
);
leftKerningGroup = o;
leftMetricsKey = o;
note = q;
unicode = 0071;
},
{
color = 5;
glyphname = r;
layers = (
{
background = {
paths = (
{
closed = 1;
nodes = (
"198 0 LINE",
"198 394 LINE",
"163 528 LINE",
"95 505 LINE",
"103 454 OFFCURVE",
"110 403 OFFCURVE",
"110 347 CURVE SMOOTH",
"110 0 LINE"
);
},
{
closed = 1;
nodes = (
"192 335 LINE",
"204 367 OFFCURVE",
"244 433 OFFCURVE",
"280 455 CURVE",
"308 448 OFFCURVE",
"343 440 OFFCURVE",
"368 425 CURVE",
"394 504 LINE",
"364 517 OFFCURVE",
"323 529 OFFCURVE",
"290 529 CURVE SMOOTH",
"238 529 OFFCURVE",
"177 438 OFFCURVE",
"149 384 CURVE"
);
}
);
};
guideLines = (
{
angle = -18.3085;
position = "{362, 406}";
},
{
angle = 18.3085;
position = "{281, 567}";
}
);
layerId = master01;
paths = (
{
closed = 1;
nodes = (
"204 367 OFFCURVE",
"247 437 OFFCURVE",
"283 459 CURVE {\"Letterink-NibData\" = {ValidForParentWidth = \"21\";};}",
"311 452 OFFCURVE",
"343 439 OFFCURVE",
"368 425 CURVE {\"Letterink-NibData\" = {ValidForParentWidth = \"21\";};}",
"394 504 LINE {\"Letterink-NibData\" = {ValidForParentWidth = \"21\";};}",
"364 517 OFFCURVE",
"323 529 OFFCURVE",
"290 529 CURVE SMOOTH {\"Letterink-NibData\" = {ValidForParentWidth = \"21\";};}",
"238 529 OFFCURVE",
"177 438 OFFCURVE",
"149 384 CURVE {\"Letterink-NibData\" = {ValidForParentWidth = \"21\";};}",
"192 335 LINE {\"Letterink-NibData\" = {ValidForParentWidth = \"21\";};}"
);
},
{
closed = 1;
nodes = (
"198 0 LINE {\"Letterink-NibData\" = {ValidForParentWidth = \"21\";};}",
"198 394 LINE {\"Letterink-NibData\" = {ValidForParentWidth = \"21\";};}",
"163 528 LINE {\"Letterink-NibData\" = {ValidForParentWidth = \"21\";};}",
"95 505 LINE {\"Letterink-NibData\" = {ValidForParentWidth = \"21\";};}",
"103 454 OFFCURVE",
"110 403 OFFCURVE",
"110 347 CURVE SMOOTH {\"Letterink-NibData\" = {ValidForParentWidth = \"21\";};}",
"110 0 LINE {\"Letterink-NibData\" = {ValidForParentWidth = \"21\";};}"
);
}
);
width = 429;
},
{
background = {
guideLines = (
{
angle = 247.9489;
position = "{328, 462}";
}
);
paths = (
{
closed = 1;
nodes = (
"142 414 LINE",
"119 518 LINE",
"89 508 LINE",
"100 457 OFFCURVE",
"104 413 OFFCURVE",
"104 377 CURVE SMOOTH",
"104 0 LINE",
"142 0 LINE"
);
},
{
closed = 1;
nodes = (
"340 491 LINE",
"311 506 OFFCURVE",
"271 519 OFFCURVE",
"241 519 CURVE SMOOTH",
"201 519 OFFCURVE",
"144 433 OFFCURVE",
"118 391 CURVE",
"139 362 LINE",
"165 410 OFFCURVE",
"191 453 OFFCURVE",
"237 484 CURVE",
"264 482 OFFCURVE",
"299 468 OFFCURVE",
"325 454 CURVE"
);
},
{
closed = 1;
nodes = (
"79 0 LINE",
"163 0 LINE",
"163 394 LINE",
"128 528 LINE",
"64 505 LINE",
"72 454 OFFCURVE",
"79 403 OFFCURVE",
"79 347 CURVE SMOOTH"
);
},
{
closed = 1;
nodes = (
"368 501 LINE",
"327 528 OFFCURVE",
"298 529 OFFCURVE",
"269 529 CURVE SMOOTH",
"217 529 OFFCURVE",
"146 438 OFFCURVE",
"118 384 CURVE",
"151 335 LINE",
"167 367 OFFCURVE",
"209 439 OFFCURVE",
"249 455 CURVE",
"277 448 OFFCURVE",
"311 437 OFFCURVE",
"336 422 CURVE"
);
}
);
};
guideLines = (
{
angle = 71.6915;
position = "{317, 406}";
},
{
angle = 18.3085;
position = "{201, 545}";
}
);
layerId = "FA803571-32C9-4FEE-972F-1FEF49B82217";
paths = (
{
closed = 1;
nodes = (
"157 405 OFFCURVE",
"196 453 OFFCURVE",
"236 484 CURVE",
"263 482 OFFCURVE",
"306 465 OFFCURVE",
"332 451 CURVE",
"346 492 LINE",
"316 507 OFFCURVE",
"269 519 OFFCURVE",
"240 519 CURVE SMOOTH",
"200 519 OFFCURVE",
"133 418 OFFCURVE",
"120 396 CURVE",
"136 367 LINE"
);
},
{
closed = 1;
nodes = (
"142 0 LINE",
"142 414 LINE",
"119 518 LINE",
"89 508 LINE",
"100 457 OFFCURVE",
"104 413 OFFCURVE",
"104 377 CURVE SMOOTH",
"104 0 LINE"
);
}
);
width = 381;
},
{
layerId = "494556E7-144A-4E25-B9FC-0C21051BD184";
paths = (
{
closed = 1;
nodes = (

"287 324 OFFCURVE",
"314 359 OFFCURVE",
"342 369 CURVE",
"376 366 OFFCURVE",
"410 352 OFFCURVE",
"430 343 CURVE",
"482 500 LINE",
"455 521 OFFCURVE",
"403 533 OFFCURVE",
"375 533 CURVE SMOOTH",
"298 533 OFFCURVE",
"245 434 OFFCURVE",
"219 379 CURVE",
"275 285 LINE"
);
}
);
width = 482;
}
);
note = r;
unicode = 0072;
},
{
color = 5;
glyphname = s;
lastChange = "2023-10-03 14:31:53 +0000";
layers = (
{
background = {
paths = (
{
closed = 1;
nodes = (
"51 69 LINE",
"100 10 OFFCURVE",
"193 -14 OFFCURVE",
"256 -14 CURVE SMOOTH",
"353 -14 OFFCURVE",
"443 52 OFFCURVE",
"443 151 CURVE SMOOTH",
"443 240 OFFCURVE",
"364 286 OFFCURVE",
"269 318 CURVE SMOOTH",
"197 342 OFFCURVE",
"152 352 OFFCURVE",
"133 392 CURVE",
"149 439 OFFCURVE",
"188 452 OFFCURVE",
"232 452 CURVE SMOOTH",
"283 452 OFFCURVE",
"341 432 OFFCURVE",
"396 400 CURVE",
"421 476 LINE",
"369 512 OFFCURVE",
"315 529 OFFCURVE",
"258 529 CURVE SMOOTH",
"157 529 OFFCURVE",
"69 465 OFFCURVE",
"69 374 CURVE SMOOTH",
"69 304 OFFCURVE",
"136 260 OFFCURVE",
"236 225 CURVE SMOOTH",
"307 200 OFFCURVE",
"363 182 OFFCURVE",
"378 138 CURVE",
"366 79 OFFCURVE",
"319 63 OFFCURVE",
"267 63 CURVE SMOOTH",
"194 63 OFFCURVE",
"132 91 OFFCURVE",
"76 146 CURVE"
);
}
);
};
guideLines = (
{
angle = 71.6915;
position = "{162, 406}";
}
);
layerId = master01;
paths = (
{
closed = 1;
nodes = (
"353 -14 OFFCURVE",
"443 52 OFFCURVE",
"443 151 CURVE SMOOTH {\"Letterink-NibData\" = {ValidForParentWidth = 21;};}",
"443 238 OFFCURVE",
"364 284 OFFCURVE",
"269 316 CURVE SMOOTH {\"Letterink-NibData\" = {ValidForParentWidth = 21;};}",
"197 340 OFFCURVE",
"152 350 OFFCURVE",
"133 390 CURVE {\"Letterink-NibData\" = {ValidForParentWidth = 21;};}",
"149 437 OFFCURVE",
"188 452 OFFCURVE",
"232 452 CURVE SMOOTH {\"Letterink-NibData\" = {ValidForParentWidth = 21;};}",
"283 452 OFFCURVE",
"341 432 OFFCURVE",
"396 400 CURVE {\"Letterink-NibData\" = {ValidForParentWidth = 21;};}",
"421 476 LINE {\"Letterink-NibData\" = {ValidForParentWidth = 21;};}",
"369 512 OFFCURVE",
"315 529 OFFCURVE",
"258 529 CURVE SMOOTH {\"Letterink-NibData\" = {ValidForParentWidth = 21;};}",
"157 529 OFFCURVE",
"69 465 OFFCURVE",
"69 374 CURVE SMOOTH {\"Letterink-NibData\" = {ValidForParentWidth = 21;};}",
"69 316 OFFCURVE",
"136 265 OFFCURVE",
"236 230 CURVE SMOOTH {\"Letterink-NibData\" = {ValidForParentWidth = 21;};}",
"307 205 OFFCURVE",
"360 187 OFFCURVE",
"378 143 CURVE {\"Letterink-NibData\" = {ValidForParentWidth = 21;};}",
"366 84 OFFCURVE",
"319 63 OFFCURVE",
"267 63 CURVE SMOOTH {\"Letterink-NibData\" = {ValidForParentWidth = 21;};}",
"194 63 OFFCURVE",
"132 91 OFFCURVE",
"76 146 CURVE {\"Letterink-NibData\" = {ValidForParentWidth = 21;};}",
"51 69 LINE {\"Letterink-NibData\" = {ValidForParentWidth = 21;};}",
"100 10 OFFCURVE",
"193 -14 OFFCURVE",
"256 -14 CURVE SMOOTH {\"Letterink-NibData\" = {ValidForParentWidth = 21;};}"
);
}
);
width = 495;
},
{
background = {
guideLines = (
{
angle = 66.1135;
position = "{55, 111}";
}
);
paths = (
{
closed = 1;
nodes = (
"151 529 OFFCURVE",
"63 465 OFFCURVE",
"63 374 CURVE SMOOTH",
"63 316 OFFCURVE",
"130 265 OFFCURVE",
"230 230 CURVE SMOOTH",
"301 205 OFFCURVE",
"354 187 OFFCURVE",
"372 143 CURVE",
"360 84 OFFCURVE",
"313 63 OFFCURVE",
"261 63 CURVE SMOOTH",
"188 63 OFFCURVE",
"126 91 OFFCURVE",
"70 146 CURVE",
"39 76 LINE",
"88 12 OFFCURVE",
"164 -14 OFFCURVE",
"240 -14 CURVE SMOOTH",
"241 -14 LINE SMOOTH",
"347 -14 OFFCURVE",
"437 52 OFFCURVE",
"437 151 CURVE SMOOTH",
"437 238 OFFCURVE",
"358 284 OFFCURVE",
"263 316 CURVE SMOOTH",
"191 340 OFFCURVE",
"146 350 OFFCURVE",
"127 390 CURVE",
"143 437 OFFCURVE",
"182 452 OFFCURVE",
"226 452 CURVE SMOOTH",
"277 452 OFFCURVE",
"335 432 OFFCURVE",
"390 400 CURVE",
"418 474 LINE",
"365 511 OFFCURVE",
"310 529 OFFCURVE",
"252 529 CURVE SMOOTH"
);
}
);
};
guideLines = (
{
angle = 71.6915;
position = "{171, 406}";
}
);
layerId = "FA803571-32C9-4FEE-972F-1FEF49B82217";
paths = (
{
closed = 1;
nodes = (
"337 -14 OFFCURVE",
"421 69 OFFCURVE",
"421 139 CURVE SMOOTH",
"421 215 OFFCURVE",
"344 263 OFFCURVE",
"268 296 CURVE SMOOTH",
"137 353 OFFCURVE",
"108 377 OFFCURVE",
"101 408 CURVE",
"117 458 OFFCURVE",
"173 486 OFFCURVE",
"234 486 CURVE SMOOTH",
"286 486 OFFCURVE",
"340 466 OFFCURVE",
"385 425 CURVE",
"398 462 LINE",
"342 504 OFFCURVE",
"284 518 OFFCURVE",
"231 518 CURVE SMOOTH",
"144 518 OFFCURVE",
"67 458 OFFCURVE",
"67 397 CURVE SMOOTH",
"67 343 OFFCURVE",
"165 293 OFFCURVE",
"235 264 CURVE SMOOTH",
"342 220 OFFCURVE",
"381 173 OFFCURVE",
"387 132 CURVE",
"372 60 OFFCURVE",
"298 17 OFFCURVE",
"230 17 CURVE SMOOTH",
"175 17 OFFCURVE",
"123 42 OFFCURVE",
"68 95 CURVE",
"55 56 LINE",
"108 4 OFFCURVE",
"175 -14 OFFCURVE",
"239 -14 CURVE SMOOTH"
);
}
);
width = 480;
},
{
guideLines = (
{
angle = 71.6915;
position = "{162, 406}";
}
);
layerId = "494556E7-144A-4E25-B9FC-0C21051BD184";
paths = (
{
closed = 1;
nodes = (
"403 -14 OFFCURVE",
"514 34 OFFCURVE",
"514 156 CURVE SMOOTH",
"514 222 OFFCURVE",
"448 275 OFFCURVE",
"379 312 CURVE SMOOTH",
"316 345 OFFCURVE",
"250 365 OFFCURVE",
"229 370 CURVE",
"252 381 OFFCURVE",
"276 386 OFFCURVE",
"300 386 CURVE SMOOTH",
"349 386 OFFCURVE",
"400 365 OFFCURVE",
"442 337 CURVE",
"490 483 LINE",
"431 509 OFFCURVE",
"363 534 OFFCURVE",
"300 534 CURVE SMOOTH",
"172 534 OFFCURVE",
"60 479 OFFCURVE",
"60 364 CURVE SMOOTH",
"60 307 OFFCURVE",
"128 254 OFFCURVE",
"198 215 CURVE SMOOTH",
"256 182 OFFCURVE",
"315 159 OFFCURVE",
"335 152 CURVE",
"312 141 OFFCURVE",
"286 136 OFFCURVE",
"259 136 CURVE SMOOTH",
"200 136 OFFCURVE",
"136 160 OFFCURVE",
"93 194 CURVE",
"42 42 LINE",
"119 -2 OFFCURVE",
"210 -14 OFFCURVE",
"299 -14 CURVE SMOOTH"
);
}
);
width = 559;
}
);
note = s;
unicode = 0073;
},
{
color = 5;
glyphname = t;
lastChange = "2023-10-03 14:31:53 +0000";
layers = (
{
background = {
paths = (
{
closed = 1;
nodes = (
"358 448 LINE",
"380 515 LINE",
"25 515 LINE",
"25 448 LINE"
);
},
{
closed = 1;
nodes = (
"119 139 LINE SMOOTH",
"119 54 OFFCURVE",
"137 -14 OFFCURVE",
"215 -14 CURVE SMOOTH",
"288 -14 OFFCURVE",
"336 7 OFFCURVE",
"383 40 CURVE",
"360 109 LINE",
"322 84 OFFCURVE",
"266 57 OFFCURVE",
"229 57 CURVE",
"208 78 OFFCURVE",
"205 120 OFFCURVE",
"205 163 CURVE SMOOTH",
"205 679 LINE",
"119 679 LINE"
);
}
);
};
guideLines = (
{
angle = 108.3085;
position = "{262, 406}";
},
{
angle = 71.6915;
position = "{344, 406}";
}
);
layerId = master01;
paths = (
{
closed = 1;
nodes = (
"288 -14 OFFCURVE",
"336 7 OFFCURVE",
"383 40 CURVE {\"Letterink-NibData\" = {ValidForParentWidth = 21;};}",
"360 109 LINE {\"Letterink-NibData\" = {ValidForParentWidth = 21;};}",
"322 84 OFFCURVE",
"259 55 OFFCURVE",
"222 56 CURVE {\"Letterink-NibData\" = {ValidForParentWidth = 21;};}",
"210 69 OFFCURVE",
"205 120 OFFCURVE",
"205 163 CURVE SMOOTH {\"Letterink-NibData\" = {ValidForParentWidth = 21;};}",
"205 679 LINE {\"Letterink-NibData\" = {ValidForParentWidth = 21;};}",
"117 679 LINE {\"Letterink-NibData\" = {ValidForParentWidth = 21;};}",
"117 139 LINE SMOOTH {\"Letterink-NibData\" = {ValidForParentWidth = 21;};}",
"117 54 OFFCURVE",
"137 -14 OFFCURVE",
"215 -14 CURVE SMOOTH {\"Letterink-NibData\" = {ValidForParentWidth = 21;};}"
);
},
{
closed = 1;
nodes = (
"358 448 LINE {\"Letterink-NibData\" = {ValidForParentWidth = 21;};}",
"380 515 LINE {\"Letterink-NibData\" = {ValidForParentWidth = 21;};}",
"25 515 LINE {\"Letterink-NibData\" = {ValidForParentWidth = 21;};}",
"25 448 LINE {\"Letterink-NibData\" = {ValidForParentWidth = 21;};}"
);
}
);
width = 423;
},
{
guideLines = (
{
angle = 71.6915;
position = "{313, 406}";
},
{
angle = 108.3085;
position = "{241, 406}";
}
);
layerId = "FA803571-32C9-4FEE-972F-1FEF49B82217";
paths = (
{
closed = 1;
nodes = (
"240 -14 OFFCURVE",
"323 17 OFFCURVE",
"361 45 CURVE",
"348 81 LINE",
"286 42 OFFCURVE",
"227 25 OFFCURVE",
"194 25 CURVE",
"173 46 OFFCURVE",
"170 102 OFFCURVE",
"170 145 CURVE",
"170 680 LINE",
"132 680 LINE",
"132 147 LINE",
"132 80 OFFCURVE",
"140 -14 OFFCURVE",
"201 -14 CURVE"
);
},
{
closed = 1;
nodes = (
"336 475 LINE",
"346 505 LINE",
"33 505 LINE",
"33 475 LINE"
);
}
);
width = 400;
},
{
layerId = "494556E7-144A-4E25-B9FC-0C21051BD184";
paths = (
{
closed = 1;
nodes = (
"352 -10 OFFCURVE",
"421 19 OFFCURVE",
"488 60 CURVE",
"445 192 LINE",
"415 172 OFFCURVE",
"370 144 OFFCURVE",
"335 141 CURVE",
"319 158 OFFCURVE",
"315 208 OFFCURVE",
"315 249 CURVE SMOOTH",
"315 669 LINE",
"115 669 LINE",
"115 229 LINE",
"115 69 OFFCURVE",
"164 -10 OFFCURVE",
"270 -10 CURVE SMOOTH"
);
},
{
closed = 1;
nodes = (
"439 390 LINE",
"482 520 LINE",
"25 520 LINE",
"25 390 LINE"
);
}
);
width = 508;
}
);
note = t;
unicode = 0074;
},
{
color = 1;
glyphname = u;
lastChange = "2023-10-03 14:31:53 +0000";
layers = (
{
anchors = (
{
name = "#top";
position = "{289, 515}";
}
);
background = {
paths = (
{
closed = 1;
nodes = (
"399 120 LINE",
"434 -14 LINE",
"502 9 LINE",
"494 60 OFFCURVE",
"487 111 OFFCURVE",
"487 167 CURVE SMOOTH",
"487 515 LINE",
"399 515 LINE"
);
},
{
closed = 1;
nodes = (
"90 515 LINE",
"90 139 LINE SMOOTH",
"90 54 OFFCURVE",
"109 -14 OFFCURVE",
"187 -14 CURVE SMOOTH",
"258 -14 OFFCURVE",
"397 37 OFFCURVE",
"444 73 CURVE",
"421 137 LINE",
"382 106 OFFCURVE",
"250 53 OFFCURVE",
"199 57 CURVE",
"180 77 OFFCURVE",
"178 109 OFFCURVE",
"178 152 CURVE SMOOTH",
"178 515 LINE"
);
}
);
};
guideLines = (
{
angle = 18.3085;
position = "{101, -125}";
}
);
layerId = master01;
paths = (
{
closed = 1;
nodes = (
"258 -14 OFFCURVE",
"397 37 OFFCURVE",
"444 73 CURVE {\"Letterink-NibData\" = {ValidForParentWidth = 21;};}",
"421 137 LINE {\"Letterink-NibData\" = {ValidForParentWidth = 21;};}",
"382 106 OFFCURVE",
"250 53 OFFCURVE",
"199 57 CURVE {\"Letterink-NibData\" = {ValidForParentWidth = 21;};}",
"180 77 OFFCURVE",
"178 109 OFFCURVE",
"178 152 CURVE SMOOTH {\"Letterink-NibData\" = {ValidForParentWidth = 21;};}",
"178 515 LINE {\"Letterink-NibData\" = {ValidForParentWidth = 21;};}",
"90 515 LINE {\"Letterink-NibData\" = {ValidForParentWidth = 21;};}",
"90 139 LINE SMOOTH {\"Letterink-NibData\" = {ValidForParentWidth = 21;};}",
"90 54 OFFCURVE",
"109 -14 OFFCURVE",
"187 -14 CURVE SMOOTH {\"Letterink-NibData\" = {ValidForParentWidth = 21;};}"
);
},
{
closed = 1;
nodes = (
"502 9 LINE {\"Letterink-NibData\" = {ValidForParentWidth = 21;};}",
"494 60 OFFCURVE",
"487 111 OFFCURVE",
"487 167 CURVE SMOOTH {\"Letterink-NibData\" = {ValidForParentWidth = 21;};}",
"487 515 LINE {\"Letterink-NibData\" = {ValidForParentWidth = 21;};}",
"399 515 LINE {\"Letterink-NibData\" = {ValidForParentWidth = 21;};}",
"399 120 LINE {\"Letterink-NibData\" = {ValidForParentWidth = 21;};}",
"434 -14 LINE {\"Letterink-NibData\" = {ValidForParentWidth = 21;};}"
);
}
);
width = 582;
},
{
anchors = (
{
name = "#top";
position = "{272, 505}";
}
);
guideLines = (
{
angle = 18.3085;
position = "{201, -91}";
}
);
layerId = "FA803571-32C9-4FEE-972F-1FEF49B82217";
paths = (
{
closed = 1;
nodes = (
"227 -15 OFFCURVE",
"399 55 OFFCURVE",
"446 86 CURVE",
"433 113 LINE",
"394 87 OFFCURVE",
"235 20 OFFCURVE",
"174 20 CURVE",
"152 32 OFFCURVE",
"133 70 OFFCURVE",
"133 161 CURVE SMOOTH",
"133 505 LINE",
"95 505 LINE",
"95 138 LINE SMOOTH",
"95 55 OFFCURVE",
"125 -15 OFFCURVE",
"181 -15 CURVE SMOOTH"
);
},
{
closed = 1;
nodes = (
"464 -4 LINE",
"453 47 OFFCURVE",
"449 91 OFFCURVE",
"449 127 CURVE SMOOTH",
"449 505 LINE",
"411 505 LINE",
"411 90 LINE",
"434 -14 LINE"
);
}
);
width = 553;
},
{
anchors = (
{
name = "#top";
position = "{313, 520}";
}
);
layerId = "494556E7-144A-4E25-B9FC-0C21051BD184";
paths = (
{
closed = 1;
nodes = (
"271 -14 OFFCURVE",
"376 45 OFFCURVE",
"434 90 CURVE",
"396 249 LINE",
"373 218 OFFCURVE",
"345 181 OFFCURVE",
"291 181 CURVE",
"270 199 OFFCURVE",
"270 248 OFFCURVE",
"270 281 CURVE",
"270 520 LINE",
"70 520 LINE",
"70 174 LINE",
"70 60 OFFCURVE",
"99 -14 OFFCURVE",
"199 -14 CURVE"
);
},
{
closed = 1;
nodes = (
"581 43 LINE",
"564 123 OFFCURVE",
"555 169 OFFCURVE",
"555 238 CURVE",
"555 520 LINE",
"355 520 LINE",
"355 126 LINE",
"410 -14 LINE"
);
}
);
width = 626;
}
);
note = u;
unicode = 0075;
},
{
color = 1;
glyphname = v;
lastChange = "2023-10-03 14:31:53 +0000";
layers = (
{
guideLines = (
{
angle = 161.6915;
position = "{281, 554}";
}
);
layerId = master01;
paths = (
{
closed = 1;
nodes = (
"300 0 LINE {\"Letterink-NibData\" = {ValidForParentWidth = 21;};}",
"477 490 LINE {\"Letterink-NibData\" = {ValidForParentWidth = 21;};}",
"400 515 LINE {\"Letterink-NibData\" = {ValidForParentWidth = 21;};}",
"250 31 LINE {\"Letterink-NibData\" = {ValidForParentWidth = 21;};}",
"275 31 LINE {\"Letterink-NibData\" = {ValidForParentWidth = 21;};}",
"119 515 LINE {\"Letterink-NibData\" = {ValidForParentWidth = 21;};}",
"19 515 LINE {\"Letterink-NibData\" = {ValidForParentWidth = 21;};}",
"210 0 LINE {\"Letterink-NibData\" = {ValidForParentWidth = 21;};}"
);
}
);
width = 497;
},
{
guideLines = (
{
angle = 161.6915;
position = "{201, 579}";
}
);
layerId = "FA803571-32C9-4FEE-972F-1FEF49B82217";
paths = (
{
closed = 1;
nodes = (
"279 0 LINE",
"463 492 LINE",
"426 505 LINE",
"253 26 LINE",
"258 27 LINE",
"78 505 LINE",
"35 505 LINE",
"229 0 LINE"
);
}
);
width = 498;
},
{
layerId = "494556E7-144A-4E25-B9FC-0C21051BD184";
paths = (
{
closed = 1;
nodes = (
"369 0 LINE",
"564 473 LINE",
"380 534 LINE",
"269 96 LINE",
"331 96 LINE",
"222 520 LINE",
"5 520 LINE",
"199 0 LINE"
);
}
);
width = 569;
}
);
leftKerningGroup = v;
note = v;
rightKerningGroup = v;
unicode = 0076;
},
{
color = 1;
glyphname = w;
lastChange = "2023-10-03 14:31:53 +0000";
layers = (
{
anchors = (
{
name = "#top";
position = "{343, 515}";
}
);
background = {
paths = (
{
closed = 1;
nodes = (
"213 1 LINE",
"119 514 LINE",
"20 514 LINE",
"140 0 LINE",
"230 0 LINE",
"368 504 LINE",
"307 504 LINE",
"457 0 LINE",
"547 0 LINE",
"665 491 LINE",
"586 515 LINE",
"489 2 LINE",
"529 2 LINE",
"392 515 LINE",
"302 515 LINE",
"166 1 LINE"
);
}
);
};
guideLines = (
{
angle = 161.6915;
position = "{281, 616}";
}
);
layerId = master01;
paths = (
{
closed = 1;
nodes = (
"230 0 LINE {\"Letterink-NibData\" = {ValidForParentWidth = 21;};}",
"362 484 LINE {\"Letterink-NibData\" = {ValidForParentWidth = 21;};}",
"313 484 LINE {\"Letterink-NibData\" = {ValidForParentWidth = 21;};}",
"457 0 LINE {\"Letterink-NibData\" = {ValidForParentWidth = 21;};}",
"547 0 LINE {\"Letterink-NibData\" = {ValidForParentWidth = 21;};}",
"665 490 LINE {\"Letterink-NibData\" = {ValidForParentWidth = 21;};}",
"586 515 LINE {\"Letterink-NibData\" = {ValidForParentWidth = 21;};}",
"493 12 LINE {\"Letterink-NibData\" = {ValidForParentWidth = 21;};}",
"523 12 LINE {\"Letterink-NibData\" = {ValidForParentWidth = 21;};}",
"392 515 LINE {\"Letterink-NibData\" = {ValidForParentWidth = 21;};}",
"302 515 LINE {\"Letterink-NibData\" = {ValidForParentWidth = 21;};}",
"171 11 LINE {\"Letterink-NibData\" = {ValidForParentWidth = 21;};}",
"213 11 LINE {\"Letterink-NibData\" = {ValidForParentWidth = 21;};}",
"119 515 LINE {\"Letterink-NibData\" = {ValidForParentWidth = 21;};}",
"19 515 LINE {\"Letterink-NibData\" = {ValidForParentWidth = 21;};}",
"140 0 LINE {\"Letterink-NibData\" = {ValidForParentWidth = 21;};}"
);
}
);
width = 685;
},
{
anchors = (
{
name = "#top";
position = "{333, 505}";
}
);
guideLines = (
{
angle = 161.6915;
position = "{201, 632}";
}
);
layerId = "FA803571-32C9-4FEE-972F-1FEF49B82217";
paths = (
{
closed = 1;
nodes = (
"209 0 LINE",
"341 486 LINE",
"321 486 LINE",
"449 0 LINE",
"499 0 LINE",
"622 493 LINE",
"584 505 LINE",
"471 22 LINE",
"482 22 LINE",
"354 505 LINE",
"316 505 LINE",
"179 11 LINE",
"197 11 LINE",
"80 505 LINE",
"35 505 LINE",
"159 0 LINE"
);
}
);
width = 657;
},
{
anchors = (
{
name = "#top";
position = "{418, 520}";
}
);
layerId = "494556E7-144A-4E25-B9FC-0C21051BD184";
paths = (
{
closed = 1;
nodes = (
"367 0 LINE",
"434 239 LINE",
"404 240 LINE",
"471 0 LINE",
"641 0 LINE",
"800 473 LINE",
"615 534 LINE",
"543 202 LINE",
"563 202 LINE",
"499 520 LINE",
"338 520 LINE",
"268 204 LINE",
"288 204 LINE",
"221 520 LINE",
"5 520 LINE",
"197 0 LINE"
);
}
);
width = 805;
}
);
leftKerningGroup = v;
leftMetricsKey = v;
note = w;
rightKerningGroup = v;
rightMetricsKey = v;
unicode = 0077;
},
{
color = 1;
glyphname = x;
lastChange = "2023-10-03 14:31:53 +0000";
layers = (
{
guideLines = (
{
angle = 161.6915;
position = "{281, 551}";
}
);
layerId = master01;
paths = (
{
closed = 1;
nodes = (
"491 0 LINE {\"Letterink-NibData\" = {ValidForParentWidth = 21;};}",
"294 272 LINE {\"Letterink-NibData\" = {ValidForParentWidth = 21;};}",
"135 516 LINE {\"Letterink-NibData\" = {ValidForParentWidth = 21;};}",
"30 515 LINE {\"Letterink-NibData\" = {ValidForParentWidth = 21;};}",
"239 218 LINE {\"Letterink-NibData\" = {ValidForParentWidth = 21;};}",
"381 0 LINE {\"Letterink-NibData\" = {ValidForParentWidth = 21;};}"
);
},
{
closed = 1;
nodes = (
"113 0 LINE {\"Letterink-NibData\" = {ValidForParentWidth = 21;};}",
"274 244 LINE {\"Letterink-NibData\" = {ValidForParentWidth = 21;};}",
"237 304 LINE {\"Letterink-NibData\" = {ValidForParentWidth = 21;};}",
"21 0 LINE {\"Letterink-NibData\" = {ValidForParentWidth = 21;};}"
);
},
{
closed = 1;
nodes = (
"465 490 LINE {\"Letterink-NibData\" = {ValidForParentWidth = 21;};}",
"389 515 LINE {\"Letterink-NibData\" = {ValidForParentWidth = 21;};}",
"254 304 LINE {\"Letterink-NibData\" = {ValidForParentWidth = 21;};}",
"289 244 LINE {\"Letterink-NibData\" = {ValidForParentWidth = 21;};}"
);
}
);
width = 501;
},
{
guideLines = (
{
angle = 161.6915;
position = "{201, 575}";
}
);
layerId = "FA803571-32C9-4FEE-972F-1FEF49B82217";
paths = (
{
closed = 1;
nodes = (
"457 0 LINE",
"272 267 LINE",
"114 505 LINE",
"63 505 LINE",
"248 239 LINE",
"408 0 LINE"
);
},
{
closed = 1;
nodes = (
"98 0 LINE",
"270 249 LINE",
"252 275 LINE",
"55 0 LINE"
);
},
{
closed = 1;
nodes = (
"450 493 LINE",
"414 505 LINE",
"252 268 LINE",
"263 233 LINE"
);
}
);
width = 512;
},
{
layerId = "494556E7-144A-4E25-B9FC-0C21051BD184";
paths = (
{
closed = 1;
nodes = (
"592 0 LINE",
"379 289 LINE",
"234 520 LINE",
"14 520 LINE",
"236 213 LINE",
"367 0 LINE"
);
},
{
closed = 1;
nodes = (
"219 0 LINE",
"349 250 LINE",
"240 335 LINE",
"4 0 LINE"
);
},
{
closed = 1;
nodes = (
"545 463 LINE",
"376 520 LINE",
"224 260 LINE",
"334 179 LINE"
);
}
);
width = 599;
}
);
note = x;
unicode = 0078;
},
{
color = 1;
glyphname = y;
lastChange = "2023-10-03 14:31:53 +0000";
layers = (
{
anchors = (
{
name = "#top";
position = "{259, 515}";
}
);
layerId = master01;
paths = (
{
closed = 1;
nodes = (
"227 -230 LINE {\"Letterink-NibData\" = {ValidForParentWidth = 21;};}",
"297 37 LINE {\"Letterink-NibData\" = {ValidForParentWidth = 21;};}",
"498 490 LINE {\"Letterink-NibData\" = {ValidForParentWidth = 21;};}",
"421 515 LINE {\"Letterink-NibData\" = {ValidForParentWidth = 21;};}",
"251 74 LINE {\"Letterink-NibData\" = {ValidForParentWidth = 21;};}",
"289 74 LINE {\"Letterink-NibData\" = {ValidForParentWidth = 21;};}",
"120 515 LINE {\"Letterink-NibData\" = {ValidForParentWidth = 21;};}",
"20 515 LINE {\"Letterink-NibData\" = {ValidForParentWidth = 21;};}",
"222 40 LINE {\"Letterink-NibData\" = {ValidForParentWidth = 21;};}",
"127 -230 LINE {\"Letterink-NibData\" = {ValidForParentWidth = 21;};}"
);
}
);
width = 518;
},
{
anchors = (
{
name = "#top";
position = "{257, 505}";
}
);
background = {
paths = (
{
closed = 1;
nodes = (
"422 520 LINE",
"230 74 LINE",
"279 74 LINE",
"105 514 LINE",
"0 514 LINE",
"200 40 LINE",
"80 -228 LINE",
"187 -230 LINE",
"280 37 LINE",
"495 495 LINE"
);
}
);
};
guideLines = (
{
angle = 161.6915;
position = "{201, 586}";
}
);
layerId = "FA803571-32C9-4FEE-972F-1FEF49B82217";
paths = (
{
closed = 1;
nodes = (
"187 -230 LINE",
"264 47 LINE",
"484 493 LINE",
"447 505 LINE",
"242 75 LINE",
"258 75 LINE",
"76 505 LINE",
"32 505 LINE",
"229 50 LINE",
"145 -230 LINE"
);
}
);
width = 519;
},
{
anchors = (
{
name = "#top";
position = "{315, 520}";
}
);
layerId = "494556E7-144A-4E25-B9FC-0C21051BD184";
paths = (
{
closed = 1;
nodes = (
"310 -230 LINE",
"386 46 LINE",
"620 473 LINE",
"438 534 LINE",
"276 116 LINE",
"359 116 LINE",
"219 520 LINE",
"2 520 LINE",
"216 46 LINE",
"96 -230 LINE"
);
}
);
width = 629;
}
);
note = y;
unicode = 0079;
},
{
color = 1;
glyphname = z;
lastChange = "2023-10-03 14:31:53 +0000";
layers = (
{
background = {
paths = (
{
closed = 1;
nodes = (
"460 456 LINE",
"370 472 LINE",
"52 61 LINE",
"162 63 LINE"
);
},
{
closed = 1;
nodes = (
"465 0 LINE",
"489 71 LINE",
"52 61 LINE",
"74 0 LINE"
);
},
{
closed = 1;
nodes = (
"460 456 LINE",
"439 515 LINE",
"58 515 LINE",
"58 446 LINE"
);
}
);
};
guideLines = (
{
angle = 71.6915;
position = "{600, 406}";
},
{
angle = 108.3085;
position = "{477, 406}";
}
);
layerId = master01;
paths = (
{
closed = 1;
nodes = (
"162 63 LINE {\"Letterink-NibData\" = {ValidForParentWidth = 21;};}",
"460 456 LINE {\"Letterink-NibData\" = {ValidForParentWidth = 21;};}",
"370 472 LINE {\"Letterink-NibData\" = {ValidForParentWidth = 21;};}",
"52 61 LINE {\"Letterink-NibData\" = {ValidForParentWidth = 21;};}"
);
},
{
closed = 1;
nodes = (
"465 0 LINE {\"Letterink-NibData\" = {ValidForParentWidth = 21;};}",
"489 71 LINE {\"Letterink-NibData\" = {ValidForParentWidth = 21;};}",
"52 61 LINE {\"Letterink-NibData\" = {ValidForParentWidth = 21;};}",
"72 0 LINE {\"Letterink-NibData\" = {ValidForParentWidth = 21;};}"
);
},
{
closed = 1;
nodes = (
"460 456 LINE {\"Letterink-NibData\" = {ValidForParentWidth = 21;};}",
"441 515 LINE {\"Letterink-NibData\" = {ValidForParentWidth = 21;};}",
"58 515 LINE {\"Letterink-NibData\" = {ValidForParentWidth = 21;};}",
"58 446 LINE {\"Letterink-NibData\" = {ValidForParentWidth = 21;};}"
);
}
);
width = 525;
},
{
background = {
guideLines = (
{
angle = 109.5923;
position = "{452, 486}";
},
{
angle = 109.8321;
position = "{65, 31}";
}
);
paths = (
{
closed = 1;
nodes = (
"452 478 LINE",
"416 494 LINE",
"67 28 LINE",
"114 28 LINE"
);
},
{
closed = 1;
nodes = (
"452 478 LINE",
"442 505 LINE",
"60 505 LINE",
"60 472 LINE"
);
},
{
closed = 1;
nodes = (
"459 0 LINE",
"459 34 LINE",
"67 28 LINE",
"77 0 LINE"
);
}
);
};
guideLines = (
{
angle = 108.3085;
position = "{-58, 406}";
},
{
angle = 108.3085;
position = "{476, 406}";
},
{
angle = 71.6915;
position = "{582, 406}";
}
);
layerId = "FA803571-32C9-4FEE-972F-1FEF49B82217";
paths = (
{
closed = 1;
nodes = (
"114 28 LINE",
"452 478 LINE",
"416 494 LINE",
"67 28 LINE"
);
},
{
closed = 1;
nodes = (
"448 0 LINE",
"459 34 LINE",
"67 28 LINE",
"77 0 LINE"
);
},
{
closed = 1;
nodes = (
"452 478 LINE",
"443 505 LINE",
"60 505 LINE",
"60 472 LINE"
);
}
);
width = 519;
},
{
layerId = "494556E7-144A-4E25-B9FC-0C21051BD184";
paths = (
{
closed = 1;
nodes = (
"170 63 LINE",
"496 373 LINE",
"275 380 LINE",
"35 152 LINE"
);
},
{
closed = 1;
nodes = (
"462 0 LINE",
"516 162 LINE",
"35 152 LINE",
"86 0 LINE"
);
},
{
closed = 1;
nodes = (
"496 373 LINE",
"447 521 LINE",
"41 521 LINE",
"41 361 LINE"
);
}
);
width = 531;
}
);
note = z;
unicode = 007A;
},
{
color = 5;
glyphname = zero;
lastChange = "2023-10-03 14:31:53 +0000";
layers = (
{
background = {
paths = (
{
closed = 1;
nodes = (
"552 638 OFFCURVE",
"476 750 OFFCURVE",
"311 750 CURVE SMOOTH",
"124 750 OFFCURVE",
"42 640 OFFCURVE",
"42 369 CURVE SMOOTH",
"42 98 OFFCURVE",
"118 -14 OFFCURVE",
"283 -14 CURVE SMOOTH",
"470 -14 OFFCURVE",
"552 96 OFFCURVE",
"552 367 CURVE SMOOTH"
);
},
{
closed = 1;
nodes = (
"129 623 OFFCURVE",
"160 678 OFFCURVE",
"281 678 CURVE SMOOTH",
"419 678 OFFCURVE",
"465 589 OFFCURVE",
"465 328 CURVE SMOOTH",
"465 113 OFFCURVE",
"434 58 OFFCURVE",
"313 58 CURVE SMOOTH",
"175 58 OFFCURVE",
"129 147 OFFCURVE",
"129 408 CURVE SMOOTH"
);
}
);
};
layerId = master01;
paths = (
{
closed = 1;
nodes = (
"455 -14 OFFCURVE",
"549 92 OFFCURVE",
"549 358 CURVE SMOOTH {\"Letterink-NibData\" = {ValidForParentWidth = 21;};}",
"549 630 OFFCURVE",
"463 750 OFFCURVE",
"301 750 CURVE SMOOTH {\"Letterink-NibData\" = {ValidForParentWidth = 21;};}",
"139 750 OFFCURVE",
"45 644 OFFCURVE",
"45 378 CURVE SMOOTH {\"Letterink-NibData\" = {ValidForParentWidth = 21;};}",
"45 106 OFFCURVE",
"131 -14 OFFCURVE",
"293 -14 CURVE SMOOTH {\"Letterink-NibData\" = {ValidForParentWidth = 21;};}"
);
},
{
closed = 1;
nodes = (
"183 53 OFFCURVE",
"133 172 OFFCURVE",
"133 410 CURVE SMOOTH {\"Letterink-NibData\" = {ValidForParentWidth = 21;};}",
"133 609 OFFCURVE",
"170 683 OFFCURVE",
"281 683 CURVE SMOOTH {\"Letterink-NibData\" = {ValidForParentWidth = 21;};}",
"411 683 OFFCURVE",
"461 564 OFFCURVE",
"461 326 CURVE SMOOTH {\"Letterink-NibData\" = {ValidForParentWidth = 21;};}",
"461 127 OFFCURVE",
"424 53 OFFCURVE",
"313 53 CURVE SMOOTH {\"Letterink-NibData\" = {ValidForParentWidth = 21;};}"
);
}
);
width = 594;
},
{
background = {
paths = (
{
closed = 1;
nodes = (
"465 -14 OFFCURVE",
"525 100 OFFCURVE",
"525 367 CURVE SMOOTH",
"525 614 OFFCURVE",
"450 746 OFFCURVE",
"301 746 CURVE SMOOTH",
"121 746 OFFCURVE",
"61 632 OFFCURVE",
"61 365 CURVE SMOOTH",
"61 118 OFFCURVE",
"136 -14 OFFCURVE",
"285 -14 CURVE SMOOTH"
);
},
{
closed = 1;
nodes = (
"455 711 OFFCURVE",
"487 560 OFFCURVE",
"487 371 CURVE SMOOTH",
"487 168 OFFCURVE",
"454 21 OFFCURVE",
"300 21 CURVE SMOOTH",
"130 21 OFFCURVE",
"99 172 OFFCURVE",
"99 361 CURVE SMOOTH",
"99 564 OFFCURVE",
"131 711 OFFCURVE",
"285 711 CURVE SMOOTH"
);
}
);
};
layerId = "FA803571-32C9-4FEE-972F-1FEF49B82217";
paths = (
{
closed = 1;
nodes = (
"452 -13 OFFCURVE",
"526 98 OFFCURVE",
"526 349 CURVE SMOOTH",
"526 574 OFFCURVE",
"452 749 OFFCURVE",
"296 749 CURVE SMOOTH",
"134 749 OFFCURVE",
"60 638 OFFCURVE",
"60 387 CURVE SMOOTH",
"60 162 OFFCURVE",
"134 -13 OFFCURVE",
"290 -13 CURVE SMOOTH"
);
},
{
closed = 1;
nodes = (
"150 23 OFFCURVE",
"102 187 OFFCURVE",
"102 430 CURVE SMOOTH",
"102 606 OFFCURVE",
"149 713 OFFCURVE",
"284 713 CURVE SMOOTH",
"436 713 OFFCURVE",
"484 549 OFFCURVE",
"484 306 CURVE SMOOTH",
"484 130 OFFCURVE",
"437 23 OFFCURVE",
"302 23 CURVE SMOOTH"
);
}
);
width = 586;
},
{
layerId = "494556E7-144A-4E25-B9FC-0C21051BD184";
paths = (
{
closed = 1;
nodes = (
"573 -15 OFFCURVE",
"633 161 OFFCURVE",
"633 366 CURVE SMOOTH",
"633 599 OFFCURVE",
"549 750 OFFCURVE",
"337 750 CURVE SMOOTH",
"95 750 OFFCURVE",
"35 571 OFFCURVE",
"35 366 CURVE SMOOTH",
"35 133 OFFCURVE",
"119 -15 OFFCURVE",
"331 -15 CURVE SMOOTH"
);
},
{
closed = 1;
nodes = (
"246 139 OFFCURVE",
"200 228 OFFCURVE",
"200 408 CURVE SMOOTH",
"200 542 OFFCURVE",
"231 597 OFFCURVE",
"318 597 CURVE SMOOTH",
"421 597 OFFCURVE",
"467 508 OFFCURVE",
"467 328 CURVE SMOOTH",
"467 194 OFFCURVE",
"436 139 OFFCURVE",
"350 139 CURVE SMOOTH"
);
}
);
width = 668;
}
);
note = zero;
unicode = 0030;
},
{
color = 1;
glyphname = one;
lastChange = "2023-10-03 14:31:53 +0000";
layers = (
{
background = {
paths = (
{
closed = 1;
nodes = (
"225 735 LINE",
"186 702 OFFCURVE",
"111 667 OFFCURVE",
"61 654 CURVE",
"81 593 LINE",
"160 611 LINE",
"249 611 LINE",
"249 735 LINE"
);
}
);
};
guideLines = (
{
angle = 107.7232;
position = "{57, 583}";
}
);
layerId = master01;
paths = (
{
closed = 1;
nodes = (
"249 -2 LINE {\"Letterink-NibData\" = {ValidForParentWidth = 21;};}",
"249 685 LINE {\"Letterink-NibData\" = {ValidForParentWidth = 21;};}",
"161 685 LINE {\"Letterink-NibData\" = {ValidForParentWidth = 21;};}",
"161 -2 LINE {\"Letterink-NibData\" = {ValidForParentWidth = 21;};}"
);
},
{
closed = 1;
nodes = (
"96 573 OFFCURVE",
"130 587 OFFCURVE",
"171 595 CURVE {\"Letterink-NibData\" = {ValidForParentWidth = 21;};}",
"165 611 LINE {\"Letterink-NibData\" = {ValidForParentWidth = 21;};}",
"249 611 LINE {\"Letterink-NibData\" = {ValidForParentWidth = 21;};}",
"249 735 LINE {\"Letterink-NibData\" = {ValidForParentWidth = 21;};}",
"225 735 LINE {\"Letterink-NibData\" = {ValidForParentWidth = 21;};}",
"179 696 OFFCURVE",
"121 674 OFFCURVE",
"40 645 CURVE {\"Letterink-NibData\" = {ValidForParentWidth = 21;};}",
"67 556 LINE {\"Letterink-NibData\" = {ValidForParentWidth = 21;};}"
);
}
);
width = 359;
},
{
background = {
paths = (
{
closed = 1;
nodes = (
"249 -2 LINE",
"249 685 LINE",
"161 685 LINE",
"161 -2 LINE"
);
},
{
closed = 1;
nodes = (
"96 573 OFFCURVE",
"130 587 OFFCURVE",
"171 595 CURVE",
"165 611 LINE",
"249 611 LINE",
"249 735 LINE",
"225 735 LINE",
"179 696 OFFCURVE",
"121 674 OFFCURVE",
"40 645 CURVE",
"67 556 LINE"
);
}
);
};
layerId = "FA803571-32C9-4FEE-972F-1FEF49B82217";
paths = (
{
closed = 1;
nodes = (
"199 -2 LINE",
"199 685 LINE",
"161 685 LINE",
"161 -2 LINE"
);
},
{
closed = 1;
nodes = (
"82 621 OFFCURVE",
"129 650 OFFCURVE",
"170 666 CURVE",
"170 677 LINE",
"199 677 LINE",
"199 735 LINE",
"175 735 LINE",
"145 699 OFFCURVE",
"82 662 OFFCURVE",
"40 645 CURVE",
"53 603 LINE"
);
}
);
width = 319;
},
{
layerId = "494556E7-144A-4E25-B9FC-0C21051BD184";
paths = (
{
closed = 1;
nodes = (
"350 -2 LINE",
"350 685 LINE",
"150 685 LINE",
"150 -2 LINE"
);
},
{
closed = 1;
nodes = (
"95 494 OFFCURVE",
"138 518 OFFCURVE",
"156 525 CURVE",
"161 533 LINE",
"350 556 LINE",
"350 750 LINE",
"211 750 LINE",
"170 713 OFFCURVE",
"92 679 OFFCURVE",
"20 652 CURVE",
"73 480 LINE"
);
}
);
width = 450;
}
);
note = one;
unicode = 0031;
},
{
color = 5;
glyphname = two;
lastChange = "2023-10-03 14:31:53 +0000";
layers = (
{
guideLines = (
{
angle = 109.8225;
position = "{66, 649}";
}
);
layerId = master01;
paths = (
{
closed = 1;
nodes = (
"467 0 LINE {\"Letterink-NibData\" = {ValidForParentWidth = 21;};}",
"491 79 LINE {\"Letterink-NibData\" = {ValidForParentWidth = 21;};}",
"136 77 LINE {\"Letterink-NibData\" = {ValidForParentWidth = 21;};}",
"288 239 OFFCURVE",
"477 384 OFFCURVE",
"477 522 CURVE SMOOTH {\"Letterink-NibData\" = {ValidForParentWidth = 21;};}",
"477 671 OFFCURVE",
"366 750 OFFCURVE",
"242 750 CURVE SMOOTH {\"Letterink-NibData\" = {ValidForParentWidth = 21;};}",
"190 750 OFFCURVE",
"99 713 OFFCURVE",
"55 680 CURVE {\"Letterink-NibData\" = {ValidForParentWidth = 21;};}",
"82 604 LINE {\"Letterink-NibData\" = {ValidForParentWidth = 21;};}",
"126 630 OFFCURVE",
"212 675 OFFCURVE",
"264 680 CURVE {\"Letterink-NibData\" = {ValidForParentWidth = 21;};}",
"336 670 OFFCURVE",
"388 595 OFFCURVE",
"388 523 CURVE SMOOTH {\"Letterink-NibData\" = {ValidForParentWidth = 21;};}",
"388 416 OFFCURVE",
"234 302 OFFCURVE",
"36 78 CURVE {\"Letterink-NibData\" = {ValidForParentWidth = 21;};}",
"62 0 LINE {\"Letterink-NibData\" = {ValidForParentWidth = 21;};}"
);
}
);
width = 531;
},
{
background = {
paths = (
{
closed = 1;
nodes = (
"440 38 LINE",
"77 35 LINE",
"209 167 OFFCURVE",
"438 410 OFFCURVE",
"438 578 CURVE SMOOTH",
"438 683 OFFCURVE",
"338 750 OFFCURVE",
"255 750 CURVE SMOOTH",
"192 750 OFFCURVE",
"97 715 OFFCURVE",
"37 684 CURVE",
"54 642 LINE",
"97 668 OFFCURVE",
"163 697 OFFCURVE",
"246 711 CURVE",
"333 692 OFFCURVE",
"392 658 OFFCURVE",
"392 569 CURVE SMOOTH",
"392 445 OFFCURVE",
"192 214 OFFCURVE",
"30 29 CURVE",
"30 0 LINE",
"433 0 LINE"
);
}
);
};
guideLines = (
{
angle = 113.9625;
position = "{-61, 233}";
}
);
layerId = "FA803571-32C9-4FEE-972F-1FEF49B82217";
paths = (
{
closed = 1;
nodes = (
"433 0 LINE",
"440 38 LINE",
"77 35 LINE",
"209 167 OFFCURVE",
"438 440 OFFCURVE",
"438 578 CURVE SMOOTH",
"438 683 OFFCURVE",
"338 750 OFFCURVE",
"255 750 CURVE SMOOTH",
"192 750 OFFCURVE",
"97 715 OFFCURVE",
"37 684 CURVE",
"51 649 LINE",
"94 675 OFFCURVE",
"167 702 OFFCURVE",
"250 716 CURVE",
"337 697 OFFCURVE",
"399 663 OFFCURVE",
"399 569 CURVE SMOOTH",
"399 445 OFFCURVE",
"194 210 OFFCURVE",
"30 29 CURVE",
"42 0 LINE"
);
}
);
width = 505;
},
{
layerId = "494556E7-144A-4E25-B9FC-0C21051BD184";
paths = (
{
closed = 1;
nodes = (
"518 0 LINE",
"547 166 LINE",
"285 160 LINE",
"432 267 OFFCURVE",
"533 410 OFFCURVE",
"533 529 CURVE SMOOTH",
"533 671 OFFCURVE",
"401 750 OFFCURVE",
"255 750 CURVE SMOOTH",
"178 750 OFFCURVE",
"98 731 OFFCURVE",
"30 682 CURVE",
"80 514 LINE",
"110 531 OFFCURVE",
"182 559 OFFCURVE",
"231 567 CURVE",
"281 559 OFFCURVE",
"333 536 OFFCURVE",
"333 466 CURVE SMOOTH",
"333 354 OFFCURVE",
"149 231 OFFCURVE",
"37 160 CURVE",
"84 0 LINE"
);
}
);
width = 597;
}
);
note = two;
unicode = 0032;
},
{
color = 5;
glyphname = three;
lastChange = "2023-10-03 14:31:53 +0000";
layers = (
{
layerId = master01;
paths = (
{
closed = 1;
nodes = (
"371 -14 OFFCURVE",
"466 82 OFFCURVE",
"466 207 CURVE SMOOTH {\"Letterink-NibData\" = {ValidForParentWidth = 21;};}",
"466 297 OFFCURVE",
"398 377 OFFCURVE",
"314 400 CURVE {\"Letterink-NibData\" = {ValidForParentWidth = 21;};}",
"377 426 OFFCURVE",
"447 485 OFFCURVE",
"447 562 CURVE SMOOTH {\"Letterink-NibData\" = {ValidForParentWidth = 21;};}",
"447 679 OFFCURVE",
"355 749 OFFCURVE",
"237 749 CURVE SMOOTH {\"Letterink-NibData\" = {ValidForParentWidth = 21;};}",
"175 749 OFFCURVE",
"120 723 OFFCURVE",
"56 680 CURVE {\"Letterink-NibData\" = {ValidForParentWidth = 21;};}",
"81 604 LINE {\"Letterink-NibData\" = {ValidForParentWidth = 21;};}",
"132 637 OFFCURVE",
"206 673 OFFCURVE",
"260 681 CURVE {\"Letterink-NibData\" = {ValidForParentWidth = 21;};}",
"319 676 OFFCURVE",
"376 620 OFFCURVE",
"376 563 CURVE SMOOTH {\"Letterink-NibData\" = {ValidForParentWidth = 21;};}",
"376 477 OFFCURVE",
"279 434 OFFCURVE",
"146 413 CURVE {\"Letterink-NibData\" = {ValidForParentWidth = 21;};}",
"170 340 LINE {\"Letterink-NibData\" = {ValidForParentWidth = 21;};}",
"191 344 OFFCURVE",
"226 351 OFFCURVE",
"249 354 CURVE {\"Letterink-NibData\" = {ValidForParentWidth = 21;};}",
"322 337 OFFCURVE",
"386 281 OFFCURVE",
"386 207 CURVE SMOOTH {\"Letterink-NibData\" = {ValidForParentWidth = 21;};}",
"386 107 OFFCURVE",
"329 53 OFFCURVE",
"218 53 CURVE {\"Letterink-NibData\" = {ValidForParentWidth = 21;};}",
"191 63 OFFCURVE",
"94 105 OFFCURVE",
"51 136 CURVE {\"Letterink-NibData\" = {ValidForParentWidth = 21;};}",
"25 65 LINE {\"Letterink-NibData\" = {ValidForParentWidth = 21;};}",
"70 23 OFFCURVE",
"154 -14 OFFCURVE",
"226 -14 CURVE SMOOTH {\"Letterink-NibData\" = {ValidForParentWidth = 21;};}"
);
}
);
width = 511;
},
{
background = {
paths = (
{
closed = 1;
nodes = (
"52 41 OFFCURVE",
"115 -12 OFFCURVE",
"213 -12 CURVE SMOOTH",
"348 -12 OFFCURVE",
"436 75 OFFCURVE",
"436 197 CURVE SMOOTH",
"436 283 OFFCURVE",
"357 376 OFFCURVE",
"272 396 CURVE",
"374 425 OFFCURVE",
"417 509 OFFCURVE",
"417 578 CURVE SMOOTH",
"417 683 OFFCURVE",
"327 750 OFFCURVE",
"244 750 CURVE SMOOTH",
"181 750 OFFCURVE",
"96 719 OFFCURVE",
"36 688 CURVE",
"53 645 LINE",
"96 672 OFFCURVE",
"152 698 OFFCURVE",
"235 712 CURVE",
"322 693 OFFCURVE",
"369 658 OFFCURVE",
"369 569 CURVE SMOOTH",
"369 475 OFFCURVE",
"290 415 OFFCURVE",
"159 393 CURVE",
"170 364 LINE",
"193 371 OFFCURVE",
"216 377 OFFCURVE",
"232 377 CURVE",
"323 356 OFFCURVE",
"392 279 OFFCURVE",
"392 197 CURVE SMOOTH",
"392 93 OFFCURVE",
"326 34 OFFCURVE",
"196 26 CURVE",
"145 33 OFFCURVE",
"80 76 OFFCURVE",
"39 119 CURVE",
"15 82 LINE"
);
}
);
};
layerId = "FA803571-32C9-4FEE-972F-1FEF49B82217";
paths = (
{
closed = 1;
nodes = (
"348 -12 OFFCURVE",
"436 75 OFFCURVE",
"436 197 CURVE SMOOTH",
"436 283 OFFCURVE",
"357 376 OFFCURVE",
"272 396 CURVE",
"374 425 OFFCURVE",
"417 509 OFFCURVE",
"417 578 CURVE SMOOTH",
"417 683 OFFCURVE",
"317 750 OFFCURVE",
"244 750 CURVE SMOOTH",
"181 750 OFFCURVE",
"96 719 OFFCURVE",
"36 688 CURVE",
"50 654 LINE",
"93 677 OFFCURVE",
"152 702 OFFCURVE",
"235 716 CURVE",
"312 712 OFFCURVE",
"379 668 OFFCURVE",
"379 569 CURVE SMOOTH",
"379 465 OFFCURVE",
"290 414 OFFCURVE",
"159 392 CURVE",
"170 364 LINE",
"193 371 OFFCURVE",
"216 377 OFFCURVE",
"232 377 CURVE",
"323 356 OFFCURVE",
"398 285 OFFCURVE",
"398 197 CURVE SMOOTH",
"398 83 OFFCURVE",
"315 28 OFFCURVE",
"216 20 CURVE",
"135 37 OFFCURVE",
"79 72 OFFCURVE",
"38 115 CURVE",
"15 82 LINE",
"52 41 OFFCURVE",
"136 -12 OFFCURVE",
"213 -12 CURVE SMOOTH"
);
}
);
width = 484;
},
{
layerId = "494556E7-144A-4E25-B9FC-0C21051BD184";
paths = (
{
closed = 1;
nodes = (
"363 -14 OFFCURVE",
"487 67 OFFCURVE",
"487 206 CURVE SMOOTH",
"487 289 OFFCURVE",
"442 367 OFFCURVE",
"356 396 CURVE",
"419 422 OFFCURVE",
"469 485 OFFCURVE",
"469 562 CURVE SMOOTH",
"469 689 OFFCURVE",
"366 749 OFFCURVE",
"246 749 CURVE SMOOTH",
"168 749 OFFCURVE",
"84 723 OFFCURVE",
"17 674 CURVE",
"71 513 LINE",
"117 558 OFFCURVE",
"157 582 OFFCURVE",
"200 589 CURVE",
"231 584 OFFCURVE",
"283 566 OFFCURVE",
"283 526 CURVE SMOOTH",
"283 480 OFFCURVE",
"226 447 OFFCURVE",
"138 433 CURVE",
"162 300 LINE",
"178 305 OFFCURVE",
"214 310 OFFCURVE",
"228 311 CURVE",
"254 300 OFFCURVE",
"285 282 OFFCURVE",
"285 235 CURVE SMOOTH",
"285 185 OFFCURVE",
"249 148 OFFCURVE",
"200 148 CURVE",
"153 167 OFFCURVE",
"104 199 OFFCURVE",
"60 232 CURVE",
"10 67 LINE",
"70 7 OFFCURVE",
"152 -14 OFFCURVE",
"231 -14 CURVE SMOOTH"
);
}
);
width = 507;
}
);
note = three;
unicode = 0033;
},
{
color = 1;
glyphname = four;
lastChange = "2023-10-03 14:31:53 +0000";
layers = (
{
background = {
paths = (
{
closed = 0;
nodes = (
"414 736 LINE",
"435 675 LINE"
);
}
);
};
layerId = master01;
paths = (
{
closed = 1;
nodes = (
"589 183 LINE {\"Letterink-NibData\" = {ValidForParentWidth = 21;};}",
"614 264 LINE {\"Letterink-NibData\" = {ValidForParentWidth = 21;};}",
"78 260 LINE {\"Letterink-NibData\" = {ValidForParentWidth = 21;};}",
"90 241 LINE {\"Letterink-NibData\" = {ValidForParentWidth = 21;};}",
"376 657 LINE {\"Letterink-NibData\" = {ValidForParentWidth = 21;};}",
"347 736 LINE {\"Letterink-NibData\" = {ValidForParentWidth = 21;};}",
"10 244 LINE {\"Letterink-NibData\" = {ValidForParentWidth = 21;};}",
"31 183 LINE {\"Letterink-NibData\" = {ValidForParentWidth = 21;};}"
);
},
{
closed = 1;
nodes = (
"435 -2 LINE {\"Letterink-NibData\" = {ValidForParentWidth = 21;};}",
"435 736 LINE {\"Letterink-NibData\" = {ValidForParentWidth = 21;};}",
"347 736 LINE {\"Letterink-NibData\" = {ValidForParentWidth = 21;};}",
"347 -2 LINE {\"Letterink-NibData\" = {ValidForParentWidth = 21;};}"
);
}
);
width = 644;
},
{
background = {
paths = (
{
closed = 1;
nodes = (
"348 736 LINE",
"348 -2 LINE",
"436 -2 LINE",
"436 736 LINE"
);
},
{
closed = 1;
nodes = (
"615 264 LINE",
"79 260 LINE",
"91 241 LINE",
"377 657 LINE",
"348 736 LINE",
"11 244 LINE",
"32 183 LINE",
"590 183 LINE"
);
}
);
};
guideLines = (
{
angle = 236.9718;
position = "{175, 486}";
},
{
angle = 113.9625;
position = "{26, 233}";
}
);
layerId = "FA803571-32C9-4FEE-972F-1FEF49B82217";
paths = (
{
closed = 1;
nodes = (
"535 219 LINE",
"542 249 LINE",
"34 249 LINE",
"49 227 LINE",
"364 717 LINE",
"338 736 LINE",
"20 246 LINE",
"32 219 LINE"
);
},
{
closed = 1;
nodes = (
"376 -2 LINE",
"376 736 LINE",
"338 736 LINE",
"338 -2 LINE"
);
}
);
width = 572;
},
{
layerId = "494556E7-144A-4E25-B9FC-0C21051BD184";
paths = (
{
closed = 1;
nodes = (
"612 173 LINE",
"652 343 LINE",
"55 343 LINE",
"132 261 LINE",
"400 637 LINE",
"323 736 LINE",
"10 306 LINE",
"67 173 LINE"
);
},
{
closed = 1;
nodes = (
"523 -2 LINE",
"523 736 LINE",
"323 736 LINE",
"323 -2 LINE"
);
}
);
width = 672;
}
);
note = four;
unicode = 0034;
},
{
color = 5;
glyphname = five;
lastChange = "2023-10-03 14:31:53 +0000";
layers = (
{
background = {
paths = (
{
closed = 1;
nodes = (
"102 27 OFFCURVE",
"169 -14 OFFCURVE",
"238 -14 CURVE SMOOTH",
"394 -14 OFFCURVE",
"496 94 OFFCURVE",
"496 235 CURVE SMOOTH",
"496 363 OFFCURVE",
"409 467 OFFCURVE",
"242 467 CURVE SMOOTH",
"222 467 OFFCURVE",
"201 465 OFFCURVE",
"179 461 CURVE",
"224 659 LINE",
"459 650 LINE",
"493 739 LINE",
"157 737 LINE",
"91 428 LINE",
"112 369 LINE",
"150 381 OFFCURVE",
"188 387 OFFCURVE",
"223 387 CURVE SMOOTH",
"329 387 OFFCURVE",
"412 334 OFFCURVE",
"412 226 CURVE SMOOTH",
"412 152 OFFCURVE",
"369 69 OFFCURVE",
"258 59 CURVE",
"211 71 OFFCURVE",
"133 129 OFFCURVE",
"73 184 CURVE",
"37 88 LINE"
);
}
);
};
layerId = master01;
paths = (
{
closed = 1;
nodes = (
"394 -14 OFFCURVE",
"496 94 OFFCURVE",
"496 235 CURVE SMOOTH {\"Letterink-NibData\" = {ValidForParentWidth = 21;};}",
"496 363 OFFCURVE",
"409 467 OFFCURVE",
"242 467 CURVE SMOOTH {\"Letterink-NibData\" = {ValidForParentWidth = 21;};}",
"222 467 OFFCURVE",
"201 465 OFFCURVE",
"179 461 CURVE {\"Letterink-NibData\" = {ValidForParentWidth = 21;};}",
"224 659 LINE {\"Letterink-NibData\" = {ValidForParentWidth = 21;};}",
"459 650 LINE {\"Letterink-NibData\" = {ValidForParentWidth = 21;};}",
"491 736 LINE {\"Letterink-NibData\" = {ValidForParentWidth = 21;};}",
"157 736 LINE {\"Letterink-NibData\" = {ValidForParentWidth = 21;};}",
"91 428 LINE {\"Letterink-NibData\" = {ValidForParentWidth = 21;};}",
"112 369 LINE {\"Letterink-NibData\" = {ValidForParentWidth = 21;};}",
"150 381 OFFCURVE",
"188 387 OFFCURVE",
"223 387 CURVE SMOOTH {\"Letterink-NibData\" = {ValidForParentWidth = 21;};}",
"329 387 OFFCURVE",
"412 334 OFFCURVE",
"412 226 CURVE SMOOTH {\"Letterink-NibData\" = {ValidForParentWidth = 21;};}",
"412 152 OFFCURVE",
"351 66 OFFCURVE",
"240 56 CURVE {\"Letterink-NibData\" = {ValidForParentWidth = 21;};}",
"193 68 OFFCURVE",
"127 101 OFFCURVE",
"67 146 CURVE {\"Letterink-NibData\" = {ValidForParentWidth = 21;};}",
"37 74 LINE {\"Letterink-NibData\" = {ValidForParentWidth = 21;};}",
"102 13 OFFCURVE",
"169 -14 OFFCURVE",
"238 -14 CURVE SMOOTH {\"Letterink-NibData\" = {ValidForParentWidth = 21;};}"
);
}
);
width = 536;
},
{
background = {
paths = (
{
closed = 1;
nodes = (
"67 41 OFFCURVE",
"130 -12 OFFCURVE",
"228 -12 CURVE SMOOTH",
"353 -12 OFFCURVE",
"458 95 OFFCURVE",
"458 217 CURVE SMOOTH",
"458 375 OFFCURVE",
"369 458 OFFCURVE",
"182 458 CURVE SMOOTH",
"162 458 OFFCURVE",
"146 455 OFFCURVE",
"129 450 CURVE",
"178 701 LINE",
"441 699 LINE",
"448 737 LINE",
"142 737 LINE",
"76 419 LINE",
"97 400 LINE",
"125 412 OFFCURVE",
"173 418 OFFCURVE",
"208 418 CURVE SMOOTH",
"334 418 OFFCURVE",
"414 345 OFFCURVE",
"414 217 CURVE SMOOTH",
"414 113 OFFCURVE",
"340 37 OFFCURVE",
"211 24 CURVE",
"160 30 OFFCURVE",
"93 74 OFFCURVE",
"53 118 CURVE",
"30 82 LINE"
);
}
);
};
layerId = "FA803571-32C9-4FEE-972F-1FEF49B82217";
paths = (
{
closed = 1;
nodes = (
"353 -12 OFFCURVE",
"460 98 OFFCURVE",
"460 220 CURVE SMOOTH",
"460 382 OFFCURVE",
"363 459 OFFCURVE",
"212 459 CURVE SMOOTH",
"184 459 OFFCURVE",
"146 454 OFFCURVE",
"122 444 CURVE",
"175 701 LINE",
"441 699 LINE",
"448 737 LINE",
"142 737 LINE",
"76 419 LINE",
"97 403 LINE",
"137 416 OFFCURVE",
"177 422 OFFCURVE",
"214 422 CURVE SMOOTH",
"340 422 OFFCURVE",
"422 348 OFFCURVE",
"422 220 CURVE SMOOTH",
"422 106 OFFCURVE",
"320 28 OFFCURVE",
"221 20 CURVE",
"140 37 OFFCURVE",
"84 72 OFFCURVE",
"43 115 CURVE",
"20 82 LINE",
"57 41 OFFCURVE",
"141 -12 OFFCURVE",
"218 -12 CURVE SMOOTH"
);
}
);
width = 515;
},
{
layerId = "494556E7-144A-4E25-B9FC-0C21051BD184";
paths = (
{
closed = 1;
nodes = (
"432 -14 OFFCURVE",
"524 94 OFFCURVE",
"524 255 CURVE SMOOTH",
"524 438 OFFCURVE",
"400 499 OFFCURVE",
"309 499 CURVE SMOOTH",
"295 499 OFFCURVE",
"270 498 OFFCURVE",
"254 493 CURVE",
"278 583 LINE",
"470 573 LINE",
"525 737 LINE",
"133 737 LINE",
"55 466 LINE",
"102 319 LINE",
"128 331 OFFCURVE",
"179 347 OFFCURVE",
"207 347 CURVE SMOOTH",
"264 347 OFFCURVE",
"321 306 OFFCURVE",
"321 252 CURVE SMOOTH",
"321 196 OFFCURVE",
"296 148 OFFCURVE",
"232 148 CURVE",
"193 162 OFFCURVE",
"102 214 OFFCURVE",
"53 255 CURVE",
"15 88 LINE",
"80 27 OFFCURVE",
"147 -14 OFFCURVE",
"266 -14 CURVE SMOOTH"
);
}
);
width = 565;
}
);
note = five;
unicode = 0035;
},
